<svg width="27.502mm" height="31.312mm" version="1.1" viewBox="0 0 27.502 31.312" xmlns="http://www.w3.org/2000/svg">
 <g transform="translate(1235.3 -50.718)">
  <g stroke-width=".26458" style="font-feature-settings:normal;font-variant-caps:normal;font-variant-ligatures:normal;font-variant-numeric:normal" aria-label="">
   <path d="m-1225.5 68c0.127 0.1778 0.254 0.254 0.3556 0.254 0.076 0 0.2286-0.0762 0.4318-0.2286 0.127-0.1016 0.2286-0.508 0.2794-1.1938 0.025-0.7112 0.051-2.3876 0.076-5.0038 0.025-2.8702 0.025-4.5974-0.025-5.1816 0-0.5842-0.1016-0.9398-0.2794-1.0668-0.127-0.0762-0.2032-0.1524-0.2794-0.1778-0.254-0.1524-0.4318-0.1016-0.508 0.1524-0.127 0.3302-0.2286 1.5494-0.3048 3.7084-0.1016 2.2606-0.127 4.2164-0.076 5.9182s0.1524 2.6416 0.3302 2.8194zm-0.2032 7.4168c-0.1778 0.254-0.381 0.4318-0.5842 0.508-0.2286 0.0762-0.3302 0.0254-0.3302-0.2032 0-0.2032 0.127-0.508 0.4064-0.8636 0.2794-0.4064 0.4826-0.5842 0.6096-0.5842 0.076 0 0.1524 0.0254 0.2032 0.0762 0.1524 0.2032 0.051 0.5588-0.3048 1.0668zm2.6924 2.1844c0.254 0.1016 0.4572 0.127 0.6096 0.1016 0.1778-0.0508 0.254-0.1778 0.254-0.3556 0-0.2286-0.254-0.762-0.762-1.6764-0.508-0.8636-0.9652-1.5494-1.3716-2.032-0.3556-0.4318-0.6096-0.6858-0.762-0.762-0.127-0.0762-0.381-0.0762-0.7112-0.0508-0.635 0.0762-1.143 0.381-1.5748 0.9652-0.4064 0.5588-0.6096 1.2192-0.6096 1.9558 0 0.2794 0.025 0.5334 0.1016 0.7112 0.076 0.1778 0.1778 0.3556 0.3556 0.5334 0.3302 0.3302 0.635 0.4826 0.9652 0.4318s0.6858-0.3048 1.1176-0.7366c0.4826-0.4826 0.762-0.7366 0.8382-0.7366 0.076 0 0.2794 0.2286 0.6096 0.7112 0.1524 0.2032 0.3302 0.4064 0.4826 0.5842 0.2032 0.1778 0.3302 0.3048 0.4572 0.3556zm5.2324-17.729c-0.1778 0.1016-0.3556 0.1778-0.5842 0.254s-0.4318 0.1016-0.6096 0.1016c-0.4318 0-0.762-0.2032-0.9906-0.5842-0.254-0.381-0.381-0.9398-0.381-1.6256 0.025-0.4318 0.051-0.7366 0.127-0.9144s0.2286-0.4318 0.508-0.7366c0.3048-0.3302 0.5334-0.5334 0.6858-0.5842 0.127-0.0508 0.4572-0.0508 0.9906 0.0254 0.4826 0.0508 0.7874 0.127 0.9398 0.2032s0.3048 0.254 0.4318 0.508c0.2794 0.5588 0.3302 1.1684 0.1016 1.8288s-0.635 1.1684-1.2192 1.524zm-1.524 1.905c0.635 0.1778 1.3462 0.0508 2.1336-0.3556s1.3462-0.9398 1.6764-1.6256c0.2794-0.5588 0.4318-1.1684 0.4572-1.8542 0-0.6858-0.127-1.2954-0.3556-1.8796-0.254-0.5842-0.5842-0.9906-1.016-1.2446-0.381-0.2286-0.889-0.4318-1.5748-0.5842-0.635-0.1524-1.1176-0.1778-1.4986-0.0508s-0.8128 0.4318-1.3208 0.9652c-0.381 0.381-0.635 0.8128-0.7874 1.2954-0.1778 0.4826-0.254 1.0922-0.254 1.8288s0.254 1.4478 0.7874 2.1844 1.1176 1.1684 1.7526 1.3208z" stroke-width=".26458"/>
  </g>
 </g>
</svg>
