<svg width="27.502mm" height="31.312mm" version="1.1" viewBox="0 0 27.502 31.312" xmlns="http://www.w3.org/2000/svg">
 <g transform="translate(1235.3 -50.718)">
  <g stroke-width=".26458" style="font-feature-settings:normal;font-variant-caps:normal;font-variant-ligatures:normal;font-variant-numeric:normal" aria-label="">
   <path d="m-1219.7 63.224c-0.4064 0.1778-0.7112 0.254-0.889 0.2286s-0.4572-0.127-0.8128-0.3302c-0.3302-0.2032-0.6604-0.508-0.9398-0.8636-0.2794-0.4064-0.4318-0.7112-0.4318-0.9652 0-0.2032 0.1778-0.6096 0.5588-1.27 0.3556-0.6096 0.6604-1.016 0.889-1.1938 0.508-0.381 1.0668-0.254 1.6764 0.381 0.7874 0.8382 1.1938 1.6256 1.1684 2.3876-0.025 0.7366-0.4318 1.2954-1.2192 1.6256zm-5.9436 11.354c0.2794 0.5842 0.5334 0.889 0.762 0.9144 0.1778 0 0.2794-0.1778 0.3302-0.5842 0.051-0.3556 0.1016-1.4732 0.127-3.3274 0.025-1.4986 0.1016-2.667 0.1778-3.4798 0.076-0.7874 0.1778-1.5494 0.3302-2.286 0.1778-0.9398 0.3048-1.4478 0.3302-1.5748 0.127-0.5334 0.254-0.8128 0.381-0.8128 0.051 0 0.2286 0.1016 0.508 0.3302 0.381 0.2794 0.7874 0.5334 1.27 0.7366s0.8636 0.3048 1.1684 0.3048c0.3302 0 0.7874-0.1524 1.397-0.4572 0.5842-0.3302 1.0414-0.635 1.3208-0.9398 0.3048-0.3048 0.4826-0.762 0.5334-1.397 0.1016-1.0922-0.508-2.3114-1.8034-3.6576-0.4826-0.508-0.8636-0.8382-1.1938-1.016-0.3302-0.1524-0.7366-0.2286-1.2192-0.2286-0.4318 0-0.8636 0.2286-1.3208 0.6604s-0.8636 1.0414-1.2192 1.8034c-0.4318 0.9398-0.8382 2.1844-1.1938 3.6576-0.381 1.524-0.6604 2.9972-0.8382 4.4704-0.1778 1.4478-0.2794 2.8194-0.254 4.1148 0.025 1.2954 0.1524 2.2098 0.4064 2.7686z" stroke-width=".26458"/>
  </g>
 </g>
</svg>
