<svg width="27.502mm" height="31.312mm" version="1.1" viewBox="0 0 27.502 31.312" xmlns="http://www.w3.org/2000/svg">
 <g transform="translate(1235.3 -50.718)">
  <g stroke-width=".26458" style="font-feature-settings:normal;font-variant-caps:normal;font-variant-ligatures:normal;font-variant-numeric:normal" aria-label="">
   <path d="m-1220.8 71.352c-0.7874 0.127-1.2192 0.1778-1.27 0.1524-0.076 0-0.3556-0.0508-0.889-0.1524-0.9652-0.2032-1.8796-0.6604-2.7178-1.397-0.8382-0.7366-1.524-1.6256-2.0574-2.7178-0.2794-0.5842-0.4572-1.016-0.5334-1.3462-0.076-0.3302-0.1016-0.9652-0.1016-1.9558s0.025-1.6256 0.1016-1.9558c0.076-0.3302 0.254-0.7874 0.5334-1.4224 0.5588-1.1684 1.1684-2.0574 1.8034-2.667 0.6604-0.635 1.6002-1.1938 2.8194-1.6764 0.6096-0.2286 1.0414-0.3556 1.2954-0.381 0.2794-0.0254 0.7874 0.0254 1.5748 0.127 1.0922 0.127 1.8288 0.2794 2.2098 0.4572 0.3302 0.127 1.016 0.7874 2.0574 1.9812 1.016 1.1684 1.6764 2.0574 2.0066 2.6924 0.1778 0.3302 0.3048 0.6604 0.3302 0.9906 0.051 0.3302 0.076 0.889 0.076 1.6764 0 0.8382-0.051 1.4986-0.127 1.9558s-0.2286 0.8636-0.4572 1.2446-0.6096 0.8382-1.143 1.3716c-0.7366 0.762-1.6256 1.4224-2.6162 1.9558-1.016 0.5588-1.9812 0.9144-2.8956 1.0668zm-10.795 6.604c0.076 0.1778 0.1524 0.2794 0.2794 0.3048 0.1016 0.0254 0.2794 0 0.508-0.0762 0.127-0.0508 0.2032-0.2286 0.254-0.5334 0.025-0.3048 0.051-0.9398 0.051-1.8796 0.025-1.4986 0.076-2.413 0.1524-2.7432 0.076-0.2286 0.1524-0.3556 0.3048-0.4064 0.1016-0.0254 0.4572-0.0508 1.0414-0.0508 0.8128 0.0254 1.651 0.0762 2.4892 0.1778 0.5334 0.0762 0.889 0.0762 1.0922 0.0762 0.2032-0.0508 0.381-0.127 0.508-0.254 0.1524-0.127 0.2794-0.2032 0.4064-0.2032 0.1016 0 0.3302 0.0762 0.6604 0.2032 0.635 0.2794 1.4224 0.3556 2.3876 0.3048 0.9144-0.1016 2.1082-0.3302 3.5306-0.762 1.4732-0.4572 2.5908-0.7366 3.3274-0.8636 0.762-0.127 1.2446-0.0762 1.4732 0.1016 0.127 0.127 0.1778 0.3302 0.2032 0.6096 0.025 0.2794 0 0.9398-0.051 1.9304-0.076 1.1684-0.051 1.9812 0 2.413 0.1016 0.4318 0.2794 0.6604 0.5588 0.6604 0.3302 0 0.5588-0.254 0.7112-0.7874 0.1524-0.508 0.254-1.3716 0.2794-2.5908 0-0.4826 0-0.9144 0.025-1.27 0.025-0.3302 0-0.635-0.051-0.9144-0.025-0.2794-0.076-0.508-0.1524-0.6604-0.051-0.2032-0.1524-0.3556-0.254-0.508-0.1524-0.127-0.2794-0.254-0.4318-0.3556-0.1524-0.0762-0.3556-0.1778-0.6096-0.2794l-0.9144-0.4064 0.4572-0.6604c0.5334-0.7112 0.8636-1.7018 1.016-2.9718 0.1524-1.2446 0.1016-2.54-0.1778-3.8862-0.051-0.3302-0.1016-0.5842-0.127-0.7366-0.025-0.127-0.127-0.3556-0.254-0.6096-0.127-0.3048-0.2286-0.508-0.3302-0.635-0.051-0.127-0.254-0.4064-0.5842-0.8382s-0.6096-0.7874-0.889-1.1176-0.7366-0.8636-1.3716-1.6002c-0.4826-0.6096-1.0414-1.0414-1.6256-1.2954s-1.3716-0.4064-2.3368-0.4318c-1.0414-0.0508-1.9812 0.0508-2.794 0.2794-1.6002 0.4826-2.8956 1.1938-3.8862 2.1336s-1.7526 2.1844-2.3114 3.7592c-0.5842 1.651-0.762 3.2258-0.5588 4.7244 0.254 1.4732 0.889 2.921 1.9304 4.318 0.6096 0.7874 0.889 1.2192 0.8636 1.27-0.051 0.0508-0.6096 0-1.651-0.127-0.4064-0.0508-0.7366-0.0762-0.9906-0.1016-0.2794-0.0254-0.5334-0.0254-0.762 0.0254-0.254 0-0.4572 0.0508-0.6096 0.1016-0.127 0.0762-0.254 0.1778-0.4064 0.3556-0.1016 0.1524-0.2032 0.3302-0.254 0.508-0.076 0.1778-0.127 0.4572-0.1524 0.762-0.051 0.3556-0.076 0.6858-0.1016 1.0414v1.3462c0 1.8796 0.051 2.921 0.127 3.1496z" stroke-width=".26458"/>
  </g>
 </g>
</svg>
