<svg width="27.502mm" height="31.312mm" version="1.1" viewBox="0 0 27.502 31.312" xmlns="http://www.w3.org/2000/svg">
 <g transform="translate(1235.3 -50.718)">
  <g stroke-width=".26458" style="font-feature-settings:normal;font-variant-caps:normal;font-variant-ligatures:normal;font-variant-numeric:normal" aria-label="">
   <path d="m-1219.2 61.904c-0.3302 0.2286-0.7874 0.381-1.397 0.4064-0.635 0.0508-1.1684-0.0254-1.6256-0.2286-0.4064-0.1778-0.8636-0.5842-1.3716-1.143-0.508-0.6096-0.8636-1.143-1.0668-1.651-0.076-0.254-0.1524-0.4572-0.2032-0.5842-0.051-0.127-0.076-0.254-0.051-0.4064 0.025-0.1016 0.051-0.2032 0.127-0.254 0.051-0.0508 0.1778-0.1016 0.3556-0.1524 0.1778-0.0254 0.381-0.0508 0.6096-0.0508h0.9144c1.2192 0 2.4892-0.0508 3.8354-0.127l2.0066-0.127v0.5334c0 0.2794-0.1524 0.7874-0.4826 1.5494-0.3302 0.7366-0.635 1.27-0.8636 1.5494-0.1778 0.1778-0.4318 0.4064-0.7874 0.6858zm-2.6416 1.524c0.5334 0.127 1.1176 0.1524 1.7526 0.0508 0.635-0.0762 1.1938-0.254 1.6764-0.5334 0.7366-0.4064 1.3462-1.143 1.8796-2.2352s0.8128-2.1844 0.8382-3.3274l0.025-1.3462-0.8382 0.0254c-0.5588 0-1.397 0.0762-2.5146 0.254-1.143 0.1778-2.5654 0.2032-4.2926 0.127l-2.5654-0.127-0.2032 0.508c-0.127 0.3556-0.1524 0.8382-0.076 1.4732 0.1778 1.1684 0.6858 2.2606 1.524 3.2512s1.7526 1.6256 2.794 1.8796zm-3.1242 12.929c0.2286 0.254 0.381 0.381 0.4572 0.381 0.076 0.0254 0.2032-0.0762 0.381-0.254 0.1016-0.1016 0.1778-0.254 0.2286-0.4572 0.051-0.2286 0.076-0.4826 0.076-0.8128 0-0.8382 0.1016-1.7272 0.3302-2.6924 0.2286-0.9906 0.4826-1.8034 0.8128-2.4638 0.2794-0.5334 0.5842-1.016 0.9652-1.397 0.3556-0.381 0.7112-0.6858 1.0668-0.8636s0.7112-0.254 1.0414-0.2032c0.3302 0.0254 0.5842 0.2032 0.7874 0.508 0.3302 0.4826 0.5842 1.016 0.7112 1.6256 0.127 0.635 0.2032 1.6764 0.2794 3.175 0.051 1.3208 0.1016 2.159 0.1778 2.5146 0.051 0.381 0.1524 0.635 0.3302 0.8128l0.4064 0.4064 0.2286-0.4572c0.1778-0.3556 0.2794-1.3716 0.254-3.048-0.025-1.6764-0.127-2.8702-0.3302-3.5814-0.5334-1.8034-1.2954-2.8956-2.2606-3.2766-0.9906-0.4064-2.0828-0.0762-3.2766 1.016-0.4572 0.4318-0.9398 1.143-1.4732 2.1844-0.5334 1.0414-0.889 1.9304-1.016 2.6924-0.127 0.7112-0.2286 1.143-0.2794 1.27-0.025 0.127-0.076 0.1778-0.1524 0.1524-0.076 0-0.2794-0.2286-0.5842-0.6604-0.3302-0.4318-0.635-0.7366-0.9144-0.889-0.3556-0.1778-0.5588-0.1016-0.635 0.2794-0.025 0.1778 0.2794 0.7874 0.9144 1.8542s1.1176 1.8034 1.4732 2.1844z" stroke-width=".26458"/>
  </g>
 </g>
</svg>
