<svg width="27.502mm" height="31.312mm" version="1.1" viewBox="0 0 27.502 31.312" xmlns="http://www.w3.org/2000/svg">
 <g transform="translate(1235.3 -50.718)">
  <g stroke-width=".26458" style="font-feature-settings:normal;font-variant-caps:normal;font-variant-ligatures:normal;font-variant-numeric:normal" aria-label="">
   <path d="m-1226.3 70.209c0.1778 0.3302 0.381 0.4318 0.635 0.2794 0.254-0.1016 0.5588-0.4826 0.9398-1.0668l0.7366-1.0922 0.508 0.3302c0.3302 0.2286 0.7366 0.4318 1.1938 0.6604s0.762 0.3302 0.8636 0.3302c0.3302-0.0762 0.127-0.5588-0.635-1.4986-0.2286-0.2794-0.4318-0.5588-0.5842-0.7874s-0.254-0.381-0.254-0.4572c0-0.1778 0.2286-0.5588 0.6604-1.1684 0.7112-0.9652 0.8382-1.651 0.4318-2.032-0.4064-0.4318-0.9144-0.2286-1.4732 0.6096-0.1524 0.2286-0.3048 0.4318-0.4572 0.5842-0.1524 0.127-0.254 0.1778-0.3048 0.1524-0.1016-0.0762-0.3048-0.3556-0.5588-0.8382-0.2032-0.4318-0.4064-0.7112-0.6604-0.889-0.2286-0.1778-0.4318-0.1778-0.6096 0s-0.254 0.4572-0.2032 0.8636c0.051 0.4064 0.2032 0.8636 0.4572 1.3462 0.3048 0.6096 0.4826 1.016 0.4826 1.2192s-0.2286 0.762-0.6858 1.6764c-0.2794 0.5842-0.4572 0.9652-0.508 1.1938-0.051 0.2286-0.051 0.4064 0.025 0.5842zm10.058 0.3556c0.3048 0.1524 0.5842 0.2286 0.8382 0.2032s0.381-0.1016 0.381-0.2794c0-0.0762-0.076-0.254-0.2794-0.508-0.1778-0.2794-0.4064-0.5588-0.6604-0.8382-0.6096-0.6858-0.9398-1.1176-0.9398-1.2446s0.2286-0.5842 0.6604-1.3208c0.6604-1.143 1.0414-1.8288 1.1176-2.0828 0.1016-0.254 0.051-0.5334-0.1016-0.8128-0.2286-0.4318-0.4826-0.5588-0.7366-0.4572-0.254 0.1524-0.6096 0.5842-1.016 1.3208-0.2032 0.381-0.4064 0.6858-0.5842 0.9398s-0.3048 0.381-0.3556 0.3556c-0.1016-0.0508-0.2794-0.3048-0.508-0.7366-0.2032-0.4318-0.4572-0.7366-0.7366-0.9652-0.2794-0.2032-0.508-0.2286-0.7112-0.0762-0.3556 0.2794-0.2032 1.1176 0.4318 2.5146 0.3048 0.635 0.4572 1.0922 0.4572 1.3716s-0.127 0.6604-0.381 1.1684c-0.254 0.5334-0.3302 0.889-0.2032 1.0922 0.1524 0.254 0.3556 0.381 0.6096 0.3302 0.254 0 0.4826-0.1778 0.7366-0.508l0.508-0.6096 0.5334 0.4572c0.381 0.3302 0.6858 0.5588 0.9398 0.6858zm-4.3942 4.9022c-0.635 0.127-1.1176 0.1778-1.4224 0.1524-0.3048 0-0.8636-0.1016-1.6764-0.3048-0.8636-0.2286-1.5748-0.4826-2.1336-0.762-0.5588-0.3048-1.1176-0.7112-1.6256-1.2192-1.524-1.4986-2.4384-3.4798-2.7432-5.9436-0.1524-1.397-0.025-2.6416 0.4318-3.7338 0.4572-1.0922 1.3462-2.286 2.6162-3.5814 0.8128-0.7874 1.4732-1.3716 1.9812-1.7018 0.5334-0.3302 1.1684-0.6096 1.9304-0.8128 0.8636-0.2286 1.8796-0.3556 3.048-0.3556s2.0574 0.1016 2.6162 0.3302c0.8636 0.3302 1.6764 1.016 2.413 2.1082s1.2954 2.3622 1.7018 3.8354c0.4064 1.4478 0.5842 2.8956 0.508 4.3434-0.051 1.1684-0.254 2.1082-0.5842 2.794-0.3302 0.6858-0.9652 1.4732-1.8796 2.3622-0.5588 0.5334-1.016 0.9144-1.3716 1.1684-0.3556 0.2032-0.8128 0.4318-1.397 0.635-0.9144 0.3302-1.7272 0.5588-2.413 0.6858zm-3.5306 1.143c0.7112 0.1524 1.7018 0.1778 2.9718 0.1016 1.2954-0.0762 2.2606-0.254 2.921-0.4826 0.7366-0.254 1.4732-0.6096 2.1844-1.0668 0.7366-0.4826 1.397-0.9906 2.0066-1.5748s1.0668-1.1684 1.397-1.7526c0.8128-1.3462 1.143-3.0734 0.9906-5.1562-0.1524-2.1336-0.7366-4.2418-1.7526-6.3754-0.8128-1.7018-1.905-2.921-3.2766-3.5814-1.3716-0.7112-3.0988-0.9144-5.2324-0.6604-1.1176 0.127-2.0066 0.3556-2.7178 0.6604-0.6858 0.3048-1.4732 0.8382-2.3876 1.5748-1.143 0.9652-2.1082 2.0574-2.8702 3.302s-1.2446 2.4384-1.4224 3.5814c-0.1016 0.7874-0.076 1.7018 0.076 2.7686 0.1524 1.0668 0.381 2.032 0.7112 2.8702 0.254 0.6096 0.635 1.3208 1.1938 2.1082 0.5588 0.8128 1.0668 1.397 1.524 1.778 0.4826 0.381 1.0922 0.7874 1.8542 1.1684s1.3716 0.635 1.8288 0.7366z" stroke-width=".26458"/>
  </g>
 </g>
</svg>
