<svg width="27.502mm" height="31.312mm" version="1.1" viewBox="0 0 27.502 31.312" xmlns="http://www.w3.org/2000/svg">
 <g transform="translate(1235.3 -50.718)">
  <g stroke-width=".26458" style="font-feature-settings:normal;font-variant-caps:normal;font-variant-ligatures:normal;font-variant-numeric:normal" aria-label="">
   <path d="m-1227 68.304c0.2032 0.381 0.508 0.5588 0.8636 0.6096 0.3556 0 0.6858-0.127 0.9652-0.4318s0.4318-0.6858 0.4318-1.1684c0-0.2794-0.076-0.508-0.2286-0.7366-0.1524-0.2286-0.3556-0.381-0.5588-0.4826s-0.4572-0.1524-0.7112-0.127c-0.254 0-0.508 0.0762-0.7112 0.2286-0.2794 0.1778-0.4318 0.4826-0.4318 0.889s0.127 0.8128 0.381 1.2192zm3.0734 7.1628c0.1016 0.1016 0.2032 0.2032 0.3556 0.254 0.1524 0.1016 0.2794 0.127 0.381 0.127 0.3048 0 1.4478-0.127 3.429-0.381 1.9812-0.2794 2.9972-0.4318 3.0988-0.4826 0.127-0.0762 0.1778-0.2794 0.1524-0.5842-0.051-0.2794-0.127-0.508-0.2794-0.635-0.1524-0.1016-0.3556-0.1524-0.635-0.127-0.2794 0-0.7874 0.0508-1.4986 0.127-1.1938 0.1524-2.1082 0.254-2.7178 0.3302l-0.9398 0.127 0.127-1.397c0.051-0.9398 0.2286-2.1844 0.508-3.7338 0.254-1.5494 0.4318-3.6068 0.508-6.1214l0.1016-3.7846 0.6858-0.1016c0.4572-0.0762 1.2446-0.2032 2.3622-0.3302 0.7874-0.1016 1.3462-0.2032 1.6764-0.254 0.3048-0.1016 0.5334-0.1778 0.6604-0.3048 0.127-0.1016 0.2032-0.2794 0.2032-0.508 0-0.3302-0.076-0.5588-0.1778-0.6858-0.1016-0.127-0.3302-0.1778-0.6604-0.1778-0.3556-0.0254-0.8382 0.0254-1.4732 0.1524-1.1684 0.1778-2.1844 0.3302-3.0734 0.4064s-1.4224 0.1778-1.5748 0.2794c-0.1016 0.0508-0.1778 0.4064-0.2286 1.0414-0.051 0.635-0.051 1.8542-0.051 3.6576-0.025 2.032-0.076 3.4544-0.127 4.2672s-0.2032 1.8288-0.4064 3.048c-0.3556 2.032-0.5842 3.4544-0.635 4.2672-0.051 0.7874 0.025 1.2954 0.2286 1.524z" stroke-width=".26458"/>
  </g>
 </g>
</svg>
