<svg width="27.502mm" height="31.312mm" version="1.1" viewBox="0 0 27.502 31.312" xmlns="http://www.w3.org/2000/svg">
 <g transform="translate(1235.3 -50.718)">
  <g stroke-width=".26458" style="font-feature-settings:normal;font-variant-caps:normal;font-variant-ligatures:normal;font-variant-numeric:normal" aria-label="">
   <path d="m-1217.3 61.599c-0.1016 0-0.254 0.0254-0.4572 0.1016-0.127 0.0508-0.2794 0-0.381-0.1016-0.1524-0.1524-0.254-0.3556-0.3556-0.635-0.1016-0.2286-0.076-0.5334 0.076-0.889 0.1524-0.3302 0.381-0.635 0.6604-0.9144 0.2794-0.254 0.5588-0.381 0.8128-0.381 0.2286 0 0.4826 0.127 0.7366 0.4318 0.254 0.254 0.381 0.5334 0.381 0.7874 0 0.2032-0.2032 0.5334-0.5842 0.9398-0.381 0.4572-0.6858 0.6604-0.889 0.6604zm-7.8994-0.0254c-0.4826 0.508-0.9144 0.6858-1.3208 0.5334-0.4064-0.127-0.6096-0.5588-0.635-1.2446 0-0.4572 0.076-0.7874 0.2794-0.9906 0.1524-0.2032 0.5334-0.381 1.0668-0.508 0.3556-0.1016 0.6096-0.1524 0.7366-0.1524 0.127 0.0254 0.254 0.0762 0.381 0.2032 0.2032 0.2032 0.254 0.5334 0.1524 0.9652s-0.3302 0.8382-0.6604 1.1938zm2.4384 10.236c0.127 0.2794 0.3556 0.4318 0.6858 0.4572s0.6604-0.1016 0.9398-0.3556c0.2794-0.2286 0.4318-0.5334 0.4318-0.8636 0-0.2286-0.1524-0.508-0.4826-0.762-0.3048-0.3048-0.5842-0.4318-0.8382-0.4318-0.3048 0-0.5334 0.2286-0.7112 0.6604-0.1778 0.4318-0.1778 0.8636-0.025 1.2954zm2.7686 1.4986c-0.381 0.1778-0.7112 0.3048-1.016 0.381s-0.7112 0.1016-1.1938 0.1016c-0.5588 0-0.9652-0.0254-1.2192-0.1016-0.2286-0.0762-0.5588-0.2286-0.9652-0.508-0.5588-0.381-1.0414-0.8636-1.4478-1.4986s-0.7112-1.2954-0.9144-2.0066c-0.2032-0.6858-0.2794-1.4224-0.254-2.1336 0.025-0.762 0.2032-1.397 0.4826-1.9812 0.6858-1.3462 1.651-2.286 2.8448-2.7686 1.2192-0.4826 2.5146-0.4572 3.9116 0.0762 0.9144 0.3302 1.5748 0.7874 1.9812 1.3462 0.381 0.5334 0.6604 1.3462 0.8382 2.413 0.2286 1.4478 0.076 2.794-0.4826 4.0132-0.5588 1.1938-1.4224 2.0828-2.5654 2.667zm-3.3274 1.8034c0.3302 0.1016 0.6604 0.1524 0.9652 0.1524 0.2794 0 0.7366-0.0508 1.3716-0.1778 1.4986-0.2794 2.7432-0.9398 3.7084-1.9558 0.9652-1.0414 1.5748-2.3368 1.8288-3.937 0.1778-0.9906 0.1524-2.0574-0.1016-3.175-0.2032-1.1176-0.5588-1.9304-0.9906-2.413-0.1524-0.1778-0.2286-0.2794-0.2032-0.3556 0.025-0.0762 0.127-0.1778 0.3556-0.3048 0.3302-0.1778 0.7874-0.5842 1.3716-1.1684 0.5334-0.508 0.8128-0.9398 0.8636-1.3208 0.051-0.381-0.1016-0.7874-0.4572-1.27-0.5334-0.7366-1.2192-1.2446-2.0574-1.5494-0.8128-0.254-1.4986-0.2286-2.0574 0.127-0.4318 0.2794-0.8128 0.6858-1.143 1.1938-0.3048 0.508-0.4572 0.9652-0.4572 1.3716 0 0.3556-0.025 0.5588-0.051 0.6096-0.051 0.0762-0.1778 0.0762-0.4064 0.0254-0.3302-0.0762-0.762-0.1524-1.3208-0.2286-0.381-0.0762-0.635-0.127-0.7112-0.2032-0.076-0.0762-0.127-0.2286-0.127-0.4826 0-0.3556-0.1778-0.7112-0.5334-1.0922-0.3302-0.381-0.762-0.6858-1.2954-0.9144-0.5334-0.254-1.0414-0.381-1.5494-0.381-0.3302 0-0.6858 0.1524-1.1176 0.4826-0.4064 0.3302-0.762 0.7112-1.0668 1.143s-0.4572 0.8382-0.4572 1.1938c0 0.3302 0.1016 0.7366 0.3048 1.1684 0.2032 0.4572 0.4572 0.8636 0.762 1.2192l0.6604 0.7874-0.5334 1.0922c-0.5334 1.0668-0.7112 2.286-0.5588 3.6068 0.1524 1.3716 0.6096 2.6416 1.397 3.8608 0.9906 1.4986 2.1844 2.4638 3.6068 2.8956z" stroke-width=".26458"/>
  </g>
 </g>
</svg>
