<svg width="27.502mm" height="31.312mm" version="1.1" viewBox="0 0 27.502 31.312" xmlns="http://www.w3.org/2000/svg">
 <g transform="translate(1235.3 -50.718)">
  <g stroke-width=".26458" style="font-feature-settings:normal;font-variant-caps:normal;font-variant-ligatures:normal;font-variant-numeric:normal" aria-label="">
   <path d="m-1222.4 73.638c-1.27 0.381-1.905 0.4572-1.8542 0.2032 0-0.0762 0.4064-0.4572 1.2192-1.1176 1.6256-1.3462 2.7178-2.8448 3.2766-4.5212 0.5588-1.651 0.508-3.2004-0.1524-4.6228-0.4572-0.9144-1.0668-1.7018-1.8796-2.3368-0.8128-0.6604-1.8542-1.2192-3.1242-1.7018-0.3048-0.127-0.5334-0.2286-0.7366-0.3302s-0.3048-0.1778-0.3048-0.2286 0.1778-0.1016 0.5588-0.127 0.8382-0.0508 1.397-0.0508c1.4732 0 2.5908 0.127 3.3528 0.4064s1.5494 0.8128 2.3622 1.651c0.3556 0.3556 0.7112 0.7874 1.0922 1.2446 0.3556 0.508 0.635 0.889 0.8128 1.2192 0.2794 0.5334 0.4572 0.9398 0.5334 1.2192 0.051 0.3048 0.1016 0.762 0.1016 1.397 0 0.9398-0.1524 1.7526-0.4318 2.4638-0.4064 1.0668-1.2192 2.1082-2.413 3.0988s-2.4638 1.7018-3.81 2.1336zm-4.3942 1.7272c1.2954 0.1524 2.5146 0.127 3.6576-0.1016 1.1176-0.2032 2.3368-0.635 3.6068-1.2954 1.1684-0.6096 2.0828-1.2446 2.794-1.905 0.7112-0.635 1.2446-1.397 1.651-2.2352 0.3302-0.7366 0.5842-1.524 0.7366-2.3876 0.1524-0.8128 0.2032-1.5748 0.127-2.2352-0.1016-0.7366-0.4318-1.6002-0.9906-2.54-0.5588-0.9652-1.2192-1.8542-2.032-2.6924s-1.6256-1.4478-2.413-1.8542c-0.7112-0.381-1.8034-0.6604-3.302-0.8382s-2.6924-0.2032-3.556-0.0254c-0.4064 0.0762-0.635 0.1524-0.7366 0.2286s-0.1524 0.2794-0.1524 0.5842c-0.025 0.1778-0.076 0.3556-0.1524 0.5334-0.076 0.2032-0.1524 0.3556-0.2032 0.4318-0.1524 0.1524-0.2286 0.3556-0.1778 0.6096 0.051 0.254 0.1778 0.4572 0.381 0.635 0.1524 0.127 0.6858 0.3302 1.651 0.5588 1.778 0.4826 3.0988 1.1684 3.937 2.0828 0.8382 0.9398 1.1938 2.0828 1.0414 3.4544-0.1016 0.889-0.4826 1.8034-1.1176 2.794s-1.4224 1.8796-2.3876 2.6924c-0.9652 0.7874-1.9558 1.3716-2.9718 1.7526-0.508 0.1778-0.8382 0.3302-1.016 0.4826-0.2032 0.1016-0.3048 0.254-0.3048 0.4064-0.051 0.1778-0.025 0.3048 0.076 0.3556 0.1016 0.1016 0.2794 0.1778 0.5842 0.254 0.4572 0.127 0.889 0.2286 1.27 0.254z" stroke-width=".26458"/>
  </g>
 </g>
</svg>
