<svg width="27.502mm" height="31.312mm" version="1.1" viewBox="0 0 27.502 31.312" xmlns="http://www.w3.org/2000/svg">
 <g transform="translate(1235.3 -50.718)">
  <g stroke-width=".26458" style="font-feature-settings:normal;font-variant-caps:normal;font-variant-ligatures:normal;font-variant-numeric:normal" aria-label="î€">
   <path d="m-1214 59.846c-0.254 0.2794-0.4826 0.4572-0.6604 0.5334s-0.4572 0.1016-0.8636 0.1016c-0.5588-0.0254-0.9906-0.0762-1.27-0.2032-0.2794-0.1016-0.5334-0.3048-0.7366-0.6096-0.2032-0.3302-0.3048-0.6096-0.3048-0.8636 0.025-0.2286 0.1524-0.4572 0.4064-0.6858 0.6096-0.5588 1.2954-0.889 2.0574-0.9906 0.762-0.127 1.3208 0.0254 1.651 0.4572 0.5588 0.762 0.4826 1.524-0.2794 2.2606zm-13.919 1.524c-0.4572 0.1524-0.762 0.2286-0.9144 0.2286-0.127-0.0254-0.3302-0.1016-0.5842-0.2794-0.3556-0.2794-0.4826-0.6096-0.381-1.0414 0.1524-0.4318 0.508-0.8636 1.1176-1.2954 0.4572-0.3302 0.8128-0.508 1.1176-0.5334 0.3048-0.0508 0.5842 0.0508 0.7874 0.3048 0.1778 0.2032 0.2794 0.4318 0.2794 0.7112 0.025 0.254-0.025 0.508-0.127 0.762-0.1016 0.254-0.254 0.4826-0.4826 0.7112-0.2286 0.2032-0.508 0.3556-0.8128 0.4318zm3.6068 15.469c0.4826 0.2032 1.0922 0.3048 1.8542 0.254 0.7366 0 1.397-0.1524 1.905-0.4064 1.4224-0.6604 2.5908-2.0828 3.5052-4.2672 0.889-2.159 1.4224-4.7752 1.5748-7.8486l0.127-2.3622 0.9398-0.127c0.4064-0.0762 0.7366-0.1778 0.9652-0.2794 0.2286-0.1524 0.5334-0.381 0.889-0.7366 0.508-0.508 0.8128-0.9906 0.9652-1.4478 0.127-0.4826 0.127-1.016-0.076-1.6256-0.1524-0.5334-0.4318-0.9906-0.889-1.3716-0.4318-0.4064-0.9398-0.7112-1.4732-0.8636-0.5588-0.2032-1.143-0.254-1.778-0.2286s-1.2192 0.2032-1.7272 0.508c-0.762 0.4318-1.2954 0.9398-1.6256 1.5494-0.3048 0.5588-0.4064 1.143-0.2286 1.7272 0.1524 0.5588 0.5588 1.0668 1.1684 1.4986 0.2032 0.1524 0.4064 0.3302 0.5842 0.5334 0.2032 0.2032 0.3048 0.381 0.3556 0.5334 0.127 0.381 0.1778 1.016 0.1778 1.9558-0.025 0.9398-0.1016 1.9558-0.2794 3.0734-0.381 2.6162-1.016 4.6736-1.8796 6.1214s-1.9558 2.3114-3.302 2.5654c-0.508 0.0762-1.0414 0.0254-1.5748-0.2032s-1.016-0.5588-1.4732-1.0414c-0.4318-0.4572-0.8382-1.016-1.2192-1.6764-0.3556-0.6604-0.6604-1.3716-0.889-2.159-0.2286-0.7874-0.4064-1.6002-0.508-2.4384s-0.076-1.7018 0.051-2.54c0.076-0.4826 0.127-0.889 0.2032-1.143 0.051-0.3048 0.1016-0.5334 0.1778-0.762 0.051-0.2032 0.127-0.3556 0.2286-0.4572s0.2032-0.1778 0.3302-0.254c0.1016-0.0508 0.254-0.1016 0.4572-0.1524 0.4572-0.127 0.8636-0.3556 1.1938-0.6604 0.3302-0.3556 0.5588-0.7112 0.7112-1.143s0.2286-0.889 0.1778-1.397c-0.025-0.4826-0.1778-0.9398-0.4318-1.3716-0.2794-0.4826-0.8128-0.8382-1.5748-1.0668s-1.4478-0.2286-2.1082-0.0254c-0.762 0.254-1.4478 0.762-1.9812 1.5494-0.5588 0.762-0.762 1.4732-0.6604 2.1336 0.076 0.381 0.2794 0.762 0.5842 1.1684 0.3302 0.4318 0.6604 0.6858 0.9652 0.8128 0.1778 0.0508 0.2794 0.1016 0.3302 0.2032 0.025 0.0508 0.051 0.1778 0 0.3048-0.1016 0.4064-0.2286 1.016-0.3048 1.778-0.1016 0.8128-0.1524 1.5494-0.1524 2.2352 0 0.8128 0.1778 1.8288 0.508 3.0226 0.3302 1.1938 0.7112 2.1844 1.143 2.921 0.4826 0.8382 1.0414 1.5494 1.7018 2.1336 0.635 0.5842 1.4478 1.0668 2.3622 1.4732z" stroke-width=".26458"/>
  </g>
 </g>
</svg>
