<svg width="27.502mm" height="31.312mm" version="1.1" viewBox="0 0 27.502 31.312" xmlns="http://www.w3.org/2000/svg">
 <g transform="translate(1235.3 -50.718)">
  <g stroke-width=".26458" style="font-feature-settings:normal;font-variant-caps:normal;font-variant-ligatures:normal;font-variant-numeric:normal" aria-label="î‚">
   <path d="m-1223.1 66.095c0.051 0.3302 0.2032 0.4826 0.4572 0.4826 0.254 0.0254 0.4572-0.127 0.6096-0.4064 0.051-0.1016 0.1524-0.508 0.254-1.1684 0.1016-0.7112 0.1778-1.4732 0.254-2.3114l0.3048-3.0734-0.4572-0.3556c-0.3048-0.2286-0.5334-0.3302-0.6858-0.3556-0.1778 0-0.3302 0.1016-0.4318 0.3302s-0.2032 1.3208-0.3048 3.3274-0.1016 3.175 0 3.5306zm2.667 4.191c0.1016 0.1524 0.2032 0.254 0.3556 0.3048s0.381 0.0762 0.7366 0.1016 1.016 0.0254 1.9812 0.0254h1.6002c0.3048 0 0.5842-0.0254 0.8636-0.0762 0.254-0.0254 0.4318-0.0762 0.5334-0.127 0.076-0.0508 0.1778-0.127 0.3302-0.254l0.5334-0.4572-0.508-0.508c-0.1016-0.1016-0.2032-0.1778-0.2794-0.2286-0.076-0.0508-0.1778-0.1016-0.2794-0.1524s-0.3048-0.0762-0.5842-0.1016-0.5588-0.0254-0.8636-0.0508-0.762-0.0254-1.4224-0.0508c-1.2192-0.0508-2.0066-0.0508-2.413-0.0508-0.4064 0.0508-0.6604 0.1016-0.7112 0.2032-0.127 0.2032-0.1778 0.4318-0.1524 0.6858 0 0.254 0.1016 0.508 0.2794 0.7366zm-9.3472 0.6604c0.6096 0.0762 1.4478 0.0762 2.5146 0s1.778-0.1778 2.1336-0.3048c0.3556-0.1524 0.5588-0.3302 0.635-0.508 0.051-0.2032-0.051-0.3556-0.3048-0.4572-0.1778-0.0762-1.016-0.2032-2.54-0.4064s-2.54-0.3048-3.048-0.3302c-0.254 0-0.4064 0.0254-0.4826 0.0762-0.076 0.0762-0.127 0.2032-0.127 0.4318-0.051 0.4064 0.025 0.7366 0.254 1.016 0.2286 0.2794 0.5588 0.4318 0.9652 0.4826zm15.037-11.074c-0.1778 0.1016-0.3556 0.1778-0.5842 0.254s-0.4318 0.1016-0.6096 0.1016c-0.4318 0-0.762-0.2032-0.9906-0.5842-0.254-0.381-0.381-0.9398-0.381-1.6256 0-0.3302 0.051-0.635 0.127-0.9144 0.025-0.1524 0.2032-0.4064 0.508-0.7366s0.5334-0.5334 0.6858-0.5842c0.127-0.0508 0.4572-0.0508 0.9906 0.0254 0.4826 0.0508 0.7874 0.127 0.9398 0.2032s0.3048 0.254 0.4318 0.508c0.2794 0.5588 0.3302 1.1684 0.1016 1.8288s-0.635 1.1684-1.2192 1.524zm-1.524 1.905c0.635 0.1778 1.3462 0.0508 2.1336-0.3556s1.3462-0.9398 1.6764-1.6256c0.2794-0.6096 0.4318-1.2192 0.4572-1.8542 0-0.6858-0.127-1.2954-0.3556-1.8796-0.254-0.5842-0.5842-0.9906-1.016-1.2446-0.381-0.2286-0.889-0.4318-1.5748-0.5842-0.635-0.1524-1.1176-0.1778-1.4986-0.0508s-0.8128 0.4318-1.3208 0.9652c-0.381 0.381-0.635 0.8128-0.7874 1.2954-0.1778 0.4826-0.254 1.0922-0.254 1.8288s0.254 1.4478 0.7874 2.1844 1.1176 1.1684 1.7526 1.3208z" stroke-width=".26458"/>
  </g>
 </g>
</svg>
