<svg width="27.502mm" height="31.312mm" version="1.1" viewBox="0 0 27.502 31.312" xmlns="http://www.w3.org/2000/svg">
 <g transform="translate(1235.3 -50.718)">
  <g stroke-width=".26458" style="font-feature-settings:normal;font-variant-caps:normal;font-variant-ligatures:normal;font-variant-numeric:normal" aria-label="î‚">
   <path d="m-1220.1 68.127c-0.1524 0.0762-0.9398 0.1524-2.3876 0.2032-1.4224 0.0508-2.1844 0.0254-2.2352-0.0508-0.051-0.127-0.127-0.8128-0.2286-2.0574l-0.127-1.8542 1.016-0.127c0.6604-0.0762 1.524-0.127 2.54-0.127h1.5494v1.9558c0 1.3208-0.025 2.0066-0.127 2.0574zm-6.0452 5.5626h-0.025c0.1016 0.2032 0.3048 0.3302 0.5842 0.3556 0.3048 0.0254 0.508-0.0254 0.6604-0.2032 0.1524-0.127 0.1524-0.4826 0.025-1.0414-0.1016-0.5842-0.127-1.1938-0.051-1.8542l0.127-0.9652 0.9652-0.127c0.6604-0.0762 1.4478-0.1016 2.413-0.1016h1.4732v1.6256c0 0.9398 0.076 1.6256 0.2286 2.0066 0.127 0.381 0.381 0.5842 0.7366 0.5842h0.4572l0.051-2.2098 0.051-2.2098h0.8636c0.5842 0 1.27 0.0762 2.0574 0.2032 0.7112 0.127 1.1684 0.127 1.397 0.0254 0.254-0.1016 0.3556-0.3556 0.3556-0.762 0-0.381-0.1016-0.635-0.3048-0.762s-0.5588-0.2032-1.1176-0.2032c-0.635 0-1.3462-0.0508-2.1082-0.127l-1.143-0.127v-3.683l0.508 0.1016c1.9812 0.3048 3.2512 0.5588 3.8608 0.7874 0.3302 0.1016 0.5588 0.1524 0.6858 0.1524 0.1524-0.0254 0.3048-0.0762 0.4826-0.2032 0.3302-0.2032 0.4826-0.4318 0.4318-0.6858-0.025-0.254-0.2286-0.4572-0.5842-0.6096-0.4064-0.1778-1.397-0.381-2.9718-0.6604-0.635-0.127-1.1938-0.2286-1.6764-0.381-0.4826-0.1016-0.7366-0.2032-0.7874-0.254-0.1016-0.127-0.1524-0.7112-0.1524-1.7272 0-0.635-0.025-1.0668-0.051-1.2954-0.051-0.2286-0.1524-0.4318-0.3048-0.5588-0.1016-0.0762-0.2286-0.1524-0.3556-0.2032-0.1524-0.0508-0.254-0.0762-0.3556-0.0508-0.1524 0.0254-0.2286 0.1524-0.2794 0.381-0.025 0.2286-0.051 0.762-0.051 1.651v1.9558l-0.9398 0.127c-0.8636 0.127-1.778 0.1778-2.7686 0.1524-0.9652-0.0254-1.4732-0.1016-1.4732-0.2286 0.025-0.1524-0.025-0.762-0.1524-1.8034-0.1016-0.8128-0.2286-1.3716-0.4064-1.651-0.1524-0.2794-0.4318-0.4318-0.8128-0.4318-0.1016 0-0.1524 0.0254-0.2032 0.1016-0.025 0.0762-0.051 0.254-0.051 0.5334-0.025 0.3048 0 0.6858 0.025 1.143 0.051 0.4572 0.1016 1.143 0.1778 2.0828 0 0.0762 0 0.1524-0.025 0.1778-0.025 0.0508-0.1016 0.1016-0.254 0.127-0.127 0.0254-0.3048 0.0508-0.5334 0.0762-0.2032 0.0254-0.5588 0.0254-1.016 0.0508s-0.8128 0.0508-1.0414 0.0762c-0.2032 0.0254-0.4064 0.0508-0.5588 0.0762s-0.2286 0.0762-0.2794 0.127c-0.025 0.0508-0.051 0.127-0.076 0.2032-0.025 0.254 0.051 0.508 0.2286 0.762 0.127 0.1524 0.3048 0.254 0.5588 0.3302 0.254 0.0508 0.762 0.1016 1.4732 0.127l1.7526 0.1016 0.102 3.4544-1.1938 0.0254c-0.762 0.0254-1.4732 0.0762-2.1082 0.1524-0.381 0.0508-0.635 0.1016-0.762 0.1778s-0.2032 0.2032-0.2286 0.381c0 0.127 0 0.254 0.051 0.4064s0.127 0.2794 0.2032 0.381c0.1524 0.1778 0.3556 0.254 0.5842 0.2794s0.762 0 1.5748-0.0508l1.8542-0.127v1.7526c0 0.4826 0.025 0.9144 0.076 1.3208 0.025 0.4064 0.076 0.6604 0.127 0.762z" stroke-width=".26458"/>
  </g>
 </g>
</svg>
