<svg width="27.502mm" height="31.312mm" version="1.1" viewBox="0 0 27.502 31.312" xmlns="http://www.w3.org/2000/svg">
 <g transform="translate(1235.3 -50.718)">
  <g stroke-width=".26458" style="font-feature-settings:normal;font-variant-caps:normal;font-variant-ligatures:normal;font-variant-numeric:normal" aria-label="îƒ">
   <path d="m-1221.3 76.94c0.3048 0.0508 1.0414 0.0508 2.159 0.0254 0.7112-0.0254 1.2192-0.1016 1.5748-0.1778s0.762-0.254 1.2192-0.4826c0.6858-0.3302 1.3208-0.7874 1.9558-1.397 0.6096-0.6096 1.0922-1.27 1.4478-1.9812 0.2794-0.4826 0.4318-0.9144 0.4826-1.2192 0.025-0.3556 0.051-1.0922 0.051-2.2352 0-0.9906-0.025-1.7272-0.076-2.2352-0.076-0.5334-0.1778-1.0922-0.3556-1.6764-0.254-0.9398-0.5334-1.7018-0.8128-2.286-0.254-0.5842-0.6096-1.0414-1.016-1.4224-0.4318-0.381-0.889-0.635-1.4224-0.8128-0.5334-0.1524-1.2192-0.254-2.032-0.2794-0.7112-0.0254-1.27 0-1.7272 0.0254-0.4318 0.0508-0.9652 0.1524-1.5748 0.3302-1.3462 0.3556-2.286 0.889-2.8194 1.6002-0.5334 0.7366-0.8128 1.8034-0.8128 3.2004 0 0.6858 0.025 1.1684 0.1016 1.4732 0.051 0.3302 0.1778 0.6858 0.381 1.0922 0.6604 1.2446 1.27 2.1082 1.8542 2.6162 0.5842 0.4572 1.3462 0.7112 2.2606 0.7112 1.0922 0 1.9304-0.2032 2.4892-0.6604 0.5842-0.4064 0.8382-1.016 0.7366-1.7526-0.025-0.3048-0.1016-0.5842-0.254-0.8382-0.2032-0.4064-0.4064-0.6096-0.6604-0.635-0.2286-0.0254-0.3556 0.1778-0.3556 0.6096 0 0.3302-0.051 0.6096-0.1524 0.7874-0.127 0.2032-0.3048 0.381-0.6096 0.508-0.3302 0.1778-0.7366 0.2794-1.1938 0.2794-0.4826 0-0.889-0.1016-1.2446-0.2794-0.3048-0.1778-0.6858-0.5334-1.0668-1.1176-0.4064-0.5842-0.6604-1.1176-0.8128-1.651-0.1016-0.4826-0.127-1.0414-0.051-1.6764 0.127-0.9906 0.6604-1.7526 1.6002-2.3114s2.1844-0.8382 3.7338-0.8636c1.0414-0.0254 1.778 0.1016 2.2352 0.3556 0.4572 0.2286 0.889 0.762 1.27 1.5494 0.3556 0.7112 0.6604 1.7018 0.889 2.921 0.2286 1.27 0.3048 2.2352 0.2032 2.9464-0.1524 1.1684-0.6096 2.2352-1.397 3.2004-0.7874 0.9398-1.7018 1.5748-2.7686 1.8796-1.4986 0.4318-3.0734 0.4064-4.699 0-1.651-0.4572-3.0226-1.2192-4.1402-2.3368-1.3208-1.3208-2.1082-2.9464-2.3622-4.9276-0.254-1.9304 0.076-3.8354 0.9906-5.6388 0.8636-1.7018 2.0574-2.9972 3.6068-3.8354s3.3782-1.2192 5.4864-1.1176c0.6858 0.0254 1.1938 0.0762 1.524 0.127 0.3556 0.0762 0.6604 0.1778 0.9144 0.3556 0.4064 0.254 0.7112 0.381 0.9398 0.4064 0.2032 0.0254 0.3556-0.0762 0.4318-0.2794 0.051-0.1524-0.051-0.381-0.3302-0.6858-0.254-0.3302-0.6096-0.635-1.0668-0.9144-0.762-0.4826-1.9812-0.6858-3.6322-0.6096-1.6256 0.1016-3.0988 0.4572-4.3942 1.0668-1.27 0.6096-2.3114 1.3208-3.0734 2.1336-0.762 0.8382-1.397 1.9304-1.9558 3.2766-0.5588 1.4478-0.8636 2.921-0.9144 4.445-0.051 1.4986 0.1778 2.8194 0.6858 3.9116 0.3048 0.6604 0.7366 1.3716 1.2446 2.1082 0.5334 0.7366 0.9906 1.2954 1.3716 1.651 0.6604 0.5842 1.5494 1.1176 2.7178 1.6764 1.143 0.508 2.2352 0.889 3.2258 1.0668z" stroke-width=".26458"/>
  </g>
 </g>
</svg>
