<svg width="27.502mm" height="31.312mm" version="1.1" viewBox="0 0 27.502 31.312" xmlns="http://www.w3.org/2000/svg">
 <g transform="translate(1235.3 -50.718)">
  <g stroke-width=".26458" style="font-feature-settings:normal;font-variant-caps:normal;font-variant-ligatures:normal;font-variant-numeric:normal" aria-label="î„">
   <path d="m-1222.3 75.442c0.1778 0.2286 0.4318 0.3048 0.762 0.254l0.4826-0.0508 0.076-4.6736 0.1016-4.6736 0.9906 1.2446c0.5334 0.6858 0.9652 1.143 1.27 1.4224s0.5842 0.4064 0.8382 0.4064c0.3302 0 0.4826-0.1524 0.4826-0.4826 0-0.4826-0.2794-1.0414-0.8636-1.7018-0.3556-0.4064-0.889-1.143-1.6002-2.2098l-1.0668-1.6002 0.1524-3.0988c0.076-1.4732 0.076-2.3622 0.051-2.667s-0.1524-0.508-0.3302-0.6096c-0.1524-0.0762-0.381-0.1524-0.6604-0.1778-0.3048-0.0254-0.4572-0.0254-0.4826 0.0254-0.025 0.0254-0.076 1.143-0.1778 3.3782-0.076 1.3462-0.127 2.2606-0.2032 2.7432-0.051 0.4826-0.127 0.8128-0.254 0.9398-0.2794 0.3302-0.8636 1.2446-1.6764 2.7686-0.8636 1.4986-1.27 2.3622-1.27 2.5654 0 0.2794 0.076 0.4826 0.2286 0.635 0.2286 0.254 0.4826 0.3048 0.7366 0.1524 0.2794-0.1778 0.635-0.5842 1.0668-1.27l0.889-1.3208 0.1016 3.8354c0.025 1.4478 0.076 2.4892 0.127 3.0734 0.051 0.6096 0.127 0.9652 0.2286 1.0922z" stroke-width=".26458"/>
  </g>
 </g>
</svg>
