<svg width="27.502mm" height="31.312mm" version="1.1" viewBox="0 0 27.502 31.312" xmlns="http://www.w3.org/2000/svg">
 <g transform="translate(1235.3 -50.718)">
  <g stroke-width=".26458" style="font-feature-settings:normal;font-variant-caps:normal;font-variant-ligatures:normal;font-variant-numeric:normal" aria-label="î…">
   <path d="m-1228.8 75.62c0.381 0.2794 0.635 0.3556 0.762 0.254 0.127-0.1524 0.1778-0.7874 0.1778-1.8796 0-1.8034 0.1778-3.4798 0.5334-5.0292 0.3556-1.5494 0.9398-3.1242 1.7272-4.7498 0.8382-1.7526 1.7272-3.1496 2.667-4.191s1.8034-1.6002 2.6416-1.6764c0.381-0.0508 0.635-0.0254 0.7874 0.0508 0.1778 0.0762 0.4318 0.3302 0.8128 0.762 0.5842 0.6858 1.143 1.6002 1.6764 2.794 0.5334 1.1684 0.9398 2.4384 1.27 3.8354 0.1778 0.8382 0.3048 2.4892 0.381 4.9784 0.051 1.4986 0.1016 2.54 0.1524 3.0734 0.051 0.5334 0.127 0.889 0.254 1.016 0.1778 0.2032 0.3556 0.3048 0.5334 0.3048s0.3048-0.127 0.4318-0.3556c0.1524-0.2794 0.2286-1.4986 0.2032-3.6576-0.025-2.159-0.1016-3.7338-0.2794-4.699-0.3302-1.7526-0.8128-3.4036-1.4986-4.9022-0.6858-1.524-1.4478-2.7178-2.3368-3.6068-0.8636-0.889-1.7018-1.3208-2.54-1.3208-0.9652 0-2.032 0.5588-3.2004 1.6764-1.143 1.143-2.1844 2.6162-3.0988 4.4704-0.8128 1.6256-1.397 3.1242-1.7272 4.5212s-0.5588 3.1242-0.635 5.1816c-0.076 1.4224-0.1016 2.2606-0.076 2.54 0.025 0.254 0.1524 0.4572 0.381 0.6096z" stroke-width=".26458"/>
  </g>
 </g>
</svg>
