<svg width="27.502mm" height="31.312mm" version="1.1" viewBox="0 0 27.502 31.312" xmlns="http://www.w3.org/2000/svg">
 <g transform="translate(1235.3 -50.718)">
  <g stroke-width=".26458" style="font-feature-settings:normal;font-variant-caps:normal;font-variant-ligatures:normal;font-variant-numeric:normal" aria-label="î†">
   <path d="m-1222.6 78.414c0.076 0.0762 0.1778 0.1524 0.3302 0.2286 0.1016 0.0762 0.2286 0.1016 0.3048 0.1016 0.1778 0 0.4064-0.1524 0.6858-0.4826 0.2794-0.3048 0.4064-0.5842 0.4064-0.8128s0.2286-0.7366 0.7366-1.4986c0.4572-0.762 1.0668-1.5494 1.7526-2.3876l0.076-0.0762c0.7366-0.9144 1.143-1.4732 1.2192-1.651 0.1016-0.1778 0.076-0.4064-0.1016-0.6604v-0.0254c-0.1778-0.2794-0.4318-0.4318-0.7112-0.4572s-0.508 0.1016-0.6858 0.381c-0.2032 0.3302-0.6858 0.9398-1.4478 1.8542-0.7366 0.8636-1.143 1.3208-1.2192 1.3208-0.051-0.1016-0.076-0.6604-0.076-1.651s0.025-2.413 0.127-4.2672c0.051-1.8542 0.1524-3.81 0.2794-5.8674 0.1778-3.2258 0.254-5.3086 0.2286-6.223 0-0.9144-0.1016-1.5494-0.3048-1.8796-0.076-0.1524-0.2032-0.2794-0.3048-0.381-0.1524-0.127-0.254-0.1778-0.3556-0.1778-0.076 0-0.1524 0.0254-0.1778 0.0762-0.025 0.0254-0.076 0.1524-0.076 0.3556-0.051 0.1778-0.051 0.4318-0.051 0.7366-0.025 0.3048-0.025 0.7874-0.025 1.4224 0 1.7018-0.051 3.2258-0.1778 4.6228-0.127 1.397-0.2286 3.683-0.3556 6.858-0.127 2.5146-0.2032 4.1656-0.3048 4.953-0.051 0.8128-0.1524 1.2192-0.2794 1.2192-0.025 0-0.127-0.1016-0.2794-0.254-0.1524-0.2032-0.3048-0.4064-0.4826-0.6858-0.3302-0.5334-0.6604-0.9144-0.9906-1.1684-0.3048-0.254-0.5588-0.3302-0.7874-0.254-0.1778 0.0762-0.2794 0.3048-0.2794 0.6858 0 0.3556 0.1016 0.6096 0.3048 0.762 0.2794 0.2286 0.635 0.7112 1.0668 1.4224 0.4318 0.762 0.8128 1.4732 1.0922 2.1844 0.381 0.889 0.6604 1.4478 0.8636 1.6764z" stroke-width=".26458"/>
  </g>
 </g>
</svg>
