<svg width="27.502mm" height="31.312mm" version="1.1" viewBox="0 0 27.502 31.312" xmlns="http://www.w3.org/2000/svg">
 <g transform="translate(1235.3 -50.718)">
  <g stroke-width=".26458" style="font-feature-settings:normal;font-variant-caps:normal;font-variant-ligatures:normal;font-variant-numeric:normal" aria-label="î‡">
   <path d="m-1215.4 69.955c-2.7178 0.1524-4.7752 0.2286-6.1976 0.254-1.397 0.0254-2.8448-0.0254-4.3434-0.1016-1.3716-0.0762-2.3114-0.1524-2.8194-0.1778s-0.9906-0.1016-1.4478-0.1778-0.7366-0.1778-0.8382-0.2286c-0.127-0.1016-0.2794-0.2286-0.4826-0.4318-0.2794-0.2794-0.4572-0.5334-0.5334-0.7112-0.051-0.1778-0.076-0.5588-0.076-1.1176 0-1.3462 0.254-2.413 0.7874-3.2512 0.508-0.8382 1.2446-1.3462 2.1844-1.5494 0.889-0.2032 2.032-0.2794 3.3528-0.2032 1.3716 0.0508 2.5908 0.2032 3.7338 0.4826 0.9906 0.2286 1.7272 0.381 2.2606 0.4064 0.508 0.0254 1.5748 0.0254 3.2258-0.0254 0.7112-0.0254 1.2446-0.0508 1.6002-0.0508 0.381-0.0254 0.762-0.0254 1.1176 0 0.4064 0.0254 0.6604 0.0508 0.8128 0.0762s0.3302 0.1016 0.5334 0.1778c0.2032 0.1016 0.3556 0.2032 0.4572 0.3048s0.254 0.254 0.4318 0.4572 0.3048 0.381 0.381 0.508c0.076 0.127 0.1016 0.3302 0.127 0.6096 0.025 0.254 0.025 0.7366 0.025 1.4224 0 1.0414-0.051 1.7272-0.1524 2.1336-0.1016 0.3556-0.3048 0.635-0.635 0.8128-0.1016 0.0508-0.508 0.1016-1.1684 0.2032-0.7112 0.0508-1.4732 0.127-2.3368 0.1778zm-11.735 1.5748c1.8542 0.127 3.9624 0.1778 6.3246 0.1778s4.5974-0.0508 6.6802-0.2032c2.1336-0.1016 3.2766-0.2794 3.5052-0.4572 0.6858-0.5842 1.0668-1.8034 1.143-3.6576 0.025-0.7874 0.025-1.397-0.025-1.8796-0.025-0.4826-0.1524-0.9144-0.3556-1.3208-0.1778-0.4318-0.4318-0.7874-0.762-1.0668-0.3302-0.3048-0.762-0.6604-1.3462-1.0414l-0.7112-0.4826-4.2418-0.0254c-1.7018-0.0254-2.921-0.0508-3.6068-0.0762-0.6858-0.0508-1.2446-0.127-1.651-0.254-0.7112-0.2286-1.8796-0.381-3.5306-0.4572s-2.8702-0.0254-3.683 0.127c-0.7112 0.1524-1.3716 0.4064-1.9812 0.7366-0.6096 0.3556-1.0414 0.762-1.3208 1.1938-0.2286 0.381-0.4572 1.016-0.635 1.905-0.2032 0.8636-0.3048 1.6256-0.3048 2.3114 0.025 1.3462 0.4826 2.413 1.3716 3.2004 0.4572 0.4064 0.9906 0.6858 1.5748 0.8382 0.5842 0.127 1.778 0.2794 3.556 0.4318z" stroke-width=".26458"/>
  </g>
 </g>
</svg>
