<svg width="27.502mm" height="31.312mm" version="1.1" viewBox="0 0 27.502 31.312" xmlns="http://www.w3.org/2000/svg">
 <g transform="translate(1235.3 -50.718)">
  <g stroke-width=".26458" style="font-feature-settings:normal;font-variant-caps:normal;font-variant-ligatures:normal;font-variant-numeric:normal" aria-label="îˆ">
   <path d="m-1225.9 74.045c0.5842 0.127 1.7526 0.1524 3.5306 0.0762 1.7526-0.0762 2.9464-0.1778 3.5306-0.3556 0.6604-0.1778 1.2446-0.508 1.778-0.9906 0.5334-0.4572 0.9144-0.9652 1.1938-1.5494s0.4064-1.1938 0.4064-1.8288-0.1778-1.2192-0.508-1.7526c-0.4064-0.635-0.9398-1.0922-1.6256-1.4224-0.6858-0.3048-1.4224-0.4318-2.2352-0.3556l-1.1684 0.0762-0.1016-2.2606c-0.076-1.524-0.051-2.54 0.025-3.048 0.2032-1.0414-0.025-1.5748-0.7112-1.5748-0.254 0-0.4064 0.0508-0.4826 0.1524-0.076 0.1016-0.127 0.4064-0.1778 0.9398-0.076 0.6096-0.1016 2.032-0.127 4.2926-0.025 1.1176-0.025 1.905 0 2.3368 0.051 0.8382 0.2032 1.3208 0.4572 1.4224 0.1778 0.0762 0.6096-0.0254 1.27-0.3302 0.762-0.3302 1.524-0.4318 2.2606-0.2794 0.7366 0.1778 1.2446 0.5334 1.4986 1.1176 0.2286 0.4826 0.1016 1.0922-0.3556 1.8288-0.4572 0.7112-1.0414 1.2192-1.7526 1.524-0.4318 0.1778-1.2192 0.3048-2.3622 0.381-1.1176 0.0762-2.1336 0.0762-3.0734-0.0254-0.9398-0.0508-1.3716-0.2032-1.3462-0.381 0.076-0.3302 0.127-2.3622 0.1524-6.1214 0.051-3.7846 0.051-5.8928 0-6.3246-0.051-0.4572-0.1016-0.762-0.1778-0.889-0.076-0.127-0.2032-0.2286-0.381-0.254l-0.4318-0.0762-0.127 3.302c-0.1016 2.2098-0.254 4.5466-0.4826 7.0358-0.1016 1.016-0.1778 1.9304-0.2032 2.794-0.025 0.8128-0.025 1.27 0 1.3462 0.254 0.635 0.8382 1.016 1.7272 1.1938z" stroke-width=".26458"/>
  </g>
 </g>
</svg>
