<svg width="27.502mm" height="31.312mm" version="1.1" viewBox="0 0 27.502 31.312" xmlns="http://www.w3.org/2000/svg">
 <g transform="translate(1235.3 -50.718)">
  <g stroke-width=".26458" style="font-feature-settings:normal;font-variant-caps:normal;font-variant-ligatures:normal;font-variant-numeric:normal" aria-label="î‰">
   <path d="m-1221.5 69.828 0.076 0.0762c0.2286 0.2032 0.4064 0.1778 0.4826-0.1016 0.1524-0.381 0.254-2.0574 0.3302-4.9784 0.076-3.2258 0.1524-5.715 0.2286-7.4676 0.051-0.8636 0.076-1.4478 0.076-1.778-0.025-0.3302-0.051-0.5588-0.076-0.6858-0.025-0.1524-0.127-0.2794-0.254-0.4064-0.2032-0.1778-0.3556-0.254-0.4572-0.254-0.2286 0.0254-0.3556 0.5588-0.3556 1.6002 0.025 0.9652-0.025 2.0574-0.1524 3.302-0.127 1.4478-0.2286 3.3274-0.3048 5.6642-0.076 2.3368-0.076 3.683 0 4.064 0.076 0.4572 0.2286 0.7874 0.4064 0.9652zm0.9652 6.985c-0.127 0.127-0.3302 0.1778-0.635 0.2032s-0.5588-0.0254-0.7874-0.1016c-0.1524-0.0762-0.3302-0.2794-0.508-0.6604s-0.2794-0.6858-0.2794-0.9652c0-0.127 0.025-0.254 0.1016-0.4318 0.076-0.1778 0.1524-0.3048 0.2286-0.4064l0.3302-0.4318 0.889 0.5842c0.4064 0.254 0.6604 0.4572 0.7366 0.5842 0.1016 0.127 0.1524 0.3556 0.1524 0.6858 0 0.2032-0.025 0.4064-0.051 0.5842-0.051 0.1778-0.1016 0.3048-0.1778 0.3556zm-1.3716 1.3716c0.7366 0.2794 1.3716 0.2286 1.905-0.127 0.5334-0.4064 0.8128-0.9906 0.8128-1.8034 0-0.4318-0.076-0.8636-0.254-1.3462-0.1524-0.4572-0.3048-0.6858-0.4572-0.6858-0.076 0-0.4064-0.254-0.9398-0.762-0.3556-0.3302-0.6096-0.5334-0.7874-0.6096-0.1524-0.0762-0.3556-0.0762-0.6096-0.0508-0.4826 0.0762-0.8636 0.3302-1.1684 0.7366-0.3048 0.381-0.4572 0.8382-0.4572 1.3462 0 0.5334 0.051 0.9652 0.1778 1.2954 0.1016 0.3048 0.3556 0.6858 0.7874 1.1684 0.4318 0.4572 0.762 0.7366 0.9906 0.8382z" stroke-width=".26458"/>
  </g>
 </g>
</svg>
