<svg width="27.502mm" height="31.312mm" version="1.1" viewBox="0 0 27.502 31.312" xmlns="http://www.w3.org/2000/svg">
 <g transform="translate(1235.3 -50.718)">
  <g stroke-width=".26458" style="font-feature-settings:normal;font-variant-caps:normal;font-variant-ligatures:normal;font-variant-numeric:normal" aria-label="îŠ">
   <path d="m-1218.3 59.491c-0.2286 0.3302-0.5842 0.7366-1.0414 1.1938-0.4572 0.508-0.889 0.9144-1.2954 1.2954l-1.4986 1.3462-0.4826-0.508c-0.4318-0.4826-1.143-1.4478-2.0828-2.8956s-1.6002-2.5146-1.9558-3.2512c-0.4572-0.9906-0.6858-1.7526-0.6858-2.3114-0.025-0.4064 0-0.6604 0.076-0.7874s0.254-0.254 0.5588-0.4064c0.381-0.2032 0.9398-0.3048 1.7018-0.2794 0.7366 0.0254 1.2954 0.127 1.6764 0.3302 0.127 0.0762 0.2794 0.254 0.4826 0.5588s0.4064 0.6604 0.5842 1.0668c0.2794 0.5842 0.4826 0.9652 0.6604 1.1176 0.1778 0.2032 0.3302 0.2286 0.508 0.1016 0.1524-0.127 0.3302-0.4064 0.5588-0.889 0.2794-0.5842 0.5334-0.9906 0.762-1.2446 0.2286-0.2794 0.5588-0.5334 1.016-0.762 0.4318-0.2286 0.9398-0.3048 1.4986-0.3048 0.5588 0.0508 0.9652 0.1778 1.2192 0.4318 0.127 0.127 0.2032 0.2794 0.2032 0.4572s-0.076 0.5334-0.2286 1.1176c-0.4318 1.6764-1.1938 3.2258-2.2352 4.6228zm-4.8768 4.6482c0.1778 0.2286 0.3302 0.4572 0.508 0.6096 0.1524 0.2032 0.254 0.2794 0.3048 0.2794 0.127 0 0.6604-0.4064 1.5748-1.1938 0.9144-0.8128 1.7272-1.5748 2.4384-2.286 0.889-0.9144 1.7018-2.0828 2.4384-3.5052 0.7366-1.4478 1.1684-2.7178 1.3208-3.8354 0.051-0.381 0.051-0.635 0.025-0.8382-0.025-0.1524-0.1524-0.3556-0.3302-0.5842-0.5588-0.7112-1.4732-1.0668-2.7178-1.0668-0.635 0-1.1684 0.0762-1.6256 0.2794-0.4572 0.1524-0.9398 0.4826-1.4224 0.9144l-0.762 0.6858-0.4826-0.635c-0.3302-0.4318-0.762-0.762-1.2954-0.9652-0.5334-0.1778-1.2192-0.2794-2.0574-0.2794-1.7018 0-2.7432 0.4318-3.1242 1.2954s-0.1524 2.2098 0.7112 4.0386c0.3302 0.6858 0.889 1.651 1.7018 2.9464s1.7526 2.667 2.794 4.1402zm2.0828 13.411c-0.254 0.3302-0.508 0.6096-0.7366 0.8128-0.2286 0.254-0.381 0.3556-0.4572 0.3556-0.1778 0-0.5842-0.3556-1.2192-1.0922-0.6604-0.7366-1.2446-1.4478-1.7272-2.159-0.381-0.635-0.762-1.4478-1.1176-2.4384-0.3556-1.016-0.5334-1.8034-0.5334-2.3876 0-0.3048 0.051-0.5588 0.127-0.7366s0.2032-0.381 0.4064-0.5842c0.5842-0.5588 1.143-0.6604 1.7272-0.3048 0.5588 0.3556 1.0668 1.143 1.5494 2.3622 0.2286 0.5588 0.381 0.9144 0.508 1.0922s0.2794 0.254 0.4572 0.254 0.3048-0.0508 0.4064-0.1524c0.076-0.0762 0.1524-0.254 0.2286-0.508 0.1524-0.4064 0.4826-0.889 0.9906-1.4732 0.508-0.5842 1.0414-1.0414 1.6002-1.4224 0.5842-0.381 0.9906-0.5842 1.2192-0.5588 0.2286 0 0.3302 0.2032 0.3302 0.635 0 0.7874-0.4318 2.1082-1.27 3.9878-0.8636 1.8796-1.7018 3.3274-2.4892 4.318zm-1.905 2.667 0.6858 0.8128 0.9144-1.016c0.7366-0.8382 1.397-1.651 1.9558-2.5146 0.5334-0.8128 1.0922-1.8034 1.6256-2.9464 0.7874-1.651 1.3208-2.9972 1.6002-4.0132 0.2794-1.0414 0.3048-1.8288 0.076-2.413-0.076-0.1778-0.2794-0.381-0.635-0.5842-0.3556-0.1778-0.6858-0.2794-0.9652-0.2794-0.3556 0-0.8128 0.1778-1.397 0.5334-0.5842 0.3302-1.1684 0.762-1.7526 1.2954-0.7366 0.6604-1.1176 0.9906-1.1684 0.9906-0.076 0-0.3302-0.3048-0.7874-0.9398-0.4826-0.635-0.9144-1.0922-1.3208-1.3208s-0.8636-0.3302-1.397-0.2794c-0.3556 0.0254-0.635 0.1016-0.8382 0.2032-0.2032 0.127-0.4826 0.3556-0.8128 0.7112-0.5334 0.5842-0.8128 1.0414-0.8382 1.397-0.127 2.667 0.9144 5.334 3.1496 8.0518 0.5842 0.7366 1.2192 1.4986 1.905 2.3114z" stroke-width=".26458"/>
  </g>
 </g>
</svg>
