<svg width="27.502mm" height="31.312mm" version="1.1" viewBox="0 0 27.502 31.312" xmlns="http://www.w3.org/2000/svg">
 <g transform="translate(1235.3 -50.718)">
  <g stroke-width=".26458" style="font-feature-settings:normal;font-variant-caps:normal;font-variant-ligatures:normal;font-variant-numeric:normal" aria-label="î‹">
   <path d="m-1214.6 69.473c-0.508 0.1778-1.143 0.2794-1.905 0.3556-0.7874 0.0762-1.27 0.0508-1.524-0.0508-0.1524-0.0508-0.254-0.2286-0.3048-0.508-0.051-0.2794-0.076-0.889-0.127-1.8288l-0.1016-2.2098 0.8636-0.9144c0.9398-0.9906 1.7526-1.4224 2.413-1.2446 0.381 0.1016 0.762 0.3302 1.143 0.7112s0.7112 0.8382 0.9652 1.3716c0.2032 0.4318 0.3302 0.762 0.381 1.016 0.051 0.2794 0.076 0.6096 0.025 1.0414-0.051 0.635-0.2032 1.0922-0.4826 1.4478-0.254 0.3048-0.7112 0.5842-1.3462 0.8128zm-5.2324 1.4986c0.8128 0.2794 1.7018 0.4318 2.6162 0.4572 0.9398 0.0254 1.8034-0.0254 2.5908-0.2286 0.7874-0.1524 1.4732-0.4318 2.0828-0.8128 0.6096-0.381 1.0414-0.8128 1.2446-1.2954 0.3556-0.8636 0.4064-1.8542 0.1016-2.921-0.2794-1.1176-0.8382-2.0828-1.651-2.9718-1.0414-1.143-2.032-1.7526-2.9718-1.8542-0.9144-0.1016-1.9304 0.3048-3.048 1.1938-0.5588 0.4826-0.9398 0.9144-1.1176 1.3462-0.2032 0.4318-0.3048 0.9906-0.3048 1.7272 0 0.5588 0.051 1.0414 0.1778 1.4732 0.1016 0.4318 0.3556 1.0922 0.7112 1.9812 0.076 0.1524 0.076 0.2286 0.025 0.254s-0.2032 0-0.508-0.0508c-0.5588-0.127-1.4224-0.4572-2.5654-0.9906-1.1176-0.5334-2.1082-1.0668-2.9464-1.6002-0.9652-0.635-1.8034-1.27-2.4892-1.8796-0.6604-0.635-1.3208-1.3462-1.9304-2.1844-0.4572-0.635-0.8128-1.0668-1.0414-1.2192-0.2032-0.2032-0.4826-0.2794-0.8382-0.2794-0.1524 0-0.2794 0.0762-0.3302 0.1778-0.051 0.1524-0.025 0.3048 0.025 0.508 0.076 0.2286 0.2032 0.4572 0.3556 0.6858 1.27 1.8034 2.9464 3.4544 5.08 4.9784 2.1082 1.524 4.3688 2.6924 6.731 3.5052z" stroke-width=".26458"/>
  </g>
 </g>
</svg>
