<svg width="27.502mm" height="31.312mm" version="1.1" viewBox="0 0 27.502 31.312" xmlns="http://www.w3.org/2000/svg">
 <g transform="translate(1235.3 -50.718)">
  <g stroke-width=".26458" style="font-feature-settings:normal;font-variant-caps:normal;font-variant-ligatures:normal;font-variant-numeric:normal" aria-label="îŒ">
   <path d="m-1215.4 72.216 0.127 1.27-0.7366-0.0254c-0.4572-0.0254-1.0414-0.0762-1.7526-0.1778-0.6604-0.0762-2.3876-0.127-5.1816-0.1524-1.5494-0.0254-2.6416-0.0508-3.2766-0.0762s-0.9906-0.1016-1.0414-0.1778c-0.051-0.127-0.1016-0.508-0.1016-1.1938s0.025-1.0414 0.076-1.1176c0.1524-0.127 0.7112-0.254 1.7018-0.381 1.016-0.1016 2.0574-0.1524 3.1496-0.1524 1.1684 0 2.5908 0.1016 4.2164 0.2794 1.651 0.1778 2.5146 0.3556 2.5908 0.508 0.076 0.0762 0.1524 0.5588 0.2286 1.397zm-0.762 2.9972c0.7874 0.2032 1.3208 0.3048 1.5748 0.3048 0.254-0.0254 0.4826-0.127 0.6604-0.3302 0.1524-0.1778 0.2286-0.381 0.2286-0.6604s-0.051-0.9652-0.2032-2.1082c-0.1778-1.6002-0.3048-4.4958-0.4064-8.6868-0.076-4.191-0.1778-6.3754-0.3048-6.5278-0.051-0.0762-0.127-0.127-0.2794-0.1778-0.127-0.0254-0.2794-0.0508-0.4318-0.0508h-0.5588l0.025 3.048c0.051 2.0574 0.1016 3.9878 0.1524 5.7404 0.076 1.8034 0.025 2.7432-0.127 2.8956-0.1524 0.1016-0.7874 0.1016-1.9558-0.0508-0.9144-0.127-2.2098-0.2286-3.8608-0.254-1.6256-0.0254-3.0226 0-4.1656 0.0762l-1.4224 0.0762-0.1016-2.0574c-0.051-1.2446-0.1778-2.8702-0.3302-4.8514-0.1524-2.032-0.254-3.1496-0.3048-3.429-0.051-0.2286-0.2032-0.4318-0.508-0.5842-0.3048-0.2032-0.5334-0.2286-0.7112-0.127-0.127 0.0762-0.1778 0.4572-0.1524 1.1938 0.051 0.7366 0.1778 2.4384 0.4064 5.1308 0.1524 1.7272 0.1524 3.81 0.051 6.2738-0.051 1.6764-0.051 2.7178-0.051 3.1496 0.025 0.4318 0.1016 0.7112 0.254 0.889 0.1016 0.127 0.2032 0.2032 0.3048 0.2794s0.2032 0.127 0.3048 0.1778c0.1016 0.0762 0.2794 0.127 0.4826 0.1524 0.2286 0.0254 0.4572 0.0762 0.6858 0.1016s0.5842 0.0508 1.0668 0.0508c0.4826 0.0254 0.9652 0.0254 1.4224 0.0508h1.9812c3.4544 0.0254 5.5372 0.127 6.2738 0.3048z" stroke-width=".26458"/>
  </g>
 </g>
</svg>
