<svg width="27.502mm" height="31.312mm" version="1.1" viewBox="0 0 27.502 31.312" xmlns="http://www.w3.org/2000/svg">
 <g transform="translate(1235.3 -50.718)">
  <g stroke-width=".26458" style="font-feature-settings:normal;font-variant-caps:normal;font-variant-ligatures:normal;font-variant-numeric:normal" aria-label="î">
   <path d="m-1215.3 73.359c-0.051 0.0762-0.635 0.1524-1.778 0.2032s-2.286 0.0762-3.4036 0.0254c-1.1176 0-1.6764-0.0762-1.6764-0.1524 0-0.127 0.381-0.6604 1.0922-1.651 0.8636-1.2192 1.6002-2.2606 2.159-3.1496s0.889-1.4478 0.9652-1.7272c0.1016-0.4318-0.025-0.7366-0.4064-0.9398-0.381-0.1524-1.0922-0.254-2.159-0.254-1.2192 0-1.8542-0.0508-1.905-0.1524-0.051-0.0254 0.127-0.3048 0.4826-0.7874s0.7874-1.0414 1.2954-1.7018c0.508-0.6096 0.9906-1.2192 1.397-1.778s0.635-0.9144 0.6858-1.0414c0.025-0.1016 0.051-0.1778 0.076-0.2286s0.076-0.1016 0.1524-0.1778c0.076-0.0762 0.1524-0.127 0.254-0.127 0.076-0.0508 0.2286-0.0762 0.4318-0.1016 0.2032-0.0508 0.4064-0.1016 0.6096-0.127s0.5334-0.0762 0.9398-0.1524c0.9652-0.1778 1.4986-0.2032 1.6256-0.0762 0.1016 0.127 0.025 2.413-0.2286 6.8072-0.254 4.3942-0.4572 6.8326-0.6096 7.2898zm-8.6868 0c-0.051 0.127-0.3556 0.2032-0.889 0.2286-0.5588 0-1.1684-0.0762-1.8796-0.2032-0.3048-0.0508-0.5334-0.1016-0.7112-0.1778s-0.3302-0.1524-0.4572-0.2794c-0.127-0.1016-0.2286-0.254-0.2794-0.4572-0.051-0.2032-0.1016-0.4318-0.127-0.7112-0.025-0.254-0.025-0.6096-0.025-1.0668 0-1.143 0.1524-2.8194 0.4572-5.0292s0.5842-3.8354 0.889-4.826l0.2032-0.635h3.2512c2.1844 0 3.2512 0.0254 3.2512 0.127 0 0.0508-0.5588 0.8128-1.6256 2.2098-0.1524 0.1778-0.3302 0.4064-0.5588 0.7366-1.0922 1.397-1.7272 2.2352-1.8796 2.4892-0.1778 0.2794-0.2032 0.508-0.051 0.6858 0.025 0.0508 0.051 0.0762 0.076 0.1016 0.1524 0.254 0.4572 0.4318 0.9144 0.5334 0.4572 0.0762 1.2192 0.127 2.286 0.127h1.4478l-0.4826 0.9144c-0.3302 0.5842-1.0414 1.5748-2.1082 2.9464-1.0668 1.3716-1.651 2.1336-1.7018 2.286zm1.9304 1.7526c3.4036 0.0762 5.461 0.127 6.223 0.1524 0.889 0.0254 1.4224-0.0762 1.6256-0.254 0.1778-0.1778 0.3048-1.0414 0.381-2.5908 0.1016-2.1082 0.2286-5.08 0.3556-8.89 0.127-3.8354 0.1778-5.7912 0.1524-5.8928-0.1524-0.4572-0.762-0.508-1.8288-0.1778-0.762 0.2286-2.0066 0.5334-3.7338 0.8636-1.2192 0.2286-2.1082 0.381-2.6924 0.4318-0.6096 0.0254-1.6256 0.0254-3.048-0.0254-1.1938-0.0508-2.032-0.0762-2.5146-0.0254-0.4826 0-0.762 0.0762-0.8128 0.1524-0.1524 0.1524-0.2794 0.8128-0.4064 1.9812s-0.381 2.8702-0.7366 5.1308c-0.2032 1.1938-0.3556 2.2352-0.4318 3.048-0.1016 0.8636-0.127 1.5748-0.127 2.2352 0 0.6096 0.076 1.143 0.2286 1.5494 0.127 0.4064 0.3048 0.7366 0.5588 1.016s0.5842 0.508 0.9906 0.7112c0.254 0.127 0.4318 0.2286 0.5842 0.2794s0.4572 0.1016 0.9144 0.1524 0.9652 0.0762 1.4986 0.1016 1.4732 0.0254 2.8194 0.0508z" stroke-width=".26458"/>
  </g>
 </g>
</svg>
