<svg width="27.502mm" height="31.312mm" version="1.1" viewBox="0 0 27.502 31.312" xmlns="http://www.w3.org/2000/svg">
 <g transform="translate(1235.3 -50.718)">
  <g stroke-width=".26458" style="font-feature-settings:normal;font-variant-caps:normal;font-variant-ligatures:normal;font-variant-numeric:normal" aria-label="îŽ">
   <path d="m-1218.7 64.571c-0.4826 0.254-1.0668 0.381-1.7526 0.381-0.4318 0-0.762-0.0508-0.9652-0.127s-0.4826-0.3048-0.8636-0.6604c-0.4826-0.4572-0.8128-0.9398-0.9906-1.4986-0.1778-0.508-0.2032-1.143-0.1016-1.8796 0.127-0.8636 0.4826-1.5494 1.0668-2.0574s1.4732-0.889 2.6162-1.1176c0.4826-0.1016 0.8382-0.127 1.0414-0.127 0.1778 0.0508 0.4826 0.1524 0.9144 0.381 0.6096 0.3048 1.0668 0.6604 1.3208 1.0922 0.3048 0.4318 0.4318 0.9398 0.4318 1.524 0 0.8128-0.254 1.5748-0.7366 2.3368-0.4826 0.7112-1.143 1.3208-1.9812 1.7526zm-6.4262 11.608c0.1778 0.2286 0.381 0.2794 0.5588 0.1524s0.3048-0.4318 0.381-0.8636c0.381-2.5654 0.6604-4.191 0.8128-4.9022 0.1524-0.7112 0.3556-1.2954 0.6096-1.7272 0.3302-0.5842 0.7112-1.016 1.1684-1.2954 0.4064-0.2794 0.8636-0.3556 1.3208-0.2794 0.4826 0.1016 1.0414 0.3556 1.6256 0.7874 0.5842 0.4064 1.0668 0.8636 1.397 1.3462 0.4318 0.635 0.7112 1.2954 0.8636 1.905 0.1524 0.6604 0.2286 1.5494 0.2032 2.7178-0.025 0.7874 0 1.3208 0.025 1.651s0.1016 0.508 0.2032 0.5588c0.1778 0.127 0.3302 0.1778 0.4064 0.1524 0.1016-0.0254 0.2286-0.1016 0.3556-0.2794 0.1778-0.2286 0.254-1.1176 0.254-2.6924-0.025-1.0922-0.076-1.9304-0.2032-2.5654-0.1016-0.6096-0.3048-1.1684-0.6096-1.651-0.2794-0.4826-0.762-1.0668-1.397-1.7018l-1.3208-1.3208 0.5334-0.3556c1.651-1.1938 2.667-2.54 3.048-4.0894 0.4064-1.5494 0.076-2.9464-0.9652-4.191-0.5842-0.6858-1.3462-1.1176-2.286-1.3208-0.9652-0.1524-2.0066-0.0762-3.1242 0.3048-0.8128 0.2794-1.397 0.5588-1.7526 0.8636-0.3302 0.2794-0.6858 0.762-1.016 1.4224-0.2286 0.4826-0.4064 0.8636-0.4572 1.1684-0.1016 0.3302-0.127 0.762-0.127 1.3208 0 0.9144 0.076 1.6256 0.2794 2.1082 0.1524 0.4826 0.508 1.0668 1.0414 1.7018l0.889 1.0922-0.6096 0.6604c-0.635 0.7112-1.2446 2.1844-1.8288 4.445-0.127 0.4064-0.2286 0.762-0.3556 1.0668-0.127 0.2794-0.2032 0.4318-0.254 0.4064-0.127-0.0254-0.4064-0.4318-0.8636-1.2192-0.4318-0.7874-0.7874-1.2954-1.0414-1.5748-0.2286-0.2286-0.4572-0.3048-0.6858-0.254-0.2032 0.0508-0.3048 0.2286-0.3048 0.508 0 0.1778 0.4572 1.1176 1.3716 2.794 0.9398 1.7272 1.5494 2.7686 1.8542 3.1496z" stroke-width=".26458"/>
  </g>
 </g>
</svg>
