<svg width="27.502mm" height="31.312mm" version="1.1" viewBox="0 0 27.502 31.312" xmlns="http://www.w3.org/2000/svg">
 <g transform="translate(1235.3 -50.718)">
  <g stroke-width=".26458" style="font-feature-settings:normal;font-variant-caps:normal;font-variant-ligatures:normal;font-variant-numeric:normal" aria-label="î">
   <path d="m-1220.7 76.458c-0.3048 0.4572-0.5842 0.6858-0.8382 0.6858-0.254-0.0254-0.508-0.254-0.8128-0.7366-0.8636-1.3208-1.4224-3.2766-1.651-5.8674-0.2286-2.5908-0.127-5.7404 0.3302-9.4742 0.1524-1.4986 0.3556-2.6416 0.5588-3.4036s0.508-1.3208 0.8636-1.7018c0.3556-0.4064 0.6858-0.5842 0.9652-0.508 0.254 0.0508 0.5334 0.3556 0.8128 0.889 1.1684 2.3368 1.6764 6.1468 1.524 11.43-0.1016 2.3368-0.254 4.1402-0.508 5.461-0.254 1.27-0.6858 2.3622-1.2446 3.2258zm-1.905 1.8034c0.4826 0.3048 0.9398 0.4318 1.3462 0.381s0.7874-0.2794 1.1938-0.6858c0.8128-0.889 1.4224-2.1082 1.778-3.6068 0.3556-1.524 0.5842-3.7592 0.6604-6.7056 0.051-3.1242-0.025-5.6134-0.2794-7.4676-0.254-1.8796-0.7112-3.4798-1.3716-4.7752-0.3302-0.635-0.635-1.0668-0.889-1.2446s-0.6858-0.2794-1.27-0.2794-1.1176 0.2032-1.6002 0.635-0.8128 0.9906-1.016 1.6764c-0.5842 1.9558-0.9906 4.4958-1.2446 7.6454-0.254 3.175-0.2286 5.8928 0.025 8.1534 0.1524 1.5494 0.4826 2.8956 0.9652 4.0132 0.4572 1.1176 1.0414 1.8796 1.7018 2.2606z" stroke-width=".26458"/>
  </g>
 </g>
</svg>
