<svg width="27.502mm" height="31.312mm" version="1.1" viewBox="0 0 27.502 31.312" xmlns="http://www.w3.org/2000/svg">
 <g transform="translate(1235.3 -50.718)">
  <g stroke-width=".26458" style="font-feature-settings:normal;font-variant-caps:normal;font-variant-ligatures:normal;font-variant-numeric:normal" aria-label="î">
   <path d="m-1221.3 62.361c0.3302 0.2032 0.5842 0.3048 0.762 0.3302s0.381-0.0508 0.6096-0.2286 0.4572-0.381 0.6604-0.635 0.4064-0.5334 0.5842-0.8382c0.1778-0.3302 0.3302-0.6096 0.4318-0.9144 0.1016-0.254 0.1524-0.508 0.1524-0.762 0-0.2032-0.076-0.381-0.2032-0.4572-0.254-0.1524-0.508-0.127-0.7874 0.0508-0.254 0.2032-0.4826 0.5334-0.6604 0.9906-0.2032 0.4826-0.4318 0.762-0.6858 0.889s-0.5588 0.0508-0.9398-0.1524c-0.3556-0.254-0.8382-0.6858-1.4224-1.3208-1.1176-1.2192-1.6764-1.3462-1.6764-0.3556 0 0.4318 0.2794 0.9144 0.8128 1.4986s1.3208 1.2192 2.3622 1.905zm0.2032 5.2324c0 0.0762 0.025 0.127 0.051 0.1524 0.2286 0.127 0.7366-0.1016 1.5494-0.7112 0.9144-0.6858 1.5748-1.3462 1.9812-2.032l0.4064-0.635-0.8128-0.8128-1.1684 1.1684c-0.3302 0.3302-0.635 0.5842-0.9398 0.8382-0.3048 0.2032-0.508 0.3302-0.5842 0.3302-0.2286 0-0.5842-0.1778-1.016-0.4826-0.4572-0.3556-1.1176-0.9144-1.9812-1.7018-0.4064-0.381-0.7874-0.7112-1.1176-0.9906-0.3302-0.254-0.5334-0.381-0.6096-0.381-0.4826 0.0254-0.4318 0.4572 0.1016 1.3208 0.3302 0.508 1.016 1.2446 2.032 2.2606 1.0414 0.9652 1.651 1.4732 1.8542 1.4732 0.076 0 0.127 0.0254 0.1778 0.0508 0.051 0.0508 0.076 0.1016 0.076 0.1524zm-0.7874 6.1214c0.5842 0.4318 1.016 0.635 1.3208 0.6096 0.2794-0.0254 0.5334-0.3302 0.762-0.9144 0.2286-0.635 0.5334-1.27 0.889-1.905 0.3556-0.6604 0.6604-1.143 0.889-1.4478 0.3048-0.3556 0.4572-0.6858 0.4572-0.9906-0.025-0.3048-0.1778-0.4826-0.4826-0.508-0.2286-0.0254-0.5334 0.1524-0.889 0.6096-0.3556 0.4064-0.8128 1.143-1.3716 2.1336-0.4318 0.762-0.7112 1.143-0.7874 1.143-0.1016 0-0.3556-0.2286-0.7874-0.6858-0.4064-0.4826-0.7874-0.9652-1.1176-1.4732-0.8636-1.2954-1.6002-2.159-2.2352-2.5908-0.508-0.3302-0.762-0.2794-0.762 0.2032 0 0.2794 0.5842 1.2446 1.7272 2.8702 1.1684 1.6256 1.9558 2.6162 2.3876 2.9464z" stroke-width=".26458"/>
  </g>
 </g>
</svg>
