<svg width="27.502mm" height="31.312mm" version="1.1" viewBox="0 0 27.502 31.312" xmlns="http://www.w3.org/2000/svg">
 <g transform="translate(1235.3 -50.718)">
  <g stroke-width=".26458" style="font-feature-settings:normal;font-variant-caps:normal;font-variant-ligatures:normal;font-variant-numeric:normal" aria-label="î‘">
   <path d="m-1221.6 60.786c0.1778 0.2794 0.381 0.4064 0.5588 0.4064s0.3302-0.127 0.4318-0.4064 0.1778-1.0922 0.254-2.4384c0.051-0.9398 0.076-1.524 0.051-1.778-0.025-0.2286-0.1016-0.4318-0.2794-0.6096-0.2794-0.2794-0.4826-0.4064-0.6604-0.4064-0.4318 0.0254-0.6604 0.9906-0.6604 2.921 0 0.7112 0.025 1.2446 0.076 1.5748s0.127 0.5842 0.2286 0.7366zm-5.0038 0.508c0.381 0.2286 0.6858 0.3048 0.8636 0.254 0.1778-0.0254 0.2794-0.2032 0.2794-0.4826 0-0.1778-0.1016-0.4318-0.3302-0.7366-0.2286-0.2794-0.6096-0.7366-1.1684-1.3208-0.4318-0.4318-0.8128-0.8128-1.1684-1.1176-0.3556-0.2794-0.5842-0.4318-0.6858-0.4318-0.1778 0-0.3048 0.0762-0.4318 0.2286-0.1016 0.127-0.1524 0.3048-0.1524 0.508 0 0.1524 0.4064 0.6604 1.2192 1.5748 0.7874 0.8636 1.3208 1.397 1.5748 1.524zm9.144 1.4732c0.076 0.0762 0.254 0.127 0.5334 0.127 0.1778 0 0.3556-0.1016 0.5334-0.3302 0.2032-0.2032 0.4826-0.5842 0.8382-1.143 0.6096-0.9906 1.0922-1.8288 1.4478-2.5146 0.254-0.508 0.381-0.8382 0.4064-0.9652 0.025-0.127-0.051-0.3302-0.2032-0.5588-0.1524-0.2286-0.2794-0.381-0.4064-0.4572s-0.2794-0.0254-0.4572 0.127-0.381 0.4064-0.6096 0.7366-0.508 0.8636-0.889 1.5748c-0.6096 1.143-0.9906 1.9558-1.1938 2.4384-0.1524 0.4826-0.1778 0.8128 0 0.9652zm-8.509 13.589c0.1524 0.1778 0.3048 0.3048 0.4826 0.4318 0.1524 0.127 0.2794 0.1778 0.381 0.1778 0.3048 0 0.4826-0.127 0.5842-0.3302 0.051-0.254 0.051-0.6604-0.051-1.27-0.051-0.3302-0.1016-0.8636-0.1016-1.5748-0.051-0.762-0.051-1.4732-0.025-2.1844 0.051-1.6002 0.2032-2.8956 0.4572-3.81 0.254-0.9652 0.635-1.651 1.143-2.0828 0.1778-0.1524 0.3556-0.2794 0.5588-0.4064 0.2032-0.1016 0.3556-0.1524 0.4826-0.1524 0.3302 0 0.8382 0.1524 1.4478 0.4826 0.6604 0.3302 1.143 0.6604 1.4986 1.016 0.5842 0.5842 0.9906 1.3208 1.2446 2.159 0.254 0.8636 0.508 2.3622 0.7366 4.4958 0.127 1.2192 0.2794 2.0574 0.4064 2.5146 0.1524 0.5588 0.381 0.6858 0.6604 0.4064 0.1524-0.1524 0.2286-1.0414 0.2032-2.6416-0.025-1.8034-0.2032-3.302-0.4826-4.4958-0.3048-1.1938-0.7874-2.159-1.4224-2.921s-1.4986-1.397-2.54-1.8796c-1.524-0.6858-2.6924-0.762-3.4798-0.2286-1.397 0.9398-2.1844 3.2258-2.3876 6.9088-0.025 0.5842-0.076 1.0668-0.127 1.4478-0.051 0.4064-0.1016 0.6096-0.1524 0.6096-0.025 0-0.1016-0.0762-0.2032-0.254-0.127-0.1524-0.2286-0.3302-0.3302-0.5588-0.4064-0.762-0.8128-1.27-1.2192-1.5494-0.3048-0.1778-0.4572-0.1016-0.4572 0.254 0.025 0.5588 0.3302 1.4224 0.889 2.6162 0.6096 1.1684 1.1938 2.1082 1.8034 2.8194z" stroke-width=".26458"/>
  </g>
 </g>
</svg>
