<svg width="27.502mm" height="31.312mm" version="1.1" viewBox="0 0 27.502 31.312" xmlns="http://www.w3.org/2000/svg">
 <g transform="translate(1235.3 -50.718)">
  <g stroke-width=".26458" style="font-feature-settings:normal;font-variant-caps:normal;font-variant-ligatures:normal;font-variant-numeric:normal" aria-label="î’">
   <path d="m-1215.2 75.264c0.3048 0.127 0.508 0.1778 0.635 0.1524s0.2794-0.1016 0.4826-0.2794 0.3048-0.4318 0.3048-0.762-0.076-0.6096-0.2794-0.8382c-0.1524-0.1524-0.508-0.254-1.0414-0.3048-0.5334-0.0254-1.905-0.0508-4.0894-0.0508-3.2004-0.0254-5.3594-0.0508-6.4516-0.127l-1.651-0.127 0.051-2.8194c0.051-1.8034 0.076-4.3688 0.076-7.6454 0-2.3114-0.025-3.7084-0.076-4.2164-0.051-0.4572-0.1524-0.7874-0.3048-0.9144-0.254-0.1778-0.508-0.254-0.762-0.2286-0.1524 0.0254-0.254 0.1016-0.2794 0.1778-0.051 0.1016-0.051 0.3048-0.025 0.635 0.1016 1.2954 0.1016 3.302 0.051 6.0452-0.051 2.7432-0.1524 4.8006-0.3048 6.1468-0.2032 1.8034-0.3302 2.9464-0.3302 3.4544s0.076 0.8382 0.2286 1.016c0.051 0.1016 0.5334 0.1778 1.4478 0.2286 0.889 0.0508 2.667 0.1016 5.334 0.1524 4.3688 0.1016 6.6802 0.2032 6.985 0.3048z" stroke-width=".26458"/>
  </g>
 </g>
</svg>
