<svg width="27.502mm" height="31.312mm" version="1.1" viewBox="0 0 27.502 31.312" xmlns="http://www.w3.org/2000/svg">
 <g transform="translate(1235.3 -50.718)">
  <g stroke-width=".26458" style="font-feature-settings:normal;font-variant-caps:normal;font-variant-ligatures:normal;font-variant-numeric:normal" aria-label="î“">
   <path d="m-1222.8 74.959c-0.4318 0.7112-0.6858 1.0668-0.762 1.0668-0.076 0-0.4826-0.4318-1.1938-1.3208s-1.3208-1.7018-1.8542-2.4384c-0.5588-0.8382-1.143-1.8288-1.7272-2.9972-0.5842-1.1938-1.0668-2.3114-1.4224-3.3782-0.3556-1.143-0.6096-2.3114-0.6858-3.556-0.1016-1.2446-0.025-2.2098 0.2032-2.9464 0.1524-0.4572 0.4572-0.9398 0.8636-1.397 0.4318-0.508 0.8636-0.8382 1.27-1.0668 0.2794-0.1524 0.635-0.2286 1.1176-0.2032 0.4572 0 0.8636 0.0762 1.1684 0.254 0.3556 0.1778 0.8128 0.5842 1.3462 1.2192 0.5588 0.6096 0.9906 1.2192 1.3208 1.8288 0.3048 0.508 0.5588 0.8382 0.7366 0.9652s0.4064 0.1778 0.7112 0.1016c0.254-0.0762 0.4318-0.3048 0.508-0.7366 0.1016-0.4318 0.3302-0.9144 0.7112-1.4986 0.4064-0.5842 0.8128-1.0414 1.2446-1.397 0.635-0.508 1.2192-0.8636 1.8034-1.0414 0.5588-0.1778 1.2954-0.2794 2.159-0.2794 0.7112 0 1.1938 0.0254 1.397 0.0762 0.2286 0.0254 0.4318 0.1524 0.6096 0.3556 0.1778 0.1778 0.2794 0.381 0.3302 0.6096 0.051 0.2032 0.076 0.5588 0.076 1.0414 0 0.8382-0.1016 1.651-0.3302 2.4638-0.2032 0.7874-0.6096 1.778-1.1684 2.921-0.7112 1.4986-1.4986 2.8702-2.3622 4.0894-0.889 1.27-1.9304 2.54-3.2004 3.8354-0.6096 0.635-1.1938 1.2954-1.7526 1.9558-0.5842 0.6858-0.9398 1.1684-1.1176 1.4732zm-2.159 1.2954c0.6604 0.762 1.143 1.2192 1.4478 1.3462 0.2794 0.1524 0.5334 0.0508 0.7112-0.3048 0.1524-0.2794 0.3556-0.5334 0.5842-0.7874 0.254-0.2794 0.5588-0.6858 0.9144-1.27 0.127-0.1524 0.3302-0.4064 0.6096-0.762 0.3048-0.3556 0.635-0.762 1.0414-1.2446 0.4064-0.4572 0.8382-0.9144 1.2446-1.3462 1.27-1.2954 2.2352-2.4638 2.9464-3.4798 0.6858-1.016 1.4478-2.3114 2.2098-3.9116 0.5588-1.143 0.9652-2.032 1.1938-2.7178s0.4064-1.4478 0.5334-2.3368c0.2032-1.1684 0.1524-2.0574-0.127-2.6924s-0.8636-1.143-1.7272-1.5494c-0.3556-0.1778-0.6858-0.2794-0.9906-0.3048s-0.762-0.0508-1.397-0.0254c-1.0414 0.0508-1.9812 0.2794-2.8194 0.6604-0.8128 0.381-1.651 1.016-2.5146 1.8796l-1.2446 1.27-1.1684-1.2446c-0.6858-0.7366-1.27-1.2446-1.7272-1.4732-0.4826-0.254-1.0414-0.381-1.7526-0.381-1.2192 0-2.2606 0.381-3.0734 1.1684-0.8382 0.7874-1.3462 1.8542-1.5748 3.2512-0.127 0.889-0.127 1.8034-0.025 2.667 0.127 0.9144 0.4064 1.9812 0.8128 3.2766 0.635 1.905 1.4224 3.7084 2.3622 5.3594 0.9652 1.6764 2.1336 3.3274 3.5306 4.953z" stroke-width=".26458"/>
  </g>
 </g>
</svg>
