<svg width="27.502mm" height="31.312mm" version="1.1" viewBox="0 0 27.502 31.312" xmlns="http://www.w3.org/2000/svg">
 <g transform="translate(1235.3 -50.718)">
  <g stroke-width=".26458" style="font-feature-settings:normal;font-variant-caps:normal;font-variant-ligatures:normal;font-variant-numeric:normal" aria-label="î”">
   <path d="m-1220.4 65.002c-0.7112 1.0414-1.1176 1.651-1.27 1.778-0.1016 0.0762-0.2794 0.0508-0.508-0.1016-0.254-0.1778-0.6604-0.5334-1.2446-1.0668l-1.4986-1.3716 1.0414-2.0066c0.381-0.762 0.7112-1.3208 0.9398-1.7018 0.3302-0.5334 0.5334-0.7366 0.6096-0.6096 0.025 0.0508 0.5334 0.6096 1.4986 1.6764 0.9652 1.0922 1.4478 1.651 1.4478 1.7272s-0.3556 0.635-1.016 1.6764zm-3.5814 5.3594-1.4478 2.4892-1.2446-0.0254c-1.4986-0.0254-2.3114-0.1778-2.3876-0.4572-0.025-0.0762 0.4826-1.143 1.5494-3.1496 1.0414-2.0066 1.7018-3.2004 1.9812-3.5814 0.127-0.1778 0.2794-0.2286 0.4064-0.1778 0.127 0.0762 0.4826 0.3556 1.0414 0.8382 0.8128 0.6858 1.27 1.1176 1.397 1.3208 0.076 0.1016 0 0.3302-0.1524 0.7366-0.2032 0.3556-0.5588 1.0414-1.143 2.0066zm9.4742 2.4384c0 0.127-0.3556 0.1778-1.0414 0.2032s-1.1938-0.0254-1.4986-0.1524c-0.1778-0.0762-0.4572-0.3556-0.8636-0.889s-1.2192-1.651-2.4384-3.3528l-0.5588-0.762 1.0922-1.7272c0.3048-0.4826 0.5842-0.8636 0.8382-1.1684 0.2286-0.3302 0.381-0.4826 0.4318-0.4826 0.2032 0.0508 0.9398 1.3716 2.159 3.937 1.27 2.5908 1.8796 4.064 1.8796 4.3942zm-4.7244 0.1016c-0.254 0.0762-1.016 0.1016-2.286 0.1016-1.2446 0-1.9558-0.0254-2.1336-0.1016-0.051-0.0254-0.1016-0.0762-0.1524-0.1524-0.051-0.0762-0.076-0.1778-0.076-0.254 0-0.1778 0.2794-0.6858 0.8382-1.6002 0.5334-0.8636 0.9398-1.4478 1.1938-1.6764 0.1778-0.1778 0.3048-0.2286 0.4064-0.1524 0.1016 0.0508 0.3302 0.2794 0.6858 0.7112 0.4826 0.5588 0.9144 1.143 1.3208 1.7526s0.6096 0.9652 0.6096 1.0922c0 0.0508-0.051 0.1016-0.1016 0.1524-0.1016 0.0508-0.1778 0.1016-0.3048 0.127zm5.0292 1.9304h-0.025c0.5842 0.2286 0.9398 0.381 1.0668 0.381 0.127 0.0508 0.3048 0 0.5334-0.127s0.3556-0.3048 0.3556-0.5842-0.1016-0.5588-0.3302-0.889-1.0414-1.9304-2.4384-4.7752c-1.1176-2.286-1.905-3.81-2.3622-4.572-0.4318-0.762-1.1684-1.778-2.1844-3.0226-0.889-1.0922-1.524-1.9558-1.8796-2.5908-0.3048-0.5334-0.5588-0.9144-0.762-1.1176s-0.381-0.254-0.508-0.1778-0.9144 1.524-2.3876 4.3688c-1.4478 2.8448-2.7686 5.2832-3.937 7.3152-0.4826 0.8382-0.9144 1.6002-1.2446 2.2606-0.3302 0.7112-0.508 1.1176-0.508 1.2446 0 0.2794 0.127 0.5334 0.3556 0.8128s0.5334 0.4826 0.9144 0.635c0.3302 0.127 2.8194 0.254 7.4422 0.3302 3.2258 0.0762 5.2578 0.127 6.0452 0.1778 0.7874 0.0254 1.4224 0.1524 1.8542 0.3302z" stroke-width=".26458"/>
  </g>
 </g>
</svg>
