<svg width="27.502mm" height="31.312mm" version="1.1" viewBox="0 0 27.502 31.312" xmlns="http://www.w3.org/2000/svg">
 <g transform="translate(1235.3 -50.718)">
  <g stroke-width=".26458" style="font-feature-settings:normal;font-variant-caps:normal;font-variant-ligatures:normal;font-variant-numeric:normal" aria-label="î•">
   <path d="m-1224.9 74.019c0.3556 0.3556 2.159 0.4064 5.4102 0.1524 0.8636-0.0762 1.4478-0.1778 1.7526-0.3556 0.2794-0.1778 0.4318-0.4572 0.4318-0.8382 0-0.127-0.1016-0.2286-0.2794-0.2794s-0.6096-0.0762-1.27-0.1016l-1.524-0.0508-0.127-0.6096c-0.1016-0.4318-0.2032-2.54-0.2794-6.35l-0.127-5.715h1.4224c0.762 0 1.2954-0.0762 1.6002-0.2032 0.2794-0.1524 0.4064-0.4064 0.3556-0.7874-0.025-0.1778-0.1016-0.2794-0.2286-0.3556s-0.381-0.127-0.762-0.1778c-0.5842-0.0762-1.8542-0.127-3.7592-0.1524-1.905 0-2.9718 0.0508-3.1496 0.127-0.1778 0.0508-0.2794 0.2286-0.3048 0.5334-0.025 0.2794 0.051 0.4826 0.2032 0.5842 0.127 0.0762 0.6858 0.1778 1.6256 0.2794s1.4478 0.1778 1.4986 0.254c0.076 0.0762 0.127 1.9812 0.1778 5.7404 0.051 3.7846 0.051 5.842-0.025 6.223l-0.127 0.6858-1.3462 0.0508-0.635 0.0508c-0.1524 0-0.2794 0-0.4064 0.0254s-0.2032 0.0508-0.2286 0.1016l-0.1016 0.1524c-0.025 0.0508-0.051 0.127-0.051 0.2286-0.025 0.127 0 0.2794 0.051 0.4318s0.127 0.2794 0.2032 0.3556z" stroke-width=".26458"/>
  </g>
 </g>
</svg>
