<svg width="27.502mm" height="31.312mm" version="1.1" viewBox="0 0 27.502 31.312" xmlns="http://www.w3.org/2000/svg">
 <g transform="translate(1235.3 -50.718)">
  <g stroke-width=".26458" style="font-feature-settings:normal;font-variant-caps:normal;font-variant-ligatures:normal;font-variant-numeric:normal" aria-label="î–">
   <path d="m-1223.4 57.89c0.254 0.1778 0.4572 0.2794 0.5588 0.2794s0.2794-0.1016 0.5334-0.3048c0.2032-0.1778 0.3048-0.381 0.3048-0.5842 0-0.254-0.051-0.4318-0.2032-0.6096-0.1524-0.1524-0.3302-0.254-0.5334-0.3302s-0.4318-0.0254-0.6858 0.127c-0.254 0.127-0.3556 0.3556-0.3556 0.6858s0.127 0.5588 0.381 0.7366zm3.9878 0.3048c0.254 0.1016 0.4318 0.1524 0.4826 0.1524 0.051 0 0.2032-0.0508 0.4064-0.1524 0.254-0.127 0.3556-0.381 0.3556-0.762-0.025-0.381-0.1778-0.6604-0.4572-0.8382-0.3048-0.1778-0.5588-0.2286-0.8128-0.127-0.254 0.127-0.4064 0.3556-0.4826 0.7112-0.1016 0.2794-0.1016 0.4826-0.025 0.6096 0.076 0.1524 0.254 0.2794 0.5334 0.4064zm-2.1844 17.755c0.1524 0.1524 0.2794 0.2286 0.381 0.2286 0.2032 0 0.2794-0.508 0.254-1.524l-0.051-1.397 1.2192-0.127c0.8128-0.0762 1.2954-0.1778 1.4986-0.254s0.3048-0.254 0.3048-0.5334c0-0.2032-0.051-0.3556-0.127-0.4318-0.1016-0.0762-0.254-0.1524-0.4572-0.2032-0.2286-0.0508-0.635-0.1016-1.2192-0.1524l-1.27-0.127-0.076-1.0414c-0.025-0.254-0.025-0.4572-0.025-0.6096 0-0.127 0-0.2794 0.025-0.4572 0-0.1778 0.025-0.3048 0.051-0.3556 0-0.1016 0.051-0.1778 0.127-0.254 0.076-0.1016 0.1524-0.1778 0.2286-0.2032 0.076-0.0254 0.2032-0.0762 0.381-0.1524 0.1778-0.0508 0.3556-0.0762 0.508-0.1016s0.3556-0.0508 0.6604-0.1016c0.762-0.127 1.2954-0.3556 1.6002-0.6858 0.2794-0.3302 0.2032-0.6096-0.2286-0.8382-0.1016-0.0508-0.3302-0.1016-0.635-0.127-0.3302-0.0254-0.6604-0.0508-0.9906-0.0254-0.8382 0.0508-1.27 0-1.3208-0.1778-0.051-0.1778-0.051-0.7112 0.051-1.651l0.127-1.397 1.2954 0.127c0.635 0.0508 1.0922 0.0254 1.397-0.0508s0.4572-0.254 0.4572-0.508-0.127-0.4572-0.3556-0.6096-0.635-0.3048-1.2446-0.4572-0.9906-0.2794-1.143-0.381-0.2794-0.3302-0.381-0.7112c-0.127-0.3302-0.2794-0.5588-0.4318-0.6858s-0.3048-0.1016-0.4064 0.0508c-0.1016 0.1778-0.1524 0.4318-0.1524 0.8128 0 0.2286-0.1778 0.4064-0.4826 0.5588-0.3048 0.1016-0.7366 0.1778-1.27 0.1778-0.6858 0-1.1684 0.1524-1.4478 0.4826s-0.2286 0.6604 0.127 1.0414c0.1016 0.127 0.2794 0.2286 0.4826 0.254s0.5588 0.0254 1.1176-0.0254l1.2954-0.127-0.1016 0.7366c-0.051 0.4572-0.127 1.0668-0.2032 1.8034l-0.051 0.4826c0 0.127-0.051 0.2286-0.1016 0.3556-0.051 0.1016-0.1016 0.1778-0.127 0.2032-0.051 0.0508-0.127 0.1016-0.254 0.1524-0.1524 0.0254-0.2794 0.0508-0.381 0.0762-0.127 0.0254-0.3302 0.0254-0.5842 0.0508-0.2032 0.0254-0.3556 0.0762-0.4572 0.1524s-0.2032 0.2286-0.254 0.4064c-0.1524 0.381-0.1016 0.6858 0.1524 0.9144 0.2286 0.2286 0.5842 0.3556 1.0668 0.3556h0.7112v1.778c0 0.1778-0.025 0.3302-0.076 0.508s-0.076 0.3048-0.127 0.381-0.127 0.1778-0.254 0.3048c-0.127 0.1016-0.254 0.2032-0.381 0.254-0.127 0.1016-0.3048 0.1778-0.5588 0.3048-0.3556 0.1778-0.6858 0.381-0.9906 0.6096-0.3048 0.2032-0.508 0.381-0.6096 0.508-0.1778 0.2286-0.2794 0.381-0.2794 0.4572 0 0.1016 0.051 0.2286 0.1778 0.4064 0.1778 0.3048 0.4064 0.4572 0.7112 0.4572 0.2794-0.0254 0.635-0.1778 1.0922-0.508 0.5334-0.381 0.8382-0.5842 0.9398-0.5842s0.254 0.3048 0.4572 0.9398 0.4064 1.0414 0.6096 1.2446z" stroke-width=".26458"/>
  </g>
 </g>
</svg>
