<svg width="27.502mm" height="31.312mm" version="1.1" viewBox="0 0 27.502 31.312" xmlns="http://www.w3.org/2000/svg">
 <g transform="translate(1235.3 -50.718)">
  <g stroke-width=".26458" style="font-feature-settings:normal;font-variant-caps:normal;font-variant-ligatures:normal;font-variant-numeric:normal" aria-label="î—">
   <path d="m-1211.4 66.653c0.1778 0.1016 0.4064 0.1016 0.7112 0s0.5842-0.2794 0.8128-0.508 0.3556-0.4572 0.3556-0.6858c0-0.254-0.076-0.4826-0.2286-0.7112-0.1524-0.2032-0.3302-0.3556-0.5334-0.4572-0.2032-0.0762-0.4064-0.1016-0.635-0.0762s-0.381 0.1524-0.4826 0.3556c-0.127 0.2794-0.2032 0.6858-0.2032 1.1938-0.025 0.508 0.051 0.8128 0.2032 0.889zm-20.752 4.1656c0.5588 0.0254 1.0922 0.0762 1.5748 0.127 0.4064 0.0254 1.397-0.1016 2.9972-0.3556 1.3462-0.2286 2.8956-0.3556 4.6736-0.4064 1.7526-0.0762 3.5306-0.0254 5.2832 0.1016 0.5334 0.0508 0.9144 0.0762 1.143 0.1016h0.6604c0.2286 0.0254 0.4064 0 0.508-0.0508 0.1016-0.0254 0.2032-0.0762 0.3048-0.127 0.076-0.0508 0.2032-0.127 0.381-0.2286 0.1524-0.1016 0.2794-0.2032 0.3556-0.254 0.076-0.1016 0.1778-0.1778 0.254-0.254 0.076-0.1016 0.1524-0.2286 0.1778-0.4064 0.025-0.1778 0.076-0.3556 0.1016-0.508 0.025-0.2032 0.051-0.4572 0.076-0.8128 0-0.3556 0-0.7112 0.025-1.0668v-1.4478-0.8636c-0.025-1.2954-0.1016-2.0066-0.2286-2.159-0.076-0.1016-0.3048-0.0254-0.635 0.2032-0.127 0.127-0.2286 0.3556-0.2794 0.7112-0.076 0.381-0.127 1.2192-0.1778 2.5654-0.076 2.0066-0.1778 3.0988-0.3048 3.2258-0.1524 0.1524-0.4318 0.2286-0.8636 0.2286s-1.397-0.0762-2.8448-0.2286c-1.3716-0.127-2.6416-0.1778-3.7846-0.1016-1.1684 0.0508-2.7178 0.2286-4.6228 0.508-0.9906 0.1524-1.7272 0.254-2.2606 0.2794s-0.9652 0.0254-1.3208-0.0508l-0.9652-0.1778-0.127-0.9398c-0.076-0.7112-0.127-2.0066-0.127-3.8862l-0.025-2.9718-0.6096 0.0508-0.635 0.0762-0.051 4.2926c-0.025 2.8448 0.051 4.3434 0.1778 4.5212 0.051 0.0762 0.2032 0.127 0.4318 0.1778 0.2286 0.0762 0.4572 0.1016 0.7366 0.127z" stroke-width=".26458"/>
  </g>
 </g>
</svg>
