<svg width="27.502mm" height="31.312mm" version="1.1" viewBox="0 0 27.502 31.312" xmlns="http://www.w3.org/2000/svg">
 <g transform="translate(1235.3 -50.718)">
  <g stroke-width=".26458" style="font-feature-settings:normal;font-variant-caps:normal;font-variant-ligatures:normal;font-variant-numeric:normal" aria-label="î˜">
   <path d="m-1228.4 75.213c0.254 0.1016 0.6096 0.1524 1.1176 0.2032 0.508 0 1.397 0 2.667-0.0254 2.1336-0.0762 3.6068-0.1778 4.4196-0.3302 0.8128-0.127 2.032-0.2032 3.683-0.2286h1.524c0.2286 0 0.4826-0.0508 0.762-0.127 0.3048-0.0762 0.4826-0.1524 0.5334-0.2032 0.051-0.0762 0.127-0.2286 0.2032-0.508 0.1016-0.2794 0.127-0.508 0.127-0.7112 0-0.2286-0.025-0.6096-0.025-1.143v-0.2794c0-1.5494-0.1524-3.429-0.508-5.6896-0.6096-4.2418-0.8382-6.7564-0.635-7.5438 0.076-0.254 0.1016-0.4572 0.076-0.5842 0-0.127-0.076-0.2794-0.2286-0.4064-0.1778-0.2286-0.4572-0.3302-0.8128-0.3556s-0.6096 0.0762-0.762 0.254c-0.127 0.1778-0.127 0.9906-0.025 2.4384 0.1016 1.4478 0.3048 3.0988 0.6096 4.9022 0.3048 1.7018 0.4318 3.4544 0.4318 5.2578l0.025 2.794-0.8636 0.127c-1.1176 0.1778-2.7432 0.3556-4.8768 0.4826-2.1336 0.1524-3.7084 0.2286-4.6736 0.2032l-2.159-0.0508-0.127-1.143c-0.076-0.8382-0.127-3.1496-0.127-6.9342 0-3.81 0.051-5.9182 0.127-6.2992 0.254-1.0414 0.076-1.7272-0.5334-2.0828-0.2032-0.127-0.3556-0.1778-0.4572-0.2032s-0.1778 0.0254-0.2794 0.127c-0.1778 0.2286-0.3302 1.4986-0.4318 3.8862-0.1016 2.3368-0.1524 4.8768-0.127 7.5946 0.051 1.5748 0.076 2.667 0.076 3.2766 0.051 1.397 0.2032 2.286 0.4064 2.667 0.1524 0.2286 0.4318 0.4318 0.8636 0.635z" stroke-width=".26458"/>
  </g>
 </g>
</svg>
