<svg width="27.502mm" height="31.312mm" version="1.1" viewBox="0 0 27.502 31.312" xmlns="http://www.w3.org/2000/svg">
 <g transform="translate(1235.3 -50.718)">
  <g stroke-width=".26458" style="font-feature-settings:normal;font-variant-caps:normal;font-variant-ligatures:normal;font-variant-numeric:normal" aria-label="î™">
   <path d="m-1222 70.54c0.4826 0.0762 0.8128 0.127 0.9906 0.127 0.1524 0 0.5842-0.0508 1.2446-0.1524 0.762-0.127 1.397-0.3302 1.905-0.5842 0.4826-0.2794 1.016-0.7112 1.6002-1.3208 0.635-0.6604 1.0668-1.1938 1.2954-1.5748 0.2032-0.4064 0.4064-0.9652 0.5588-1.7018 0.1778-0.8382 0.2032-1.5494 0.1016-2.0574-0.127-0.5588-0.4064-1.0414-0.8128-1.524-0.2794-0.3302-0.4826-0.4572-0.5842-0.4318-0.1778 0.0508-0.254 0.6096-0.2286 1.651 0 0.9652-0.1016 1.7526-0.3048 2.3368-0.2286 0.6096-0.635 1.1938-1.1938 1.778-0.762 0.7366-1.651 1.2192-2.667 1.4478s-1.9558 0.127-2.794-0.2794c-0.9144-0.4318-1.7018-1.0414-2.3114-1.8288-0.635-0.762-1.143-1.7272-1.4986-2.8956-0.4318-1.2954-0.9652-1.905-1.6256-1.778-0.508 0.1016-0.508 0.9906 0.025 2.6924 0.254 0.8382 0.6604 1.6256 1.143 2.413 0.508 0.7874 1.0668 1.4224 1.7018 1.9558 0.4572 0.3556 1.016 0.7112 1.7272 1.0668 0.6858 0.3556 1.27 0.5842 1.7272 0.6604z" stroke-width=".26458"/>
  </g>
 </g>
</svg>
