<svg width="27.502mm" height="31.312mm" version="1.1" viewBox="0 0 27.502 31.312" xmlns="http://www.w3.org/2000/svg">
 <g transform="translate(1235.3 -50.718)">
  <g stroke-width=".26458" style="font-feature-settings:normal;font-variant-caps:normal;font-variant-ligatures:normal;font-variant-numeric:normal" aria-label="îš">
   <path d="m-1219.2 62.691c0.2794 0.2794 0.6858 0.0254 1.1938-0.8128 0.2794-0.4826 0.4572-0.889 0.4826-1.2446 0.051-0.381-0.025-0.635-0.2032-0.8128-0.2032-0.1524-0.381-0.1524-0.5842-0.0508-0.1778 0.1524-0.4064 0.4318-0.6096 0.889-0.2032 0.4318-0.3302 0.8382-0.4064 1.2446-0.051 0.381-0.025 0.6604 0.127 0.7874zm-3.0988-0.3556c0.127 0.3048 0.2794 0.4572 0.4318 0.4572 0.2286-0.0254 0.381-0.3556 0.4826-0.9398 0.076-0.5334 0.076-0.9652 0.025-1.2446-0.051-0.2286-0.2032-0.4318-0.4318-0.5842-0.2286-0.1778-0.4064-0.2032-0.5588-0.127s-0.2032 0.4318-0.1778 1.0668c0 0.635 0.076 1.0922 0.2286 1.3716zm-3.4036 0.0762c0.381 0.4064 0.6858 0.6604 0.889 0.7112 0.2032 0.1016 0.381 0.0254 0.5842-0.2032 0.076-0.1016 0.076-0.254-0.025-0.4318-0.1016-0.1778-0.3556-0.508-0.7112-0.9652-0.254-0.3302-0.508-0.5842-0.7366-0.8128s-0.3556-0.3302-0.381-0.3302c-0.1524 0-0.2794 0.1016-0.4064 0.3048-0.1016 0.2286-0.127 0.4318-0.076 0.6096 0.076 0.2286 0.3556 0.6096 0.8636 1.1176zm3.0226 7.493c0.4064 0.2794 0.8128 0.4064 1.1684 0.381s0.7112-0.1778 1.0668-0.4826c0.3556-0.3556 0.5842-0.7366 0.6604-1.1938 0.051-0.4064-0.051-0.8128-0.3048-1.1684-0.254-0.3048-0.4318-0.4318-0.5588-0.3556-0.127 0.0508-0.254 0.3048-0.381 0.7874-0.1524 0.4826-0.3302 0.7874-0.5842 0.8636s-0.5588-0.0508-0.889-0.381c-0.3048-0.2794-0.508-0.4318-0.6858-0.4572-0.1524-0.0254-0.3048 0.0508-0.4572 0.254-0.1524 0.1778-0.127 0.4572 0.076 0.8128 0.2032 0.381 0.4826 0.6858 0.889 0.9398zm1.905 1.7018c-0.8128 0.2286-1.4986 0.254-2.1082 0.1016-0.6096-0.1778-1.1684-0.5334-1.651-1.0922-0.4572-0.5334-0.7112-1.143-0.7874-1.8796-0.051-0.7366 0.076-1.4224 0.4318-2.0828 0.3302-0.6604 0.8128-1.143 1.4732-1.4732 0.3048-0.1524 0.508-0.2286 0.635-0.2286s0.3302 0.0762 0.6096 0.2032c0.1524 0.0762 0.3556 0.127 0.635 0.2032 0.254 0.0508 0.508 0.0762 0.7366 0.0762 0.508 0 0.8636 0.0762 1.0414 0.2032 0.1524 0.127 0.4064 0.508 0.7366 1.1176 0.2032 0.381 0.3302 0.7366 0.4064 1.0414 0.076 0.3048 0.127 0.6604 0.127 1.0668 0 0.5334-0.051 0.8636-0.127 1.0668-0.1016 0.1524-0.3048 0.4318-0.6604 0.762-0.2032 0.1778-0.4572 0.381-0.762 0.5588-0.2794 0.1778-0.5334 0.3048-0.7366 0.3556zm-2.2606 1.3462c0.4318 0.1016 1.016 0.127 1.7018 0.0254 0.7112-0.0508 1.2954-0.2032 1.7526-0.4318 0.8128-0.381 1.4478-0.9906 1.905-1.7526 0.4572-0.8128 0.6096-1.5748 0.4826-2.3114-0.1016-0.5334-0.4064-1.27-0.9144-2.2098-0.4826-0.9652-0.889-1.524-1.143-1.7018-0.3048-0.1778-0.7366-0.3048-1.27-0.381s-1.0922-0.2032-1.6764-0.4064c-0.4572-0.1524-0.7366-0.2286-0.9144-0.2032-0.1524 0.0254-0.4318 0.127-0.8128 0.3302-0.4318 0.2286-0.8382 0.5588-1.2446 0.9906-0.381 0.4318-0.7366 0.9144-1.016 1.4478-0.1778 0.3556-0.2794 0.9144-0.3048 1.7018-0.025 0.762 0.051 1.3462 0.2032 1.7526 0.2794 0.762 0.7366 1.4478 1.3208 2.0066 0.6096 0.6096 1.2446 0.9652 1.9304 1.143zm5.3594 3.7084c-1.778 0.127-3.8354 0.2032-6.223 0.254-2.3622 0.0508-3.7592 0.0508-4.1656-0.0254-0.254-0.0508-0.4318-0.127-0.508-0.2286-0.076-0.1016-0.127-0.381-0.1524-0.8128-0.025-0.2794-0.025-1.4224 0-3.4798 0-2.0574 0.025-4.3942 0.076-7.0358 0.051-4.0894 0.127-6.7056 0.1778-7.874 0.051-1.1684 0.127-1.8034 0.254-1.905 0.3302-0.2794 1.0922-0.4572 2.286-0.508 1.1684-0.1016 3.1242-0.0762 5.842 0l5.3594 0.1778 0.1016 2.8956c0.127 2.8448 0.2286 6.477 0.2794 10.871 0.051 4.3942 0.025 6.731-0.076 6.9596-0.1016 0.2286-0.3048 0.381-0.5588 0.4572-0.2794 0.0762-1.1684 0.1524-2.6924 0.254zm-11.049 1.3462c0.2032 0.0762 1.1176 0.127 2.7432 0.127 1.6002 0 3.3274-0.0254 5.1562-0.1016 1.8542-0.0762 3.5306-0.1524 5.08-0.2794 1.5494-0.1016 2.3876-0.2032 2.4892-0.3048 0.1016-0.127 0.1778-1.7526 0.2032-4.826 0.025-3.0734-0.025-5.6896-0.127-7.8486-0.1524-2.4638-0.2286-4.826-0.2794-7.0866-0.051-2.2352-0.127-3.429-0.254-3.6068-0.1016-0.1016-0.6096-0.1524-1.5494-0.2032-0.9398 0-2.794-0.0254-5.5372 0-1.3208 0-2.3622 0-3.1496 0.0254s-1.524 0.0254-2.1844 0.0762c-0.6858 0-1.1938 0.0508-1.4986 0.0762-0.3302 0.0254-0.6096 0.0762-0.889 0.1778-0.254 0.0508-0.4318 0.1524-0.5334 0.2286s-0.2032 0.2032-0.254 0.3302c-0.1524 0.254-0.2286 1.8288-0.254 4.7244-0.051 2.8702-0.127 6.2738-0.2794 10.211-0.1524 3.8862-0.2032 6.1214-0.1016 6.6802 0.051 0.4318 0.1778 0.762 0.3556 0.9906s0.4572 0.4318 0.8636 0.6096z" stroke-width=".26458"/>
  </g>
 </g>
</svg>
