<svg width="27.502mm" height="31.312mm" version="1.1" viewBox="0 0 27.502 31.312" xmlns="http://www.w3.org/2000/svg">
 <g transform="translate(1235.3 -50.718)">
  <g stroke-width=".26458" style="font-feature-settings:normal;font-variant-caps:normal;font-variant-ligatures:normal;font-variant-numeric:normal" aria-label="î›">
   <path d="m-1224.6 63.859c1.0414 0.127 1.8796 0.2032 2.4892 0.1778s1.9558-0.127 4.064-0.3048c1.4224-0.127 2.2606-0.254 2.54-0.381 0.254-0.127 0.3302-0.381 0.2286-0.8128-0.1016-0.381-0.4064-0.635-0.889-0.7112s-1.2446-0.0508-2.286 0.127c-1.27 0.2286-2.5908 0.3302-3.9624 0.3048-1.3462-0.0254-2.5146-0.1524-3.4798-0.4064-0.7366-0.1778-1.1938-0.2794-1.3716-0.3048-0.1778 0-0.3048 0.0762-0.4318 0.2286-0.1016 0.127-0.1524 0.254-0.1524 0.381 0 0.1016 0.051 0.254 0.1778 0.4826 0.1524 0.2794 0.3302 0.4826 0.508 0.5842 0.1778 0.1524 0.4572 0.254 0.8382 0.3556 0.381 0.0762 0.9398 0.1778 1.7272 0.2794zm-2.5146 6.223c0.127 0.1778 0.3302 0.3048 0.5334 0.3556 0.254 0.0254 0.762 0.0508 1.6002 0.0508 0.6604 0 2.2352-0.0762 4.7498-0.2286 2.4892-0.1524 3.8354-0.254 4.064-0.3048 0.025-0.0254 0.025-0.2286 0-0.635-0.025-0.3302-0.1524-0.5588-0.381-0.6858s-0.6096-0.2286-1.1684-0.2794c-0.5588-0.0254-1.3208 0-2.3114 0.0762-1.6256 0.127-3.175 0.2032-4.6736 0.2032-0.7874 0-1.3462 0.0254-1.7272 0.0508-0.3556 0.0254-0.6096 0.1016-0.762 0.2032-0.127 0.1016-0.2032 0.254-0.2032 0.4826 0 0.1778 0.1016 0.4318 0.2794 0.7112z" stroke-width=".26458"/>
  </g>
 </g>
</svg>
