<svg width="27.502mm" height="31.312mm" version="1.1" viewBox="0 0 27.502 31.312" xmlns="http://www.w3.org/2000/svg">
 <g transform="translate(1235.3 -50.718)">
  <g stroke-width=".26458" style="font-feature-settings:normal;font-variant-caps:normal;font-variant-ligatures:normal;font-variant-numeric:normal" aria-label="îœ">
   <path d="m-1222.6 68.889c0.076 0.0762 0.1524 0.1524 0.2794 0.2286 0.1016 0.0508 0.2032 0.0762 0.2794 0.0508 0.127-0.0254 0.2286-0.2794 0.2794-0.8128 0.051-0.508 0.1016-1.7018 0.1524-3.556 0.076-2.8702 0.2032-4.8514 0.3302-5.8928 0.1778-1.397 0.2286-2.3876 0.1778-2.9464-0.1016-0.5334-0.3048-0.8128-0.6604-0.8128-0.1778 0-0.2794 0.2032-0.3556 0.5842-0.076 0.381-0.1778 1.4732-0.3556 3.2258-0.2032 2.1336-0.3302 4.2672-0.3556 6.4008-0.025 2.1336 0.051 3.302 0.2286 3.5306zm5.2324 1.3208c0.076 0.0762 0.254 0.1016 0.508 0.0762 0.1524-0.0254 0.381-0.3048 0.7112-0.8636 0.3302-0.5842 0.8636-1.6256 1.6002-3.1242l1.9304-3.9116-0.4572-0.4826c-0.2286-0.2286-0.4064-0.3302-0.4572-0.3556-0.1016 0-0.2032 0.0762-0.381 0.2286-0.254 0.2286-0.4826 0.5588-0.6604 0.9398-0.4826 1.0414-0.8636 1.9304-1.1938 2.6162s-0.6096 1.3208-0.8636 1.905c-0.2286 0.5588-0.4064 1.016-0.5334 1.3208-0.127 0.3556-0.2032 0.635-0.2794 0.8636-0.051 0.2286-0.076 0.4064-0.051 0.508 0.025 0.127 0.051 0.2032 0.127 0.2794zm-9.4742-0.2032c0.2286 0.2032 0.4826 0.3556 0.762 0.4572 0.3048 0.1016 0.5588 0.127 0.762 0.0762 0.2032-0.0762 0.3048-0.2032 0.3048-0.381 0-0.127-0.051-0.2286-0.1524-0.3556-0.1016-0.127-0.2286-0.2286-0.4064-0.3048-0.3556-0.1778-0.7112-0.6096-1.0414-1.27s-0.8128-1.8288-1.4224-3.5052c-0.635-1.7018-1.0414-2.6924-1.2192-2.9718-0.1016-0.1778-0.254-0.3048-0.4318-0.3556-0.2032-0.1016-0.381-0.1016-0.5334-0.0508s-0.2286 0.1524-0.2286 0.3302c0 0.2032 0.3556 1.27 1.0922 3.2258s1.2446 3.2004 1.5494 3.7846c0.127 0.2286 0.2794 0.4572 0.4572 0.7366 0.1778 0.254 0.3556 0.4572 0.508 0.5842zm4.2418 6.3246c0.3302 0.3302 0.6096 0.508 0.8382 0.5334s0.4826-0.127 0.7874-0.4318c0.3302-0.3048 0.4826-0.6858 0.4826-1.143s-0.1778-0.8636-0.5334-1.2446c-0.3556-0.3556-0.7112-0.5334-1.0922-0.5588s-0.6604 0.1524-0.8382 0.508c-0.381 0.9398-0.254 1.7272 0.3556 2.3368z" stroke-width=".26458"/>
  </g>
 </g>
</svg>
