<svg width="27.502mm" height="31.312mm" version="1.1" viewBox="0 0 27.502 31.312" xmlns="http://www.w3.org/2000/svg">
 <g transform="translate(1235.3 -50.718)">
  <g stroke-width=".26458" style="font-feature-settings:normal;font-variant-caps:normal;font-variant-ligatures:normal;font-variant-numeric:normal" aria-label="î">
   <path d="m-1233.1 71.556c0.127 0.1778 0.2794 0.254 0.4572 0.254 0.1524-0.0254 0.3302-0.127 0.4826-0.3048 0.1524-0.2032 0.2794-1.397 0.381-3.556 0.025-0.9398 0.051-1.7018 0.1016-2.2606 0.051-0.5588 0.1016-1.0922 0.1778-1.5494 0.051-0.508 0.127-0.8636 0.2286-1.0668 0.076-0.254 0.2032-0.4318 0.381-0.6096s0.3556-0.2794 0.5588-0.3302 0.4572-0.0762 0.7874-0.1016l0.8128-0.0508-0.076 2.8956v0.1524c-0.076 2.4638-0.1016 3.937-0.076 4.3942 0.025 0.4318 0.1778 0.7112 0.4318 0.8382h0.025c0.3048 0.1524 0.508 0.1778 0.6096 0.0508 0.076-0.0762 0.1778-0.9398 0.3048-2.6416s0.2032-3.2258 0.2286-4.6228v-1.1684h4.191c2.7686 0 4.7244-0.0508 5.8674-0.127l1.7018-0.1016 0.127 1.7526c0.076 1.1684 0.051 2.5146-0.051 4.0132-0.1524 1.4986-0.1524 2.3368-0.025 2.5654 0.1016 0.2032 0.2794 0.3556 0.5588 0.4318 0.254 0.0762 0.4572 0.0762 0.5842-0.0508 0.051-0.0508 0.1016-0.508 0.1524-1.3462 0.051-0.8382 0.1016-1.8288 0.127-2.9718l0.1016-4.1656h0.5842c0.4064 0 0.8128 0.127 1.2446 0.3302 0.4318 0.254 0.7366 0.508 0.889 0.7874 0.127 0.2286 0.1778 0.9398 0.1778 2.1082-0.025 1.143-0.1016 2.5146-0.254 4.1148-0.051 0.5842-0.076 0.9398-0.025 1.0922 0.025 0.1524 0.127 0.2794 0.3302 0.381 0.025 0.0254 0.051 0.0254 0.076 0.0254 0.2794 0.1524 0.4826 0.1016 0.6096-0.127 0.1778-0.3302 0.3302-1.524 0.4826-3.556 0.076-1.1938 0.1016-2.1336 0.1016-2.8702-0.025-0.7366-0.1016-1.27-0.2032-1.6002s-0.3048-0.6858-0.5842-1.0414c-0.1524-0.1524-0.3556-0.3302-0.6096-0.4826-0.254-0.2032-0.508-0.3302-0.762-0.4064-0.4064-0.1778-1.1176-0.2794-2.1336-0.3048s-3.6068-0.0508-7.747-0.0508c-3.937 0.0254-6.4008 0.0508-7.4168 0.0762-1.524 0.0508-2.4384 0.2032-2.794 0.4572-0.1778 0.127-0.3302 0.3556-0.4826 0.7366-0.2032 0.5334-0.4064 2.286-0.6096 5.2324-0.2032 2.9972-0.2032 4.572-0.025 4.7752z" stroke-width=".26458"/>
  </g>
 </g>
</svg>
