<svg width="27.502mm" height="31.312mm" version="1.1" viewBox="0 0 27.502 31.312" xmlns="http://www.w3.org/2000/svg">
 <g transform="translate(1235.3 -50.718)">
  <g stroke-width=".26458" style="font-feature-settings:normal;font-variant-caps:normal;font-variant-ligatures:normal;font-variant-numeric:normal" aria-label="îž">
   <path d="m-1222.9 70.286h0.025c0.1524 0.1778 0.3048 0.3048 0.4572 0.3302s0.3302 0 0.5842-0.1016c0.3556-0.127 0.3556-0.5588 0-1.27-0.5842-1.143 0.2286-3.302 2.413-6.5024 1.143-1.7018 1.8542-2.9718 2.1082-3.8608s0.1778-1.6764-0.254-2.3876c-0.2794-0.4318-0.635-0.7112-1.0668-0.889-0.4318-0.1524-1.1176-0.2286-2.032-0.2286-1.016 0-1.8796 0.127-2.5654 0.3556-0.7112 0.2286-1.3462 0.6604-1.9558 1.2446-0.4318 0.4318-0.6858 0.7112-0.7366 0.8128-0.051 0.1524-0.025 0.3048 0.127 0.508 0.2032 0.3048 0.4064 0.4572 0.635 0.4572 0.2286-0.0254 0.5588-0.2032 0.9652-0.5842 0.5588-0.508 1.2192-0.889 2.032-1.1176s1.6002-0.3048 2.3622-0.2032c0.4318 0.0762 0.7366 0.1778 0.889 0.3048s0.2032 0.381 0.127 0.762c-0.076 0.381-0.2794 0.8382-0.5842 1.397-0.3048 0.5334-0.7874 1.2954-1.4224 2.286-0.508 0.7874-0.9906 1.5748-1.4224 2.3368-0.4572 0.7366-0.7112 1.27-0.8128 1.5494-0.381 0.9906-0.5588 1.905-0.5334 2.7686 0.025 0.889 0.254 1.5494 0.6604 2.032zm-0.3048 6.8326c0.1524 0.1778 0.3302 0.254 0.5842 0.254 0.2032 0 0.4318-0.127 0.6858-0.4318 0.254-0.254 0.4064-0.5334 0.4064-0.762 0-0.2032-0.2032-0.508-0.5588-0.8636-0.3556-0.4064-0.635-0.5842-0.8382-0.5842s-0.381 0.1524-0.4826 0.4318c-0.127 0.3048-0.1778 0.6604-0.127 1.0414 0.025 0.381 0.127 0.6858 0.3302 0.9144z" stroke-width=".26458"/>
  </g>
 </g>
</svg>
