<svg width="27.502mm" height="31.312mm" version="1.1" viewBox="0 0 27.502 31.312" xmlns="http://www.w3.org/2000/svg">
 <g transform="translate(1235.3 -50.718)">
  <g stroke-width=".26458" style="font-feature-settings:normal;font-variant-caps:normal;font-variant-ligatures:normal;font-variant-numeric:normal" aria-label="îŸ">
   <path d="m-1220.2 73.511c0.4572 0.3302 0.9652 0.5334 1.4986 0.5842 0.508 0.0254 0.9652-0.1016 1.3208-0.381 0.3048-0.2286 0.635-0.7112 0.9652-1.4478 0.3556-0.7112 0.5842-1.3716 0.7112-1.9812 0.1016-0.635 0.1778-1.6764 0.1524-3.048 0-1.4224-0.076-2.6924-0.1778-3.8354-0.1016-0.7366-0.2032-1.27-0.2794-1.5748-0.1016-0.3048-0.2032-0.5334-0.3556-0.6858-0.2794-0.2286-0.508-0.3048-0.6604-0.2032-0.1016 0.0762-0.1524 0.2286-0.1778 0.508 0 0.254 0.051 0.8128 0.1524 1.6764 0.1524 1.3208 0.2286 2.7686 0.1524 4.3434-0.051 1.5748-0.2032 2.6416-0.4318 3.2258-0.254 0.6096-0.5334 1.0922-0.889 1.4224-0.3302 0.3302-0.6604 0.4572-0.9652 0.381-0.4572-0.127-0.9652-0.4826-1.4732-1.143-0.5334-0.6096-0.9652-1.3716-1.3208-2.2098-0.3302-0.8382-0.508-1.6256-0.508-2.3114 0-0.381-0.1016-0.7112-0.3048-0.9652-0.2032-0.3048-0.4572-0.4318-0.7366-0.4318h-0.051c-0.254 0-0.381 0.1016-0.4318 0.2794-0.025 0.1778-0.051 0.8128-0.051 1.905v0.254c-0.025 1.0414-0.1016 1.8034-0.2032 2.3368-0.127 0.5334-0.3556 0.9906-0.7112 1.3716-0.2286 0.254-0.508 0.381-0.8636 0.4318-0.3556 0-0.635-0.0762-0.8382-0.3048-0.2032-0.1778-0.4572-0.7874-0.762-1.8288-0.3302-1.0414-0.4826-1.7526-0.4826-2.159 0-0.3556-0.127-0.6604-0.381-0.9398-0.2286-0.2794-0.508-0.381-0.7874-0.3556-0.127 0.0254-0.2032 0.0508-0.254 0.0508-0.025 0.0508-0.076 0.127-0.127 0.254-0.025 0.1524-0.076 0.3302-0.076 0.5334-0.025 0.2032-0.051 0.5334-0.051 0.9906-0.051 0.4826-0.1016 0.9652-0.1524 1.3716-0.076 0.4572-0.127 0.7112-0.2032 0.8382-0.051 0.127-0.2286 0.2794-0.4826 0.508-0.2794 0.2286-0.5588 0.4318-0.8636 0.6604-0.6096 0.4064-0.9652 0.762-1.0922 1.0414-0.127 0.3048-0.025 0.5842 0.2794 0.8382 0.1016 0.127 0.254 0.1524 0.4064 0.127 0.1778-0.0508 0.4572-0.1778 0.9144-0.4064 0.254-0.1524 0.5588-0.3556 0.889-0.6096 0.3302-0.2286 0.5842-0.4572 0.762-0.6604l0.635-0.7112 0.4318 0.762c0.3048 0.5842 0.6604 1.016 1.016 1.2192 0.381 0.254 0.8636 0.3556 1.4986 0.3556 0.508 0 0.8382-0.0254 0.9906-0.1016 0.1778-0.0762 0.381-0.2794 0.6858-0.6096 0.1778-0.2032 0.3556-0.4318 0.508-0.7112 0.1778-0.254 0.2794-0.4572 0.3302-0.6604 0.076-0.1524 0.127-0.3048 0.2032-0.4318 0.076-0.127 0.127-0.1778 0.1778-0.1524 0.076 0.0254 0.381 0.381 0.9144 1.0414 0.2032 0.2794 0.4826 0.5588 0.762 0.8636 0.3048 0.3048 0.5588 0.5334 0.7874 0.6858zm8.3312 1.7526c0.051 0.2032 0.1778 0.3048 0.3302 0.2794 0.254-0.0254 0.4572-0.3048 0.6604-0.8128 0.2032-0.5588 0.3302-2.2352 0.3556-5.0292 0.051-2.794 0-5.5372-0.127-8.255s-0.3048-4.2418-0.508-4.572c-0.076-0.127-0.1778-0.2286-0.3048-0.3048-0.1524-0.0762-0.254-0.127-0.3556-0.127-0.2032 0-0.3048 0.0508-0.3302 0.1778-0.025 0.127 0 0.4826 0.051 1.0922 0.1778 2.3368 0.3048 4.953 0.381 7.8486 0.051 2.8956 0.051 5.0292-0.051 6.4262-0.1524 1.9812-0.2032 3.0734-0.1016 3.2766z" stroke-width=".26458"/>
  </g>
 </g>
</svg>
