<svg width="27.502mm" height="31.312mm" version="1.1" viewBox="0 0 27.502 31.312" xmlns="http://www.w3.org/2000/svg">
 <g transform="translate(1235.3 -50.718)">
  <g stroke-width=".26458" style="font-feature-settings:normal;font-variant-caps:normal;font-variant-ligatures:normal;font-variant-numeric:normal" aria-label="î ">
   <path d="m-1230.3 75.442c0.127 0.0762 0.2794 0.127 0.4318 0.127 0.1778 0 0.254-0.0508 0.254-0.127 0.025-0.4318 0.076-2.3114 0.1524-5.6642 0.051-3.3782 0.076-5.7658 0.051-7.1882l-0.025-3.683 1.8288-0.127c1.1938-0.0762 2.3114-0.1524 3.302-0.2794 1.143-0.127 1.8034-0.1778 2.0066-0.1524 0.2286 0.0254 0.3556 0.2286 0.4318 0.5842 0.076 0.381 0.1778 3.048 0.2794 8.001 0.025 1.3462 0.025 2.413 0.051 3.1496 0.076 2.7178 0.2032 4.2926 0.381 4.7244 0.076 0.254 0.254 0.381 0.508 0.381 0.2032 0 0.3556-0.0254 0.4826-0.1016 0.1016-0.0762 0.1778-0.2794 0.254-0.635 0.051-0.3302 0.076-0.762 0.1016-1.2954v-2.4384c-0.025-2.6416-0.076-5.3848-0.1524-8.255l-0.127-4.3688 1.7526 0.0762c0.889 0.0254 1.7526 0.1778 2.5908 0.381 0.8128 0.254 1.3716 0.508 1.7018 0.8128 0.254 0.2286 0.4064 0.7366 0.4318 1.524 0.051 0.762 0 2.0066-0.1778 3.7084-0.1778 1.9558-0.254 3.8354-0.2794 5.6896-0.025 1.8542 0.051 3.0226 0.2286 3.5052 0.1778 0.4826 0.3556 0.7874 0.5842 0.9144s0.4318 0.0762 0.635-0.1778c0.1016-0.1524 0.1778-0.4064 0.1778-0.7366 0.051-0.3556 0.025-1.0414-0.025-2.0574-0.1016-1.6256-0.051-3.556 0.1778-5.8166 0.1778-1.9558 0.254-3.6068 0.254-4.9276-0.051-1.2954-0.1778-2.159-0.4064-2.5908-0.1778-0.3302-0.4826-0.6096-0.9144-0.8128-0.4318-0.2286-1.2192-0.4826-2.3622-0.762-1.905-0.4826-4.4958-0.508-7.8232-0.1016-1.4986 0.1778-2.921 0.2794-4.3434 0.2794-1.3716 0-2.2352 0.0508-2.54 0.1778l-0.4572 0.1778v8.5852 5.0038c0.025 1.0668 0.051 1.9812 0.1016 2.6924 0.025 0.762 0.076 1.2192 0.1524 1.3716 0.076 0.2032 0.1778 0.3302 0.3302 0.4318z" stroke-width=".26458"/>
  </g>
 </g>
</svg>
