<svg width="27.502mm" height="31.312mm" version="1.1" viewBox="0 0 27.502 31.312" xmlns="http://www.w3.org/2000/svg">
 <g transform="translate(1235.3 -50.718)">
  <g stroke-width=".26458" style="font-feature-settings:normal;font-variant-caps:normal;font-variant-ligatures:normal;font-variant-numeric:normal" aria-label="î¡">
   <path d="m-1218.8 70.082c-0.3556 0.254-0.8128 0.4064-1.397 0.4318-0.5588 0.0254-1.0414-0.0508-1.4478-0.2794-0.381-0.2032-0.8128-0.5334-1.27-0.9906-0.635-0.6096-1.0668-1.4224-1.2954-2.4638-0.254-1.0414-0.254-2.032-0.025-3.048 0.2286-0.9652 0.6604-1.7272 1.2954-2.2098 0.3302-0.2794 0.762-0.4572 1.2954-0.5842 0.508-0.127 1.016-0.1524 1.4732-0.0762 0.508 0.0762 1.016 0.4064 1.5494 0.9398 0.5334 0.5588 0.9398 1.1938 1.2192 1.9304 0.2032 0.5334 0.3048 1.143 0.3302 1.778 0.025 0.635-0.025 1.2446-0.1524 1.8288-0.127 0.5842-0.3302 1.1176-0.6096 1.6256-0.2794 0.4826-0.6096 0.8636-0.9652 1.1176zm-2.6924 1.8034c0.4826 0.1778 0.8382 0.254 1.016 0.2794 0.2032 0 0.6096-0.0508 1.2192-0.1778 0.5842-0.127 1.143-0.4318 1.651-0.889 0.5334-0.508 0.9652-1.0922 1.3208-1.8288 0.2032-0.4064 0.3302-0.7874 0.381-1.143 0.051-0.3556 0.076-1.0414 0.076-2.032 0-1.0414-0.025-1.7526-0.076-2.0574-0.051-0.3556-0.2286-0.762-0.4826-1.2954-0.1524-0.3302-0.381-0.6858-0.6604-1.0922-0.3048-0.4064-0.5842-0.7366-0.8382-1.016-0.8636-0.8382-1.7526-1.3208-2.6924-1.4732-0.9398-0.1778-1.8288 0.0254-2.667 0.5588-0.8636 0.5334-1.5494 1.3716-2.0828 2.5146-0.4064 0.8636-0.5334 2.032-0.381 3.5306 0.1778 1.4732 0.5588 2.6416 1.1684 3.5306 0.3556 0.5588 0.8636 1.0922 1.4478 1.6002 0.6096 0.4826 1.143 0.8128 1.6002 0.9906zm2.6162 3.2766c-1.397 0.381-2.7686 0.4064-4.1402 0.0508-1.3462-0.3302-2.5146-1.016-3.4544-2.032-0.9144-0.9652-1.6002-2.1336-2.0574-3.5052-0.4826-1.397-0.6858-2.8194-0.635-4.2672 0.051-1.4732 0.3556-2.794 0.9398-3.9878 0.127-0.254 0.381-0.6096 0.7112-1.0668 0.3556-0.4572 0.7112-0.8636 1.0668-1.2192 1.524-1.5748 3.1242-2.4384 4.7752-2.6162 0.5842-0.0762 1.5494 0.0254 2.8956 0.2794 1.3208 0.254 2.2098 0.508 2.6416 0.7874 0.5588 0.3556 1.0668 1.0922 1.4478 2.2352 0.4064 1.1176 0.6858 2.54 0.8382 4.2418 0.1016 1.27 0.127 2.286 0.025 3.0734-0.076 0.762-0.3302 1.7526-0.7112 2.9972-0.381 1.1938-0.9652 2.286-1.8034 3.2004-0.8128 0.9652-1.6764 1.5494-2.54 1.8288zm-4.5974 1.3716c0.4064 0.127 0.8128 0.2286 1.2192 0.254 0.4064 0.0508 0.9144 0.0762 1.5748 0.0508 0.7366-0.0254 1.27-0.1016 1.6256-0.1524 0.3302-0.1016 0.7874-0.254 1.3716-0.5334 1.1176-0.5588 2.032-1.2954 2.7432-2.1844 0.7366-0.889 1.27-1.9812 1.6256-3.2766 0.4572-1.6764 0.6858-3.4036 0.6604-5.207-0.025-1.8034-0.2794-3.556-0.762-5.2832-0.2286-0.762-0.4572-1.3716-0.6604-1.8542-0.2286-0.4826-0.508-0.889-0.8382-1.2446s-0.7112-0.635-1.143-0.8636-0.9906-0.4318-1.6764-0.6604c-2.1082-0.635-4.1656-0.5588-6.1722 0.2286s-3.6576 2.1844-4.9276 4.1656c-0.8128 1.2446-1.2954 2.7432-1.4732 4.4704-0.1524 1.7272 0.025 3.429 0.5334 5.1308 0.508 1.7018 1.27 3.1242 2.3368 4.2926 1.1684 1.2954 2.4892 2.1844 3.9624 2.667z" stroke-width=".26458"/>
  </g>
 </g>
</svg>
