<svg width="27.502mm" height="31.312mm" version="1.1" viewBox="0 0 27.502 31.312" xmlns="http://www.w3.org/2000/svg">
 <g transform="translate(1235.3 -50.718)">
  <g stroke-width=".26458" style="font-feature-settings:normal;font-variant-caps:normal;font-variant-ligatures:normal;font-variant-numeric:normal" aria-label="î¢">
   <path d="m-1222.4 66.095c0.051 0.3302 0.2032 0.4826 0.4572 0.4826 0.254 0.0254 0.4572-0.127 0.6096-0.4064 0.051-0.1016 0.1524-0.508 0.254-1.1684 0.1016-0.7112 0.1778-1.4732 0.254-2.3114l0.3048-3.0734-0.4572-0.3556c-0.3048-0.2286-0.5334-0.3302-0.6858-0.3556-0.1778 0-0.3302 0.1016-0.4318 0.3302s-0.2032 1.3208-0.3048 3.3274-0.1016 3.175 0 3.5306zm2.667 4.191c0.1016 0.1524 0.2032 0.254 0.3556 0.3048s0.381 0.0762 0.7366 0.1016 1.016 0.0254 1.9812 0.0254h1.6002c0.3048 0 0.5842-0.0254 0.8636-0.0762 0.254-0.0254 0.4318-0.0762 0.5334-0.127 0.076-0.0508 0.1778-0.127 0.3302-0.254l0.5334-0.4572-0.508-0.508c-0.1016-0.1016-0.2032-0.1778-0.2794-0.2286-0.076-0.0508-0.1778-0.1016-0.2794-0.1524s-0.3048-0.0762-0.5842-0.1016-0.5588-0.0254-0.8636-0.0508-0.762-0.0254-1.4224-0.0508c-1.2192-0.0508-2.0066-0.0508-2.413-0.0508-0.4064 0.0508-0.6604 0.1016-0.7112 0.2032-0.127 0.2032-0.1778 0.4318-0.1524 0.6858 0 0.254 0.1016 0.508 0.2794 0.7366zm-9.3472 0.6604c0.6096 0.0762 1.4478 0.0762 2.5146 0s1.778-0.1778 2.1336-0.3048c0.3556-0.1524 0.5588-0.3302 0.635-0.508 0.051-0.2032-0.051-0.3556-0.3048-0.4572-0.1778-0.0762-1.016-0.2032-2.54-0.4064s-2.54-0.3048-3.048-0.3302c-0.254 0-0.4064 0.0254-0.4826 0.0762-0.076 0.0762-0.127 0.2032-0.127 0.4318-0.051 0.4064 0.025 0.7366 0.254 1.016 0.2286 0.2794 0.5588 0.4318 0.9652 0.4826z" stroke-width=".26458"/>
  </g>
 </g>
</svg>
