<svg width="27.502mm" height="31.312mm" version="1.1" viewBox="0 0 27.502 31.312" xmlns="http://www.w3.org/2000/svg">
 <g transform="translate(1235.3 -50.718)">
  <g stroke-width=".26458" style="font-feature-settings:normal;font-variant-caps:normal;font-variant-ligatures:normal;font-variant-numeric:normal" aria-label="î£">
   <path d="m-1219.3 73.943c-0.4572 0.5588-0.9906 0.8128-1.6256 0.7112-0.635-0.0508-1.1684-0.4318-1.5748-1.0922-0.254-0.4318-0.5334-0.9398-0.8128-1.5748s-0.4318-1.016-0.4318-1.1938 0.2032-0.5334 0.5588-1.0922c0.2286-0.3302 0.4572-0.5842 0.7112-0.7874 0.254-0.2286 0.6096-0.4318 1.0414-0.6604 0.3556-0.1524 0.6858-0.2794 0.9906-0.4064 0.3302-0.1016 0.5588-0.1524 0.6604-0.127 0.3302 0.0508 0.6096 0.3556 0.8382 0.889s0.3556 1.2446 0.4064 2.1082c0.051 0.7874 0.025 1.397-0.076 1.905-0.127 0.4572-0.3302 0.9144-0.6858 1.3208zm-2.4892 1.8288c0.6604 0.3048 1.2954 0.3556 1.9558 0.127 0.635-0.2286 1.2446-0.6858 1.8034-1.4224 0.762-0.9906 1.0922-2.3622 0.9906-4.1656-0.051-1.2446-0.3556-2.2352-0.889-2.9718-0.508-0.7112-1.1938-1.0414-2.0066-1.016-0.4064 0.0254-1.016 0.1778-1.8034 0.508-0.7874 0.3048-1.27 0.5842-1.4732 0.8128-0.1524 0.1778-0.3302 0.3302-0.5588 0.4572-0.1778 0.0762-0.3302 0.0762-0.4318-0.0508-0.1524-0.2286-0.3302-1.1938-0.4826-2.921-0.127-1.5494-0.127-2.9718-0.025-4.2672 0.127-1.2954 0.3556-2.2606 0.6858-2.9464 0.3302-0.635 0.4826-1.1684 0.4318-1.5494 0-0.381-0.2032-0.508-0.5842-0.381-0.2286 0.0762-0.508 0.5588-0.8382 1.397-0.3302 0.8636-0.5842 1.7272-0.7366 2.5908-0.2286 1.2446-0.3048 2.8956-0.2286 4.953 0.1016 2.0574 0.3048 3.683 0.6096 4.9022 0.4572 1.7018 0.9652 3.0226 1.524 3.9624 0.5842 0.9652 1.27 1.6256 2.0574 1.9812z" stroke-width=".26458"/>
  </g>
 </g>
</svg>
