<svg width="27.502mm" height="31.312mm" version="1.1" viewBox="0 0 27.502 31.312" xmlns="http://www.w3.org/2000/svg">
 <g transform="translate(1235.3 -50.718)">
  <g stroke-width=".26458" style="font-feature-settings:normal;font-variant-caps:normal;font-variant-ligatures:normal;font-variant-numeric:normal" aria-label="î¤">
   <path d="m-1217.6 65.891c0.4064 0.2032 0.6604 0.3048 0.7874 0.3048s0.3048-0.127 0.5334-0.3556 0.3556-0.5334 0.3556-0.889c0-0.381-0.127-0.762-0.3556-1.143-0.1524-0.2286-0.3048-0.381-0.508-0.4826s-0.381-0.127-0.5588-0.0762c-0.2032 0.0508-0.3556 0.127-0.508 0.2794-0.1524 0.1016-0.2794 0.3048-0.3556 0.508-0.1016 0.254-0.127 0.508-0.1016 0.7874 0 0.3048 0.051 0.5334 0.1524 0.6604 0.1016 0.127 0.2794 0.2794 0.5588 0.4064zm-9.2964 9.6012c0.1016 0.0762 0.2794 0.127 0.5588 0.1016 0.254-0.0254 0.7112-0.1016 1.3716-0.2286 1.0668-0.2286 2.0828-0.381 3.0226-0.4572 0.8128-0.0762 1.3716-0.2286 1.6764-0.4572 0.3048-0.2032 0.4064-0.508 0.3302-0.9144-0.254-1.1684-0.3556-2.8956-0.2794-5.1816 0.051-2.2606 0.2794-4.7244 0.635-7.3914 0.3048-2.413 0.4318-3.7592 0.381-3.9878-0.076-0.1778-0.1524-0.3048-0.254-0.4064-0.1016-0.0508-0.254-0.1016-0.508-0.1524-0.254 0-0.5842 0-0.9398 0.0508-0.381 0.0508-0.9144 0.127-1.6002 0.254-1.7018 0.3048-2.794 0.4826-3.2766 0.508-0.3048 0.0254-0.508 0.0508-0.6096 0.1016-0.1016 0.0762-0.1778 0.1778-0.1778 0.3556-0.051 0.2794 0.076 0.508 0.381 0.7112 0.2032 0.127 0.4572 0.2032 0.7112 0.2032 0.254-0.0254 0.8382-0.1016 1.778-0.2794 0.6604-0.127 1.1938-0.2286 1.5748-0.2794s0.6858-0.0762 0.9398-0.0762c0.2286 0 0.381 0.0254 0.4572 0.0762 0.076 0.0508 0.127 0.127 0.127 0.2286-0.025 0.2286-0.1524 1.143-0.381 2.7686-0.3048 2.1082-0.508 3.8862-0.6096 5.2832-0.1016 1.4224-0.127 2.794-0.051 4.0894 0.051 0.9906 0.076 1.651 0.076 2.0066-0.025 0.3556-0.076 0.5842-0.1778 0.6604-0.2032 0.127-0.8382 0.2794-1.9304 0.4318s-1.9304 0.3048-2.5146 0.4572c-0.4064 0.1016-0.6604 0.2032-0.762 0.2794s-0.1778 0.254-0.1778 0.4826c-0.051 0.3556 0.025 0.6096 0.2286 0.762z" stroke-width=".26458"/>
  </g>
 </g>
</svg>
