<svg width="27.502mm" height="31.312mm" version="1.1" viewBox="0 0 27.502 31.312" xmlns="http://www.w3.org/2000/svg">
 <g transform="translate(1235.3 -50.718)">
  <g stroke-width=".26458" style="font-feature-settings:normal;font-variant-caps:normal;font-variant-ligatures:normal;font-variant-numeric:normal" aria-label="î¥">
   <path d="m-1218.2 66.323c0.2032 0.3302 0.3556 0.4826 0.4318 0.4826 0.2032 0 0.3556-0.1016 0.5334-0.2794 0.1524-0.2032 0.2794-0.4318 0.3556-0.6604 0.1016-0.2286 0.127-0.4826 0.1016-0.762-0.025-0.254-0.1016-0.4318-0.254-0.5588-0.2286-0.1778-0.4572-0.2032-0.6858-0.1016-0.2032 0.1016-0.381 0.3302-0.5334 0.7112-0.1016 0.3048-0.1524 0.5334-0.1524 0.6604s0.076 0.3048 0.2032 0.508zm-3.7846 0.254c0.2032 0.1778 0.4064 0.254 0.6096 0.2032 0.2286-0.0762 0.4064-0.254 0.5588-0.5334 0.3556-0.6858 0.381-1.1684 0.076-1.4732-0.1524-0.1778-0.381-0.2286-0.6858-0.2032-0.2794 0.0254-0.4826 0.1524-0.5842 0.3556-0.127 0.2286-0.2032 0.5334-0.1778 0.889 0 0.381 0.076 0.635 0.2032 0.762zm-3.6322-0.2286c0.127 0.254 0.2794 0.4064 0.508 0.4572 0.2032 0.0508 0.4064 0 0.5842-0.1778 0.2032-0.1524 0.3048-0.381 0.3556-0.6858 0.076-0.3048 0-0.5842-0.2032-0.8382-0.2286-0.2794-0.4572-0.381-0.762-0.3302-0.2032 0.0508-0.381 0.254-0.508 0.6096-0.1016 0.3556-0.1016 0.6858 0.025 0.9652zm1.524 8.8138c-1.5494 0.1524-2.5908 0.2286-3.1242 0.254-0.508 0.0254-0.8128-0.0254-0.8636-0.127-0.051-0.0762-0.025-0.8382 0.1016-2.3114 0.1016-1.4224 0.1524-4.3434 0.1016-8.7122l-0.051-6.5532 1.397-0.127c0.9652-0.1016 2.54-0.2794 4.7498-0.5588 1.0922-0.127 1.9812-0.2286 2.6924-0.254 0.6858-0.0508 1.3208-0.0508 1.8288-0.0508 0.5334 0.0508 0.9398 0.127 1.2192 0.254 0.3048 0.127 0.508 0.3048 0.6858 0.5334 0.1524 0.2286 0.2794 0.508 0.3302 0.8636 0.127 0.5334 0.076 2.5146-0.1524 5.8928-0.2032 3.3274-0.3048 5.842-0.3302 7.5184l-0.051 2.4384-1.2954 0.127c-0.8636 0.0762-1.8542 0.2032-2.921 0.3556-1.0668 0.127-2.4892 0.2794-4.318 0.4572zm-4.2672 1.524c0.025 0 0.051 0 0.076 0.0254 0.3556 0.127 0.7366 0.2032 1.143 0.1778 0.381-0.0254 1.6002-0.1524 3.6068-0.381 0.1778-0.0254 0.3048-0.0508 0.381-0.0508 2.6924-0.3302 4.8514-0.5588 6.477-0.7112l2.4384-0.2286-0.051-1.8034c-0.025-0.9398 0-2.6162 0.127-5.0292 0.1016-2.413 0.254-4.5974 0.4064-6.5786 0.127-1.3462 0.127-2.54 0.051-3.5052-0.1016-1.016-0.2794-1.651-0.5588-1.9558-0.5334-0.5842-1.3462-0.9652-2.413-1.143s-2.4638-0.127-4.2164 0.127c-1.4224 0.2286-2.921 0.3556-4.4958 0.4318-1.5494 0.0508-2.4638 0.1016-2.7432 0.1524-0.2032 0.0254-0.3556 0.1016-0.4572 0.254-0.1016 0.1016-0.1778 0.4064-0.2286 0.889-0.076 0.4826-0.1016 1.0668-0.1016 1.778-0.025 0.7112-0.025 1.778-0.025 3.2258 0 3.4036-0.1016 6.096-0.254 8.1026-0.2794 3.5306-0.2794 5.461 0.025 5.7658 0.1524 0.1524 0.4318 0.3048 0.8128 0.4572z" stroke-width=".26458"/>
  </g>
 </g>
</svg>
