<svg width="27.502mm" height="31.312mm" version="1.1" viewBox="0 0 27.502 31.312" xmlns="http://www.w3.org/2000/svg">
 <g transform="translate(1235.3 -50.718)">
  <g stroke-width=".26458" style="font-feature-settings:normal;font-variant-caps:normal;font-variant-ligatures:normal;font-variant-numeric:normal" aria-label="î¦">
   <path d="m-1221.4 58.297c0.127 0.1778 0.254 0.254 0.3302 0.2032 0.1016 0 0.2032-0.1524 0.3048-0.381 0.127-0.2794 0.127-0.8636 0-1.7018-0.1524-0.8382-0.3302-1.3208-0.508-1.4478s-0.4064-0.2032-0.6096-0.1778c-0.254 0.0254-0.381 0.1016-0.4318 0.254-0.051 0.1524 0.051 0.6858 0.3048 1.6002 0.254 0.9144 0.4572 1.4732 0.6096 1.651zm2.9718 0.4318c0.076 0.127 0.1524 0.2286 0.2032 0.2794 0.076 0.0762 0.1524 0.0762 0.2286 0.0254 0.076-0.0508 0.1778-0.1524 0.2794-0.2794 0.076-0.1524 0.2032-0.3556 0.3302-0.635 0.3302-0.6604 0.762-1.3716 1.3208-2.159 0.9398-1.3462 1.0414-2.032 0.254-2.032-0.1778 0-0.3556 0.0762-0.5334 0.254s-0.4318 0.4572-0.7366 0.889c-0.7366 1.0414-1.1938 1.8034-1.397 2.3114-0.1524 0.4826-0.1524 0.9398 0.051 1.3462zm-6.858 0.0254c0.3302 0.2032 0.5842 0.3048 0.8128 0.3048 0.2032-0.0254 0.3302-0.127 0.3556-0.3302 0.025-0.0762-0.1016-0.3048-0.381-0.6604s-0.6096-0.7366-0.9906-1.1684c-0.5334-0.5588-0.9144-0.9652-1.2192-1.1938-0.254-0.2286-0.4826-0.3556-0.6604-0.3556s-0.3048 0.0254-0.3556 0.1016c-0.076 0.0762-0.1016 0.2032-0.1016 0.381 0 0.254 0.3048 0.7366 0.9144 1.4224 0.5842 0.6858 1.143 1.1938 1.6256 1.4986zm2.032 17.704c-1.651 0.3048-2.6162 0.4572-2.8702 0.4572h-0.076c-0.127 0-0.2032-0.0508-0.2286-0.1778-0.076-0.2032-0.025-1.524 0.1524-3.937 0.025-0.381 0.051-0.6604 0.051-0.8636 0.2032-2.7686 0.3048-4.9022 0.3048-6.4262v-2.3368l0.4318 0.127c0.3048 0.0762 1.4478 0.1016 3.4544 0.127 2.0066 0 3.2258-0.0254 3.7084-0.1016 0.3556-0.0762 0.5842-0.0762 0.6858-0.0508s0.1778 0.1524 0.2286 0.3556c0.076 0.3048 0.1016 2.3622 0.1016 6.1976v5.7658l-0.6096 0.0762c-0.4064 0.0762-0.9906 0.1524-1.7272 0.2032-0.7366 0.1016-1.9558 0.2794-3.6068 0.5842zm-4.1656 1.7018c0.076 0.1016 0.1778 0.1778 0.3048 0.2032 0.1016 0.0254 0.3302 0.0254 0.6604 0s0.762-0.1016 1.2192-0.1778c0.508-0.0762 1.2192-0.2286 2.2098-0.4318 2.1844-0.4318 3.8354-0.635 4.953-0.6604 1.1176 0 1.7272-0.0762 1.8288-0.2286 0.025-0.0762 0.051-0.8382 0.076-2.3622 0.025-1.4732 0.025-3.2258 0-5.1816-0.025-3.2258-0.051-5.2832-0.076-6.1214-0.051-0.8382-0.1524-1.3208-0.2794-1.4224-0.2032-0.1778-0.4572-0.254-0.7874-0.2286-0.3048 0.0254-0.7112 0.127-1.2446 0.3048-0.3556 0.127-0.7874 0.2032-1.2954 0.254-0.508 0.0254-1.3208 0.0508-2.4384 0.0254-1.8542-0.0254-3.0226-0.0762-3.4544-0.2032-0.254-0.0762-0.4572-0.1016-0.6096-0.0762-0.1524 0-0.3048 0.0508-0.4572 0.1524-0.1778 0.127-0.3048 0.4572-0.3556 0.9144-0.051 0.508-0.1016 2.0066-0.1524 4.572-0.076 3.4544-0.1524 6.0452-0.2286 7.7978-0.076 1.7272-0.025 2.6924 0.127 2.8702z" stroke-width=".26458"/>
  </g>
 </g>
</svg>
