<svg width="27.502mm" height="31.312mm" version="1.1" viewBox="0 0 27.502 31.312" xmlns="http://www.w3.org/2000/svg">
 <g transform="translate(1235.3 -50.718)">
  <g stroke-width=".26458" style="font-feature-settings:normal;font-variant-caps:normal;font-variant-ligatures:normal;font-variant-numeric:normal" aria-label="î§">
   <path d="m-1219 63.859c0.1524 0.127 0.381 0.1778 0.7112 0.1016 0.3556-0.0762 0.6096-0.1778 0.762-0.3556 0.1524-0.1524 0.2286-0.2794 0.2286-0.381 0.025-0.1016 0-0.254-0.1016-0.4572-0.3048-0.6858-0.7112-0.7874-1.27-0.2794-0.2032 0.2032-0.3556 0.4572-0.4318 0.7366-0.051 0.2794-0.025 0.508 0.1016 0.635zm2.2098 0.0254c0.2032 0.1778 0.3556 0.2794 0.508 0.254 0.127 0 0.3556-0.1016 0.635-0.2794 0.254-0.1524 0.381-0.3556 0.4318-0.6096 0.051-0.254 0.025-0.4826-0.127-0.6604-0.127-0.1778-0.3302-0.2794-0.6096-0.2794-0.1524 0-0.381 0.1524-0.6858 0.4572-0.2794 0.2794-0.4318 0.508-0.4318 0.6604 0 0.1016 0.1016 0.254 0.2794 0.4572zm-14.173 10.566c0.127 0.2286 0.2794 0.3556 0.4318 0.4064 0.1778 0 0.3302-0.0762 0.4826-0.254 0.1524-0.127 0.2794-0.6096 0.4064-1.4478s0.2286-1.8288 0.3048-2.9972c0.051-0.7874 0.076-1.2954 0.051-1.5494 0-0.2286-0.076-0.4318-0.2286-0.5588-0.2032-0.2286-0.381-0.3302-0.4826-0.3048-0.127 0.0254-0.3048 0.1524-0.5588 0.4318-0.1778 0.2032-0.3048 0.4826-0.3556 0.7874-0.076 0.3556-0.127 1.1176-0.1778 2.3622-0.051 1.8034-0.025 2.8448 0.127 3.1242zm6.7564 0.4572c0 0.127 0.127 0.1524 0.381 0.1524 0.2286-0.0508 0.4318-0.127 0.5334-0.254 0.2032-0.254 0.381-0.8128 0.5334-1.651s0.2286-1.6764 0.2286-2.5146c0-0.7366-0.025-1.2954-0.076-1.6764-0.025-0.3556-0.1016-0.6096-0.2032-0.762s-0.254-0.2286-0.4826-0.254c-0.4064-0.0508-0.6858 0.127-0.7874 0.508-0.1016 0.4064-0.1524 1.4478-0.1524 3.1496 0 2.159 0.025 3.2512 0.025 3.302zm-3.429 0.1016c0.025 0.127 0.076 0.2032 0.1778 0.3048 0.076 0.0508 0.1778 0.1016 0.254 0.1016 0.4064 0 0.7366-0.3302 0.9398-1.016 0.2286-0.6858 0.381-1.8034 0.4826-3.3782 0.1016-1.1176 0.051-1.905-0.127-2.3368-0.2286-0.5842-0.6096-0.5334-1.143 0.1778-0.1524 0.2032-0.254 0.508-0.3302 0.9144-0.051 0.4064-0.127 1.143-0.2032 2.1844-0.1016 1.7526-0.1016 2.7686-0.051 3.048zm7.3152 0.4318c0.076 0.127 0.254 0.1524 0.508 0.127 0.381-0.0508 0.6604-0.4064 0.8636-1.0414 0.1778-0.635 0.3556-1.7018 0.4572-3.2004l0.2032-2.7178 0.889-0.2286c0.9144-0.2286 1.7526-0.6858 2.5654-1.3462 0.7874-0.635 1.4478-1.4224 1.9558-2.3368 0.508-0.889 0.7874-1.8034 0.8382-2.6924 0.051-0.508 0.025-0.8636 0-1.0414-0.051-0.1778-0.1778-0.4318-0.4318-0.7112-0.3556-0.4318-0.8128-0.7874-1.3462-1.0922-0.5334-0.3302-1.3208-0.6858-2.3876-1.0668-2.6924-1.016-5.1816-1.4732-7.4422-1.397-1.016 0.0254-1.7272 0.1524-2.0828 0.3302-0.381 0.1778-0.5334 0.508-0.4826 0.9398 0.025 0.2032 0.076 0.3302 0.1524 0.381 0.076 0.0508 0.2286 0.0762 0.4572 0.0508 2.1844-0.2286 4.1656-0.1016 5.969 0.381 1.0414 0.2794 2.032 0.635 3.0226 1.016 0.9652 0.381 1.7272 0.762 2.2352 1.0922 0.3302 0.2286 0.5334 0.4318 0.5842 0.5588 0.076 0.127 0.1016 0.4318 0.1016 0.9144 0 0.7874-0.2794 1.6002-0.8636 2.4384s-1.27 1.4224-2.0828 1.7526c-0.4064 0.1778-0.9652 0.254-1.7272 0.254-0.5334-0.0254-0.8636 0-0.9652 0.0254-0.2286 0.0762-0.4064 0.381-0.508 0.9144-0.076 0.4064-0.2286 2.0066-0.4318 4.826-0.1016 1.8034-0.127 2.7432-0.051 2.8702z" stroke-width=".26458"/>
  </g>
 </g>
</svg>
