<svg width="27.502mm" height="31.312mm" version="1.1" viewBox="0 0 27.502 31.312" xmlns="http://www.w3.org/2000/svg">
 <g transform="translate(1235.3 -50.718)">
  <g stroke-width=".26458" style="font-feature-settings:normal;font-variant-caps:normal;font-variant-ligatures:normal;font-variant-numeric:normal" aria-label="î¨">
   <path d="m-1223.7 77.652c0.1524 0.2286 0.3556 0.3556 0.6096 0.4064 0.2286 0 0.4572-0.0762 0.635-0.254s0.5334-1.0414 1.0668-2.5908c1.0668-3.0734 2.3622-6.3246 3.8862-9.8044 1.5494-3.4544 2.9718-6.3246 4.2926-8.636 0.5588-0.9906 0.8382-1.5748 0.8382-1.778 0-0.2286-0.076-0.4064-0.254-0.5588-0.1778-0.127-0.381-0.2032-0.635-0.2032-0.1524 0-0.2794 0.0254-0.381 0.1016s-0.2794 0.3048-0.5334 0.7366-0.5334 0.9398-0.8382 1.5494-0.7874 1.6002-1.4732 2.9718c-1.0414 2.0828-1.8796 3.9116-2.5908 5.4864-0.6604 1.5748-1.4986 3.6068-2.4892 6.0706-0.6858 1.7018-1.1176 2.7178-1.27 3.0226-0.127 0.2286-0.2286 0.3048-0.3048 0.1778-0.076-0.127-0.381-0.9652-0.9144-2.4892-0.5588-1.5748-1.2446-3.3274-2.0574-5.334s-1.4732-3.8354-2.0066-5.5372c-0.5842-1.8288-1.0414-3.1496-1.4224-4.0132-0.3556-0.8128-0.635-1.2446-0.8636-1.2446s-0.3556 0.127-0.3556 0.381c0 0.2794 0.4318 1.778 1.2954 4.4704s1.4986 4.5466 1.9304 5.588c0.508 1.2954 1.143 3.1242 1.9558 5.4356 0.762 2.3114 1.2446 3.81 1.3716 4.4958 0.1524 0.7366 0.3302 1.27 0.508 1.5494z" stroke-width=".26458"/>
  </g>
 </g>
</svg>
