<svg width="27.502mm" height="31.312mm" version="1.1" viewBox="0 0 27.502 31.312" xmlns="http://www.w3.org/2000/svg">
 <g transform="translate(1235.3 -50.718)">
  <g stroke-width=".26458" style="font-feature-settings:normal;font-variant-caps:normal;font-variant-ligatures:normal;font-variant-numeric:normal" aria-label="î©">
   <path d="m-1219.4 71.53c-0.889 0.4318-1.7526 0.6858-2.5654 0.7874-0.8382 0.127-1.6002 0.0762-2.2606-0.127s-1.2446-0.5334-1.7526-0.9906-0.889-1.0414-1.1684-1.778-0.4064-1.5494-0.4064-2.4638c0-0.889 0.127-1.6256 0.381-2.159 0.2286-0.4826 0.889-1.2446 1.9558-2.286 1.0668-1.016 1.778-1.5494 2.1336-1.6256 0.3302-0.0762 0.8636-0.2032 1.5748-0.4064 0.7112-0.1778 1.2954-0.2286 1.7018-0.1524 0.7874 0.1778 1.524 0.5842 2.2098 1.1684 0.6604 0.6096 1.2192 1.3716 1.6256 2.2606 0.2032 0.4318 0.3048 0.8128 0.3556 1.0922 0.051 0.2794 0.051 0.7366 0.025 1.3716-0.076 1.2954-0.4064 2.3622-0.9906 3.1496-0.5842 0.8128-1.524 1.524-2.8194 2.159zm-3.4798 4.9022c0.2794 0.3302 0.5334 0.4064 0.7874 0.2032 0.2286-0.1778 0.3556-0.5588 0.3556-1.1176 0-0.6858 0.076-1.1684 0.254-1.4732 0.1778-0.3048 0.4826-0.5334 0.9398-0.6604 0.508-0.1524 1.27-0.4572 2.286-0.9398 1.1176-0.5334 2.0066-1.1938 2.667-2.0066 0.6604-0.8382 1.0922-1.778 1.27-2.8194 0.051-0.4064 0.1778-0.6858 0.3556-0.8128s0.5334-0.2032 1.0668-0.2032c0.4064 0 0.6858-0.0508 0.8636-0.1524 0.1524-0.1016 0.254-0.2794 0.254-0.508 0-0.5588-0.4826-0.8382-1.4478-0.8382-0.3556 0-0.6096-0.0762-0.7366-0.2032-0.127-0.1524-0.381-0.635-0.762-1.4478-0.2286-0.4318-0.4826-0.889-0.762-1.3462-0.2794-0.4826-0.508-0.8128-0.6858-1.0414-0.3048-0.3556-0.8382-0.7366-1.5494-1.1938-0.7112-0.4064-1.524-0.8128-2.3876-1.143l-0.5334-0.2032 0.1016-1.2954c0.051-0.4064 0.051-0.7112 0.051-0.9144-0.025-0.2032-0.051-0.3302-0.1016-0.4064-0.051-0.0762-0.1524-0.127-0.3048-0.2032-0.3556-0.1778-0.6096-0.127-0.7366 0.1016-0.1524 0.2286-0.2286 0.7874-0.2794 1.651l-0.1016 1.524-1.397 0.7874c-0.9144 0.5334-1.905 1.27-2.921 2.2352-1.0414 0.9398-1.7018 1.7272-1.9812 2.3114s-0.4318 0.9144-0.4826 0.9906c-0.051 0.0508-0.4572 0.1016-1.2192 0.1778-0.5842 0.0254-0.9398 0.0762-1.0414 0.1524s-0.1778 0.2286-0.2032 0.4826c-0.051 0.381 0 0.635 0.2032 0.762 0.1778 0.127 0.5588 0.2032 1.1176 0.2032h0.9652l0.2286 1.1684c0.1524 0.8128 0.381 1.4732 0.635 1.9304 0.254 0.508 0.6858 1.0668 1.2954 1.7018 0.4318 0.4826 0.7874 0.8382 1.0414 0.9906 0.254 0.2032 0.6858 0.3556 1.2954 0.5334l1.3462 0.381v1.1684c0 0.7874 0.076 1.27 0.254 1.4732z" stroke-width=".26458"/>
  </g>
 </g>
</svg>
