<svg width="27.502mm" height="31.312mm" version="1.1" viewBox="0 0 27.502 31.312" xmlns="http://www.w3.org/2000/svg">
 <g transform="translate(1235.3 -50.718)">
  <g stroke-width=".26458" style="font-feature-settings:normal;font-variant-caps:normal;font-variant-ligatures:normal;font-variant-numeric:normal" aria-label="îª">
   <path d="m-1228.1 71.581h-0.025c0.1778 0.1524 0.3302 0.2286 0.4318 0.2286s0.2286-0.0762 0.3556-0.2286 0.076-0.5588-0.1016-1.1938c-0.1778-0.635-0.254-1.8542-0.2286-3.6576l0.076-2.6924 3.556 0.0762c2.3622 0.0508 4.2672 0.1016 5.6896 0.1778l2.159 0.127 0.025 2.9464c0 1.3462 0.025 2.1844 0.076 2.5654 0.025 0.3556 0.1524 0.6604 0.3302 0.889 0.1016 0.1524 0.2286 0.2794 0.381 0.381 0.1524 0.127 0.2794 0.1778 0.381 0.2032 0.1524 0.0254 0.254 0.0254 0.2794-0.0508 0.076-0.127 0.076-0.8128 0.025-2.032-0.076-1.397-0.051-2.5908 0.025-3.5306l0.127-1.4224 2.032-0.127c0.381-0.0254 0.7112-0.0508 0.9652-0.1016 0.254 0 0.4826-0.0508 0.6858-0.1016 0.2032-0.0254 0.3556-0.0762 0.4572-0.1016 0.076-0.0508 0.1524-0.1016 0.2032-0.2032 0.051-0.0508 0.076-0.1524 0.076-0.2286-0.025-0.0762-0.051-0.2032-0.1016-0.3302l-0.1778-0.4572h-11.074c-4.2926 0-7.2136 0.0254-8.7884 0.0508-1.6002 0.0254-2.4384 0.1016-2.5146 0.1778-0.1524 0.1524-0.1778 0.4064-0.051 0.762 0.076 0.1524 0.127 0.254 0.1524 0.3302 0.025 0.0762 0.1524 0.1016 0.3302 0.1524h0.635c0.2286-0.0508 0.635-0.0762 1.2192-0.127l1.2446-0.127 0.1016 2.9718c0.051 1.524 0.1524 2.6162 0.3048 3.2766 0.127 0.6604 0.381 1.1176 0.7366 1.397z" stroke-width=".26458"/>
  </g>
 </g>
</svg>
