<svg width="27.502mm" height="31.312mm" version="1.1" viewBox="0 0 27.502 31.312" xmlns="http://www.w3.org/2000/svg">
 <g transform="translate(1235.3 -50.718)">
  <g stroke-width=".26458" style="font-feature-settings:normal;font-variant-caps:normal;font-variant-ligatures:normal;font-variant-numeric:normal" aria-label="î«">
   <path d="m-1218.3 66.882c0.1016 0.0762 0.3048 0.1016 0.6096 0.0762 0.2794-0.0254 0.5334-0.254 0.7366-0.635 0.2286-0.381 0.5334-1.143 0.9144-2.2606 0.1524-0.381 0.3048-0.7366 0.4318-0.9906 0.127-0.3048 0.2286-0.4318 0.2794-0.4318 0.051 0 0.1524 0.127 0.3048 0.381s0.3302 0.5588 0.4826 0.9144c0.6096 1.2446 1.016 2.0574 1.2192 2.4384 0.2286 0.381 0.4318 0.5842 0.5842 0.6096 0.2032 0.0254 0.381-0.0254 0.508-0.2032 0.127-0.1524 0.1778-0.381 0.1778-0.6858 0-0.4318-0.3048-1.3208-0.9398-2.7178-0.6096-1.3716-1.1176-2.2352-1.4732-2.6162-0.7366-0.762-1.2954-1.0668-1.6764-0.9398-0.051 0.0254-0.1524 0.2032-0.3048 0.5334-0.127 0.3302-0.254 0.7366-0.4064 1.1684-0.3302 1.0922-0.6858 2.0574-1.0414 2.8448-0.254 0.5588-0.4318 1.0922-0.508 1.5494-0.076 0.508-0.051 0.8128 0.1016 0.9652zm-12.522-0.254c0.1524 0.2794 0.3048 0.4064 0.4826 0.4064 0.4572-0.0254 1.1684-1.0414 2.1082-3.0226 0.7112-1.4478 1.0668-2.1844 1.0922-2.2352 0.025-0.0254 0.051-0.0508 0.076-0.0508 0.254-0.0254 0.6604 0.7112 1.2192 2.1844 0.381 0.9398 0.7112 1.6002 1.016 2.0066 0.3048 0.3556 0.6096 0.5334 0.9652 0.4826 0.2794-0.0254 0.4572-0.1778 0.508-0.4826 0.051-0.254 0-0.5588-0.2032-0.8636-0.1524-0.2794-0.4826-0.9906-0.9398-2.1844-0.3556-0.9906-0.7366-1.7526-1.143-2.286-0.381-0.5334-0.7874-0.9144-1.2446-1.0922-0.254-0.1016-0.4572-0.1524-0.5588-0.127s-0.2286 0.1016-0.381 0.254c-0.076 0.0762-0.2286 0.3556-0.4826 0.8636-0.254 0.4572-0.4826 0.9906-0.7366 1.5494-0.5842 1.3716-1.0668 2.3368-1.4224 2.921-0.3048 0.4826-0.4572 0.8128-0.508 0.9906-0.025 0.1778 0.025 0.4064 0.1524 0.6858zm9.2964 5.7658c0.2032 0.2794 0.4318 0.4064 0.7366 0.4318 0.3048 0 0.5334-0.127 0.6604-0.381 0.1524-0.254 0.2032-0.5842 0.1778-1.0414 0-0.4064-0.1016-0.762-0.2794-0.9906-0.1778-0.254-0.4318-0.381-0.7366-0.381-0.3048-0.0254-0.508 0.1016-0.6604 0.3302-0.127 0.2794-0.1778 0.6096-0.1778 1.0414 0.025 0.4318 0.127 0.762 0.2794 0.9906z" stroke-width=".26458"/>
  </g>
 </g>
</svg>
