<svg width="27.502mm" height="31.312mm" version="1.1" viewBox="0 0 27.502 31.312" xmlns="http://www.w3.org/2000/svg">
 <g transform="translate(1235.3 -50.718)">
  <g stroke-width=".26458" style="font-feature-settings:normal;font-variant-caps:normal;font-variant-ligatures:normal;font-variant-numeric:normal" aria-label="î¬">
   <path d="m-1227.8 70.362c0.2286 0.2794 0.508 0.381 0.8382 0.3048 0.4064-0.1016 1.2446-0.4572 2.4892-1.0922 1.2446-0.635 1.905-1.016 1.9558-1.143 0.051-0.2032 0-0.4318-0.1524-0.6858s-0.3556-0.4064-0.6096-0.4826c-0.3048-0.0762-0.8382 0.0508-1.6002 0.381-0.3048 0.1524-0.5842 0.254-0.8382 0.3556-0.254 0.0508-0.4064 0.0762-0.4318 0.0508-0.1524-0.127 0.025-0.5842 0.508-1.3208 0.4572-0.7366 0.9652-1.3462 1.4732-1.8034 0.6604-0.6096 1.27-1.0414 1.8288-1.2954 0.5334-0.254 1.0922-0.381 1.651-0.381 1.1176 0 2.1082 0.4318 2.9972 1.27 0.4064 0.4064 0.7366 0.8382 0.9906 1.2954 0.2286 0.4318 0.4572 1.0668 0.7112 1.8796 0.1778 0.635 0.381 1.0922 0.6096 1.3716s0.4572 0.381 0.7112 0.3048c0.4064-0.1778 0.3302-1.016-0.1778-2.5654-0.4572-1.3462-1.0922-2.413-1.8542-3.2766-0.762-0.8128-1.6764-1.397-2.6924-1.7018-2.2098-0.635-4.318 0.0762-6.3246 2.159-0.8636 0.889-1.2954 1.3208-1.3208 1.3208-0.051 0-0.1016-0.1778-0.1778-0.5334-0.076-0.3556-0.2286-0.635-0.4318-0.8382-0.2032-0.2286-0.4318-0.3048-0.6858-0.2794s-0.381 0.2794-0.381 0.7366c0 0.4318 0.1016 1.5494 0.3048 3.302 0.1016 0.8636 0.1778 1.4732 0.2794 1.8796 0.076 0.3556 0.1778 0.635 0.3302 0.7874z" stroke-width=".26458"/>
  </g>
 </g>
</svg>
