<svg width="27.502mm" height="31.312mm" version="1.1" viewBox="0 0 27.502 31.312" xmlns="http://www.w3.org/2000/svg">
 <g transform="translate(1235.3 -50.718)">
  <g stroke-width=".26458" style="font-feature-settings:normal;font-variant-caps:normal;font-variant-ligatures:normal;font-variant-numeric:normal" aria-label="î­">
   <path d="m-1219.9 76.001c0.3048 0.1778 0.5588 0.2286 0.8128 0.1778 0.254-0.0762 0.4064-0.2286 0.508-0.4826 0.127-0.3048 0.2032-2.7432 0.2032-7.2898 0-4.572-0.051-7.7216-0.1778-9.4488-0.025-0.4826-0.051-0.8636-0.076-1.143 0-0.2794-0.025-0.5334-0.076-0.762s-0.076-0.4064-0.127-0.508-0.1016-0.1778-0.2032-0.2794c-0.076-0.0508-0.1524-0.1016-0.254-0.127-0.076-0.0254-0.2032-0.0254-0.3556-0.0254h-0.4318v7.0104c0 0.508 0 0.9398-0.051 1.3208-0.025 0.3556-0.051 0.5588-0.1016 0.6604-0.051 0.0508-0.1016 0.127-0.2032 0.1778-0.2032 0.127-0.9144 0.2794-2.1336 0.381-1.2192 0.1524-1.8796 0.2286-2.0066 0.3048-0.1524 0.0762-0.2032 0.3048-0.1778 0.7112 0.051 0.3556 0.1524 0.6604 0.3302 0.889 0.127 0.127 0.2286 0.2286 0.3302 0.2794 0.1016 0.0254 0.254 0.0508 0.4318 0.0508 0.1778-0.0254 0.508-0.0508 1.016-0.127 0.9652-0.127 1.6002-0.2032 1.905-0.2032h0.4572l0.051 4.1148c0.025 1.7018 0.051 2.8448 0.1016 3.3782 0.051 0.5588 0.127 0.8636 0.2286 0.9398z" stroke-width=".26458"/>
  </g>
 </g>
</svg>
