<svg width="27.502mm" height="31.312mm" version="1.1" viewBox="0 0 27.502 31.312" xmlns="http://www.w3.org/2000/svg">
 <g transform="translate(1235.3 -50.718)">
  <g stroke-width=".26458" style="font-feature-settings:normal;font-variant-caps:normal;font-variant-ligatures:normal;font-variant-numeric:normal" aria-label="î®">
   <path d="m-1225.3 74.197c0.8636 0.2286 1.524 0.2286 1.9812 0.0254 0.4826-0.2032 0.6858-0.5842 0.635-1.1176l-0.051-0.5842h-1.4986c-0.6604 0-1.1684-0.0508-1.4986-0.1016-0.3302-0.1016-0.8128-0.2794-1.4732-0.5842-0.9652-0.4826-1.4478-0.8128-1.4478-1.016 0-0.1524 0.2286-0.5334 0.7112-1.1938 0.4572-0.6096 1.2954-1.7018 2.4892-3.2004 0.9652-1.1938 1.905-2.54 2.8702-3.9878 0.381-0.6096 0.7366-1.143 1.0414-1.5494 0.3302-0.4572 0.508-0.6604 0.5588-0.6604 0.2032 0 0.381 0.7112 0.5588 2.1336 0.1524 1.4478 0.2794 3.4036 0.3302 5.8928 0.025 0.2032 0.025 0.4826 0.025 0.8382 0.025 0.6858 0.025 1.1684 0.051 1.4478 0 0.2794 0.025 0.635 0.076 1.0668 0.025 0.4064 0.076 0.6604 0.1016 0.8128 0.025 0.1016 0.1016 0.2794 0.2286 0.4826 0.1524 0.2032 0.254 0.3302 0.3302 0.3302 0.076 0.0508 0.2286 0.0762 0.508 0.1524 0.254 0.0762 0.4826 0.1016 0.6604 0.1016 0.1778 0.0254 0.4826 0.0254 0.889 0.0254h0.5334c2.0066 0.0508 3.3274-0.0254 3.9624-0.2032 0.6604-0.2032 0.7366-0.5842 0.2032-1.1684-0.1524-0.1778-0.3048-0.2794-0.4572-0.3302-0.1778-0.0508-0.4064-0.0762-0.7366-0.1016-0.3048-0.0254-0.9398-0.0254-1.8542-0.0254-1.7272-0.0254-2.5908-0.0762-2.5908-0.1524 0-0.8382-0.076-2.413-0.254-4.6736-0.1524-2.2606-0.3048-3.81-0.4064-4.6482-0.1016-0.9398-0.2286-1.6256-0.3302-2.0828-0.127-0.4572-0.254-0.8128-0.4318-1.0668-0.1778-0.2794-0.4318-0.5334-0.7874-0.762-0.3048-0.2286-0.5334-0.3556-0.6858-0.4064-0.1524-0.0254-0.3048 0-0.4572 0.0762-0.076 0.0762-0.3556 0.381-0.7874 0.9652-0.4572 0.5842-0.9398 1.2446-1.4478 2.0066s-1.1938 1.7272-2.0574 2.8956c-0.889 1.143-1.6764 2.159-2.3622 3.048-0.7112 0.8636-1.3208 1.651-1.8542 2.3622-0.508 0.7112-0.7874 1.1176-0.8128 1.2446-0.051 0.2794-0.025 0.5334 0.1016 0.7874 0.2286 0.4318 0.9398 0.9398 2.1082 1.6002 1.1938 0.6096 2.3114 1.0668 3.3274 1.3208z" stroke-width=".26458"/>
  </g>
 </g>
</svg>
