<svg width="27.502mm" height="31.312mm" version="1.1" viewBox="0 0 27.502 31.312" xmlns="http://www.w3.org/2000/svg">
 <g transform="translate(1235.3 -50.718)">
  <g stroke-width=".26458" style="font-feature-settings:normal;font-variant-caps:normal;font-variant-ligatures:normal;font-variant-numeric:normal" aria-label="î¯">
   <path d="m-1230 64.367c0.1778 0.1016 0.3048 0.1524 0.4064 0.1778 0.076 0 0.2032-0.0508 0.3048-0.1524 0.127-0.1016 0.254-0.254 0.3556-0.4572 0.127-0.1778 0.3048-0.4826 0.508-0.889 0.8128-1.5494 1.6764-2.667 2.6416-3.429 0.9398-0.7112 1.8796-0.9906 2.794-0.8128 0.9144 0.2032 1.7272 0.8636 2.4384 1.9812 0.4572 0.7112 0.9652 1.397 1.5748 2.0574 0.5842 0.6604 1.0668 1.0922 1.4224 1.27 0.762 0.381 1.5494 0.3048 2.3368-0.2286 0.8128-0.5588 1.5748-1.5494 2.3114-2.9464 0.3048-0.5588 0.4318-0.9906 0.4318-1.3208s-0.1524-0.5842-0.4572-0.762c-0.2286-0.127-0.4572-0.127-0.6858 0.0508-0.2032 0.1524-0.4826 0.508-0.8128 1.0668-0.4064 0.7366-0.8128 1.2954-1.2192 1.7272-0.4318 0.4064-0.7874 0.6096-1.143 0.6096-0.6096 0-1.397-0.762-2.3622-2.2606-0.4064-0.635-0.9398-1.27-1.5748-1.8542-0.6604-0.6096-1.2192-0.9906-1.6764-1.143-0.7112-0.2286-1.524-0.2286-2.4384 0.0254s-1.6764 0.6858-2.286 1.3208c-0.508 0.5334-1.1938 1.4732-1.9812 2.8194-0.8128 1.3462-1.2192 2.2098-1.2192 2.5654 0 0.1016 0.051 0.2032 0.1016 0.3302 0.076 0.127 0.1524 0.2032 0.2286 0.254zm11.481 10.947c0.2032 0.0762 0.508 0.1016 0.9398 0.0254 0.2794-0.0254 0.5588-0.1778 0.889-0.4318 0.3048-0.254 0.8382-0.7874 1.6002-1.5748s1.2446-1.3208 1.4732-1.651c0.254-0.3302 0.3556-0.6096 0.3556-0.8382 0-0.3302-0.076-0.6096-0.2032-0.762-0.1524-0.2032-0.3556-0.2794-0.6096-0.2794-0.1016 0-0.3556 0.1778-0.7366 0.5334-0.4064 0.3302-0.8382 0.762-1.3462 1.27-1.1684 1.1938-1.8796 1.778-2.1336 1.778-0.2032 0-0.508-0.1778-0.889-0.5334s-0.9906-1.0414-1.8034-2.032c-0.9398-1.143-1.8034-1.8542-2.5908-2.1336s-1.7272-0.2286-2.8194 0.1778c-0.5334 0.2032-1.0922 0.5334-1.6764 0.9652-0.9398 0.7366-1.651 1.5494-2.1082 2.4384-0.4572 0.8636-0.4318 1.4224 0.025 1.6764 0.3048 0.1524 0.508 0.1778 0.6604 0.1016 0.1524-0.1016 0.4064-0.4064 0.7366-0.9398 0.3048-0.4826 0.7112-0.9144 1.1938-1.3462 0.4826-0.4064 0.9652-0.7112 1.4478-0.9652 0.508-0.2032 0.9906-0.3556 1.4732-0.4318 0.508-0.0762 0.9144 0 1.2446 0.2032 0.1016 0.0508 0.3048 0.254 0.635 0.6096s0.6604 0.762 1.016 1.2192c0.5842 0.7366 1.1684 1.3462 1.7526 1.8796s1.0668 0.8636 1.4732 1.0414z" stroke-width=".26458"/>
  </g>
 </g>
</svg>
