<svg width="27.502mm" height="31.312mm" version="1.1" viewBox="0 0 27.502 31.312" xmlns="http://www.w3.org/2000/svg">
 <g transform="translate(1235.3 -50.718)">
  <g stroke-width=".26458" style="font-feature-settings:normal;font-variant-caps:normal;font-variant-ligatures:normal;font-variant-numeric:normal" aria-label="î°">
   <path d="m-1222.7 67.288c0.076 0.127 0.127 0.2032 0.1778 0.254 0.051 0.0254 0.1016 0.0762 0.1778 0.1016 0.051 0.0508 0.1524 0.0762 0.3048 0.0762 0.127 0 0.2794 0 0.4064-0.0254 0.1524 0 0.4064-0.0254 0.762-0.0508 1.5748-0.127 2.3622-0.4318 2.3622-0.9398 0-0.2032-0.1778-0.4318-0.5588-0.6858-0.381-0.2286-0.7366-0.3556-1.0668-0.3556h-0.635v-2.7686c0-1.8288-0.051-2.8194-0.1524-2.9464-0.076-0.127-0.2286-0.2794-0.508-0.4318s-0.4826-0.2286-0.6096-0.2286c-0.381 0-0.5842 1.0668-0.5842 3.175 0 1.4732-0.076 2.5654-0.2032 3.2766-0.076 0.4572-0.127 0.7874-0.1016 0.9398 0.025 0.2032 0.1016 0.381 0.2286 0.6096zm5.3594 7.1628c-0.6604 0.3302-1.143 0.508-1.4986 0.6096-0.3048 0.0508-0.9144 0.1016-1.8034 0.127-0.7874 0.0254-1.397 0-1.8034-0.0254-0.381-0.0508-0.8636-0.1778-1.4478-0.3556-0.8636-0.2794-1.6002-0.6096-2.1844-0.9652s-1.2192-0.8382-1.8796-1.4224c-1.0668-0.9906-1.8288-2.0828-2.3114-3.302-0.4826-1.2446-0.6096-2.5146-0.4318-3.81 0.2286-1.4986 0.7366-2.8448 1.5748-4.0894s1.8796-2.2352 3.1496-2.9718c1.27-0.762 2.6416-1.1938 4.0894-1.3208 1.5494-0.127 2.8702 0.0508 3.9624 0.4826s2.0574 1.2192 2.8956 2.3368c0.9652 1.27 1.7272 2.667 2.2352 4.191 0.5588 1.4986 0.7366 2.8194 0.6096 3.937-0.127 1.143-0.7112 2.3622-1.7272 3.683-1.0414 1.2954-2.1844 2.2606-3.429 2.8956zm-5.9436 2.0066c1.8542 0.381 3.5814 0.3556 5.207-0.0762 1.5748-0.4318 2.9718-1.2192 4.1148-2.3876 1.5494-1.5494 2.54-3.0988 2.9972-4.572 0.4318-1.524 0.4064-3.1496-0.127-4.953-0.5588-1.905-1.4478-3.6576-2.6162-5.2578-1.2192-1.6002-2.3876-2.6416-3.5814-3.0988-0.4826-0.1778-0.9398-0.3048-1.4224-0.381s-1.2446-0.127-2.3368-0.1524l-2.6416-0.0762-1.8542 0.889c-1.2192 0.5588-2.0828 1.016-2.5908 1.397-0.5334 0.381-1.0922 0.9398-1.7018 1.6764-0.8636 1.0922-1.4986 2.1844-1.9304 3.2766s-0.635 2.2606-0.635 3.4798c0 1.3716 0.254 2.5908 0.7112 3.6576 0.508 1.0668 1.2954 2.1336 2.3876 3.2258 1.8034 1.8034 3.81 2.921 6.0198 3.3528z" stroke-width=".26458"/>
  </g>
 </g>
</svg>
