<svg width="27.502mm" height="31.312mm" version="1.1" viewBox="0 0 27.502 31.312" xmlns="http://www.w3.org/2000/svg">
 <g transform="translate(1235.3 -50.718)">
  <g stroke-width=".26458" style="font-feature-settings:normal;font-variant-caps:normal;font-variant-ligatures:normal;font-variant-numeric:normal" aria-label="î±">
   <path d="m-1221.2 58.83c0.3048 0.127 0.5334 0.0762 0.635-0.1778 0.1016-0.2032 0.1524-0.762 0.1524-1.651-0.025-1.0414-0.076-1.7526-0.1778-2.1082-0.1016-0.381-0.2794-0.5842-0.5842-0.6604-0.381-0.1016-0.635-0.0508-0.7366 0.2032-0.127 0.2032-0.1778 0.7112-0.127 1.4478 0.051 1.778 0.3302 2.7686 0.8382 2.9464zm-5.207 0.4064c0.3556 0.2286 0.6096 0.3048 0.7366 0.2794 0.1016-0.0254 0.1778-0.1016 0.2032-0.2032 0.025-0.0762 0-0.2032-0.051-0.4064-0.076-0.1524-0.1778-0.381-0.3302-0.635s-0.3556-0.5588-0.6096-0.9398c-0.4826-0.6858-0.8128-1.1176-1.016-1.3208s-0.4318-0.3048-0.6858-0.3302c-0.2794-0.0254-0.4572-0.0254-0.508 0.0254-0.051 0.0762-0.076 0.254-0.076 0.5588 0 0.254 0.051 0.508 0.1778 0.7112 0.1016 0.254 0.3556 0.5588 0.7112 0.9398 0.2286 0.2794 0.4826 0.5334 0.7874 0.7874 0.2794 0.254 0.508 0.4318 0.6604 0.5334zm9.5758 0.0762c0.2032 0.3302 0.4318 0.4826 0.635 0.4064s0.508-0.381 0.9144-0.9144c0.4572-0.6604 0.9144-1.2954 1.397-1.9304 0.4572-0.635 0.7112-1.016 0.7112-1.1684 0-0.127-0.1524-0.381-0.4318-0.7112-0.2032-0.2286-0.3556-0.3302-0.4318-0.3556-0.076-0.0254-0.2032 0.0508-0.4064 0.1778-0.254 0.1778-0.6096 0.6096-1.0922 1.2954s-0.889 1.3462-1.1938 1.9558c-0.2032 0.381-0.3048 0.635-0.3048 0.7366 0 0.1524 0.051 0.3048 0.2032 0.508zm-3.8354 16.358c-0.6604 0.2286-1.397 0.4064-2.159 0.4572-0.762 0.1016-1.3462 0.0508-1.7018-0.0762-0.4572-0.1778-0.9398-0.4572-1.4478-0.8382s-0.889-0.7874-1.143-1.1684c-0.3556-0.4826-0.6604-1.143-0.889-1.9304-0.254-0.7874-0.3556-1.524-0.3556-2.1844 0-0.9906 0.3302-2.032 1.0414-3.0988 0.7112-1.0922 1.6256-2.0066 2.794-2.7432 0.8128-0.5334 1.4732-0.8382 1.9812-0.9652 0.4826-0.127 0.9906-0.0762 1.5494 0.1016 0.508 0.1778 1.2954 0.381 2.3368 0.6096 0.7112 0.127 1.1684 0.254 1.4224 0.4064 0.2286 0.1016 0.508 0.3556 0.8636 0.7112 0.3048 0.3302 0.508 0.6096 0.6096 0.8382s0.2032 0.5842 0.254 1.016c0.1778 1.397 0.051 2.6416-0.3556 3.683-0.4064 1.0668-1.1938 2.1844-2.3622 3.3782-0.5588 0.5334-0.9906 0.9398-1.3462 1.1938s-0.7112 0.4572-1.0922 0.6096zm-4.8514 1.4732c0.4318 0.2032 0.7874 0.3302 1.0922 0.3556 0.3048 0.0508 0.8382 0.0508 1.6002 0.0254 1.4478-0.0762 2.7178-0.4064 3.8354-0.9906 1.1176-0.6096 2.1082-1.524 3.0226-2.7178 0.6604-0.9144 1.143-1.7526 1.4478-2.5146s0.4826-1.6002 0.5588-2.54c0.051-0.9398-0.025-1.778-0.1778-2.4384-0.1524-0.7112-0.4318-1.3208-0.8382-1.8796-0.508-0.6858-0.9906-1.1938-1.4732-1.4732-0.4826-0.3048-1.2446-0.6096-2.2606-0.889-1.397-0.381-2.4638-0.5334-3.175-0.5334-0.7366 0.0508-1.5494 0.2794-2.4638 0.7366-0.889 0.4318-1.8034 1.0922-2.7686 2.0066s-1.651 1.7526-2.0574 2.54c-0.4318 0.8128-0.6604 1.7272-0.6604 2.7686 0 1.0414 0.1524 2.032 0.508 2.9718 0.3556 0.9652 0.8636 1.8796 1.524 2.6924 0.6604 0.8636 1.4224 1.4732 2.286 1.8796z" stroke-width=".26458"/>
  </g>
 </g>
</svg>
