<svg width="27.502mm" height="31.312mm" version="1.1" viewBox="0 0 27.502 31.312" xmlns="http://www.w3.org/2000/svg">
 <g transform="translate(1235.3 -50.718)">
  <g stroke-width=".26458" style="font-feature-settings:normal;font-variant-caps:normal;font-variant-ligatures:normal;font-variant-numeric:normal" aria-label="î½">
   <path d="m-1217 68.177c-0.1778 0-0.3556 0.1016-0.5334 0.3048-0.076 0.127-0.1778 0.3302-0.3048 0.6096s-0.2286 0.5842-0.3302 0.8636c-0.2032 0.6604-0.5588 1.27-1.0922 1.8034-0.5334 0.5588-1.1176 0.9652-1.7272 1.1684-0.6096 0.254-1.143 0.254-1.6002 0.0254s-0.9144-0.635-1.4224-1.1938c-0.4826-0.5842-0.9144-1.2192-1.27-1.9304-0.025-0.0762-0.076-0.1524-0.127-0.2286-0.3302-0.5588-0.6858-0.8382-1.0414-0.8636-0.3048 0-0.508 0.2286-0.5842 0.6604-0.051 0.254 0.076 0.6604 0.381 1.2446 0.3048 0.5842 0.7112 1.1684 1.1938 1.7272 0.508 0.6096 0.9652 1.0414 1.3716 1.3462 0.6604 0.4826 1.397 0.7366 2.159 0.7874 0.762 0.0254 1.4986-0.1016 2.1844-0.4572 0.7112-0.3048 1.3462-0.8128 1.9558-1.524 0.6096-0.6604 1.0668-1.4986 1.4224-2.4384 0.127-0.3302 0.1778-0.6604 0.127-0.9144-0.025-0.3048-0.127-0.5334-0.2794-0.7112s-0.3048-0.2794-0.4826-0.2794zm-3.7592-5.334c0.9398 0 1.8288 0.127 2.6416 0.3556 0.7366 0.2032 1.524 0.6858 2.3622 1.4224 0.8636 0.7366 1.4732 1.4986 1.8796 2.2606 0.381 0.7366 0.5842 1.7272 0.6096 2.9718 0.025 1.2446-0.1524 2.1844-0.508 2.8448-0.3302 0.6858-0.889 1.4224-1.651 2.2352s-1.397 1.3462-1.9304 1.6256c-1.3716 0.7112-2.7686 1.143-4.1402 1.2954-1.3716 0.127-2.6162 0-3.7846-0.4572-1.143-0.4064-2.0828-1.1176-2.8448-2.1082-0.6096-0.8128-1.016-1.6002-1.2446-2.3622-0.2032-0.7366-0.3302-1.7526-0.3302-3.0226 0.025-1.1684 0.2032-2.1082 0.5588-2.794s0.9906-1.397 1.9558-2.1336c0.889-0.6858 1.8796-1.2192 2.9972-1.6002 1.1176-0.3556 2.2606-0.5334 3.429-0.5334zm-0.5334-1.4224c-0.8128 0-1.7018 0.0762-2.6162 0.2032-0.762 0.127-1.651 0.4826-2.6924 1.0668s-1.9304 1.27-2.667 2.0066c-0.4826 0.508-0.8636 1.1176-1.1684 1.8796-0.3048 0.7112-0.4826 1.4986-0.5588 2.3368-0.051 0.8128-0.025 1.651 0.076 2.54 0.127 0.889 0.3302 1.7018 0.6096 2.4892 0.3048 0.7874 0.6858 1.4986 1.1684 2.1844 0.4826 0.6604 1.016 1.1684 1.6256 1.5494 0.9652 0.635 1.8796 1.0414 2.7178 1.1938 0.8636 0.2032 1.9812 0.2286 3.4036 0.1524 1.9304-0.1016 3.556-0.5842 4.9276-1.4478s2.54-2.1336 3.5052-3.8354c0.8128-1.397 1.0922-2.9972 0.7874-4.8006-0.2794-1.8034-1.0668-3.429-2.3368-4.9276-0.7366-0.8382-1.6764-1.4732-2.8448-1.905-1.143-0.4572-2.4638-0.6858-3.937-0.6858zm-8.5852-6.5278c-0.1524 0-0.3302 0.0508-0.4826 0.1016-0.1524 0.1016-0.2286 0.1778-0.2794 0.2794-0.076 0.2286 0.051 0.7366 0.3556 1.524 0.3048 0.7874 0.6858 1.5494 1.0922 2.2098 0.4064 0.7112 0.7112 1.016 0.8636 0.9906 0.254-0.0254 0.381-0.2286 0.4318-0.5842 0.051-0.381 0-0.8128-0.1016-1.3208-0.1016-0.4826-0.254-0.9652-0.4572-1.4732-0.2032-0.4572-0.4318-0.889-0.6858-1.2192s-0.4826-0.508-0.7366-0.508zm15.596-0.3556c-0.2286 0-0.4826 0.127-0.7366 0.381s-0.508 0.6096-0.7112 1.0414c-0.4064 0.889-0.635 1.651-0.6858 2.3368-0.051 0.6604 0.076 1.0414 0.4064 1.1176 0.1778 0.0254 0.4826-0.254 0.889-0.9144 0.4064-0.6096 0.762-1.3208 1.0668-2.0574s0.4318-1.2192 0.3302-1.4478c-0.1016-0.3048-0.2794-0.4572-0.5588-0.4572zm-7.5692-0.8636c-0.1524 0-0.3302 0.127-0.5842 0.3556-0.127 0.127-0.2286 0.5334-0.3048 1.1684-0.051 0.6604-0.076 1.3208-0.025 2.032 0.051 0.6604 0.127 1.1176 0.2286 1.3208 0.1016 0.1016 0.2032 0.1778 0.3556 0.2286s0.3048 0.0508 0.4318 0c0.2032-0.0762 0.3302-0.2794 0.381-0.5842 0.076-0.3048 0.1016-0.8382 0.1016-1.6002 0-1.016-0.025-1.7526-0.127-2.2098-0.1016-0.4826-0.254-0.7112-0.4572-0.7112z" stroke-width=".26458"/>
  </g>
 </g>
</svg>
