<svg width="27.502mm" height="31.312mm" version="1.1" viewBox="0 0 27.502 31.312" xmlns="http://www.w3.org/2000/svg">
 <g transform="translate(1235.3 -50.718)">
  <g stroke-width=".26458" style="font-feature-settings:normal;font-variant-caps:normal;font-variant-ligatures:normal;font-variant-numeric:normal" aria-label="î²">
   <path d="m-1214.9 74.299c-0.254 0.0508-0.4572 0.0762-0.6858 0.0762-0.2032 0-0.7112-0.0508-1.4986-0.1778-0.8128-0.127-2.7432-0.127-5.842-0.0508l-4.6482 0.1016-0.076-0.4318c-0.076-0.2794-0.1524-1.1176-0.2032-2.4892-0.076-1.3716-0.1524-2.4638-0.2032-3.302l-0.1016-1.2192 1.1684-1.397c0.6858-0.8128 1.4732-1.8288 2.3368-3.048 0.8636-1.2446 1.4986-2.2352 1.9304-2.9972 0.4064-0.7112 0.6858-1.143 0.889-1.27 0.1778-0.1524 0.381-0.127 0.6096 0.0762 0.2286 0.2286 0.6858 0.8636 1.3462 1.9558s1.6002 2.5146 2.8702 4.318c1.0668 1.4986 1.7526 2.5146 2.1082 2.9972 0.1524 0.2286 0.254 1.397 0.3048 3.5306 0.025 1.5748 0.025 2.5146 0 2.8194-0.025 0.2794-0.127 0.4572-0.3048 0.508zm0.076 1.7018c0.1778 0.0508 0.5334 0.0508 1.0414 0.0254l0.7366-0.0254-0.051-4.5974-0.076-4.5974-1.905-2.2606c-0.5334-0.635-1.0922-1.3716-1.7018-2.2098s-1.0922-1.5494-1.4224-2.1082c-1.016-1.7018-1.8288-2.8956-2.4892-3.6322-0.635-0.7366-1.1684-1.016-1.524-0.889-0.1016 0.0254-0.254 0.2286-0.4572 0.5588-0.2286 0.3556-0.4572 0.762-0.6858 1.2192-0.762 1.4732-1.6764 2.9464-2.7686 4.4196-1.1176 1.4986-2.1336 2.6416-3.048 3.4798-0.4572 0.381-0.7366 0.7366-0.8128 1.0414-0.076 0.2794-0.025 0.6858 0.1778 1.1684 0.127 0.3556 0.2794 1.4732 0.4572 3.3528 0.1524 1.8796 0.3302 3.0734 0.508 3.556 0.051 0.1778 0.127 0.3048 0.1524 0.4064 0.051 0.1016 0.127 0.2032 0.2286 0.3048 0.1016 0.127 0.1778 0.2032 0.2794 0.254 0.076 0.0508 0.2286 0.1016 0.4572 0.127 0.2032 0.0254 0.4318 0.0508 0.6096 0.0762h0.9144c0.4064 0 0.7874 0 1.1684-0.0254s0.9144-0.0508 1.5748-0.0762c1.6764-0.0762 2.8956-0.127 3.683-0.1016 0.762 0 1.6002 0.0508 2.5146 0.1778 1.4224 0.1778 2.2352 0.3048 2.4384 0.3556z" stroke-width=".26458"/>
  </g>
 </g>
</svg>
