<svg width="27.502mm" height="31.312mm" version="1.1" viewBox="0 0 27.502 31.312" xmlns="http://www.w3.org/2000/svg">
 <g transform="translate(1235.3 -50.718)">
  <g stroke-width=".26458" style="font-feature-settings:normal;font-variant-caps:normal;font-variant-ligatures:normal;font-variant-numeric:normal" aria-label="î³">
   <path d="m-1219.2 72.775c0.3048 0.3302 0.4826 0.4064 0.5842 0.2794 0.127-0.1778 0.1778-1.143 0.1524-2.8702-0.051-1.9558 0-4.2418 0.1524-6.9088 0.076-1.8542 0.127-2.9972 0.127-3.429s-0.076-0.7366-0.2286-0.9144c-0.2286-0.2286-0.4572-0.3302-0.6604-0.3302-0.2286-0.0254-0.381 0.0762-0.4572 0.2794-0.076 0.2032-0.1778 1.8288-0.3048 4.8768-0.254 5.3086-0.025 8.3312 0.635 9.017zm-4.5974 0.9652c0.2286 0.127 0.381 0.2032 0.4826 0.1524 0.076 0 0.1778-0.127 0.3048-0.3302 0.127-0.2286 0.076-0.6096-0.127-1.143-0.1524-0.3556-0.2032-0.762-0.2032-1.1938s0.051-1.524 0.2032-3.2512c0.3048-3.5814 0.4572-5.715 0.4826-6.4516 0-0.7366-0.1016-1.2192-0.3302-1.4478-0.127-0.127-0.254-0.2032-0.4064-0.2794-0.127-0.0762-0.254-0.1016-0.3302-0.0762-0.1524 0.0254-0.2286 0.2032-0.2794 0.4572-0.051 0.3048-0.1016 0.9144-0.1524 1.8542-0.1016 1.4986-0.254 3.3528-0.4572 5.5372-0.2032 2.032-0.2286 3.5052-0.1016 4.3942 0.1016 0.889 0.4064 1.4986 0.9144 1.778z" stroke-width=".26458"/>
  </g>
 </g>
</svg>
