<svg width="27.502mm" height="31.312mm" version="1.1" viewBox="0 0 27.502 31.312" xmlns="http://www.w3.org/2000/svg">
 <g transform="translate(1235.3 -50.718)">
  <g stroke-width=".26458" style="font-feature-settings:normal;font-variant-caps:normal;font-variant-ligatures:normal;font-variant-numeric:normal" aria-label="î´">
   <path d="m-1217 63.936c-0.4572 0.5842-0.7112 0.889-0.762 0.889-0.076 0-0.3048-0.8636-0.7112-2.5908s-0.7874-2.8194-1.0922-3.2766c-0.3048-0.4318-0.4572-0.7874-0.4572-1.016s0.3048-0.6604 0.9398-1.2446 1.1684-0.9906 1.6256-1.1684c0.1778-0.0762 0.4318-0.1524 0.7874-0.2286 0.3302-0.0508 0.635-0.0762 0.9398-0.0762 0.4572 0 0.7874 0.0254 0.9652 0.0762 0.1524 0.0762 0.381 0.254 0.635 0.5334 0.2286 0.2794 0.3556 0.4826 0.4064 0.6604 0.051 0.1778 0.051 0.4572 0.025 0.8382-0.1016 0.7874-0.4318 1.778-1.016 2.9464-0.6096 1.1684-1.3716 2.3876-2.286 3.6576zm-7.0612 0.3302c-0.1016 0.508-0.1524 0.8636-0.2032 1.0922-0.1524 0.6858-0.2794 1.0414-0.4318 1.0668-0.127 0-0.3556-0.1778-0.7112-0.5588-0.5842-0.635-1.1938-1.3716-1.8288-2.286-0.6604-0.8636-1.143-1.651-1.4478-2.286-0.2794-0.5334-0.4572-0.9652-0.508-1.27-0.076-0.3302-0.1016-0.8128-0.1016-1.4732 0-0.6858 0.025-1.143 0.076-1.397s0.2032-0.5588 0.4318-0.9144c0.381-0.5842 0.889-1.016 1.524-1.2446 0.6096-0.254 1.27-0.2794 1.9558-0.1016 0.4064 0.1016 0.9144 0.4064 1.4986 0.9144 0.5842 0.4826 1.0414 0.9652 1.3462 1.4478l0.4318 0.6604-0.5588 1.1684c-0.3302 0.635-0.6096 1.3462-0.8128 2.0828s-0.4318 1.778-0.6604 3.0988zm2.9718 3.6576c-0.508 0.3048-0.8382 0.4572-1.0414 0.4572s-0.4318-0.1524-0.6858-0.4318c-0.2032-0.2032-0.3048-0.381-0.3302-0.5588-0.051-0.1778-0.025-0.508 0.025-0.9906 0.1016-0.7874 0.3048-1.9304 0.6096-3.3782s0.5588-2.3622 0.7112-2.7432c0.1778-0.4318 0.3556-0.7112 0.5588-0.8636 0.1778-0.1778 0.3556-0.1778 0.5588-0.0254 0.254 0.2286 0.5842 1.0922 0.9906 2.6162 0.4064 1.4986 0.6096 2.667 0.6096 3.4798 0 0.4318-0.1524 0.8128-0.4572 1.1938s-0.8128 0.7874-1.5494 1.2446zm-0.3302 8.3058c-0.3302 0.3556-0.5842 0.5588-0.7366 0.5588-0.1778 0.0508-0.381-0.1016-0.635-0.4064-0.2794-0.3302-0.4826-0.9652-0.6096-1.8796-0.1524-0.9398-0.2032-2.032-0.1524-3.2766 0.025-1.016 0.051-1.6256 0.1016-1.8288 0.051-0.2032 0.1524-0.3048 0.3556-0.2794 0.051 0.0254 0.2032 0.0508 0.4572 0.0762 0.2286 0.0254 0.381 0.0508 0.4826 0.0762 0.381 0.0762 0.9652-0.1016 1.7272-0.4826s1.1684-0.5842 1.27-0.5842c0.051 0.0762 0.076 0.3302 0.051 0.762-0.025 0.4572-0.076 1.016-0.1778 1.6764-0.1016 0.6858-0.1778 1.2192-0.2794 1.6002-0.2032 0.7366-0.4826 1.4732-0.8382 2.2606-0.3556 0.762-0.7112 1.3462-1.016 1.7272zm-1.524 1.651c0.3556 0.1778 0.6604 0.254 0.9144 0.254s0.5334-0.0762 0.8636-0.254c0.7366-0.381 1.4478-1.3716 2.1082-2.921 0.3556-0.8636 0.635-1.7272 0.8382-2.5908 0.1778-0.8636 0.3302-1.9558 0.4318-3.2512 0.051-0.635 0.076-1.0668 0.1016-1.2954 0-0.2286 0.051-0.4826 0.127-0.7366s0.1524-0.4318 0.254-0.5334c0.076-0.1016 0.2286-0.2794 0.4318-0.5334 1.8796-2.3368 3.2258-4.5466 3.9878-6.6294 0.4064-1.143 0.5842-2.0574 0.508-2.7178-0.1016-0.7112-0.4318-1.2954-1.0414-1.8034-0.9144-0.762-2.0066-1.0414-3.302-0.8382-1.3208 0.2286-2.4892 0.8636-3.556 1.905l-0.8636 0.8636-1.0922-1.0922c-0.5842-0.6096-1.0668-1.0414-1.4732-1.2954s-0.9398-0.4572-1.6002-0.635c-0.9906-0.254-1.9812-0.127-2.9464 0.381-0.9906 0.508-1.651 1.2446-2.0066 2.2098-0.2794 0.6858-0.4064 1.524-0.381 2.4892 0.025 0.9652 0.2032 1.778 0.508 2.413 0.3048 0.6604 0.8382 1.4986 1.6002 2.54s1.6002 2.0066 2.4638 2.921l1.3208 1.4224-0.1778 1.651c-0.1524 1.4478-0.1524 2.8702 0.051 4.2418 0.1778 1.4224 0.4826 2.413 0.9398 3.0226 0.1016 0.1524 0.254 0.3048 0.4572 0.4826 0.2032 0.1524 0.381 0.254 0.5334 0.3302z" stroke-width=".26458"/>
  </g>
 </g>
</svg>
