<svg width="27.502mm" height="31.312mm" version="1.1" viewBox="0 0 27.502 31.312" xmlns="http://www.w3.org/2000/svg">
 <g transform="translate(1235.3 -50.718)">
  <g stroke-width=".26458" style="font-feature-settings:normal;font-variant-caps:normal;font-variant-ligatures:normal;font-variant-numeric:normal" aria-label="îµ">
   <path d="m-1219.9 67.288c-0.5334 0.1524-1.0922 0.2032-1.6764 0.1778-0.5588-0.0254-1.0668-0.1524-1.4986-0.381-0.4572-0.254-1.016-0.7112-1.6256-1.3716-0.6096-0.635-1.1684-1.3462-1.6764-2.1336-0.508-0.762-0.8128-1.4224-0.9398-1.9558-0.051-0.2286-0.025-0.381 0.076-0.4318 0.1016-0.0762 0.4064-0.127 0.9652-0.1778 0.7874-0.0762 2.667-0.127 5.6642-0.127h4.4958l-0.127 1.0922c-0.051 0.7366-0.2794 1.4732-0.6604 2.2606-0.3556 0.762-0.8128 1.4224-1.3716 1.9812s-1.0922 0.9144-1.6256 1.0668zm-2.54 1.5494c0.6604 0.1524 1.2446 0.2032 1.7526 0.1778 0.5334-0.0508 1.1684-0.2032 1.8796-0.4826 1.1176-0.4064 1.9812-1.0922 2.6416-2.0828s1.2192-2.4892 1.7272-4.4958l0.6096-2.3876-0.4572-0.381c-0.1778-0.1524-0.3556-0.254-0.508-0.2794s-0.4064-0.0254-0.7112 0.0254c-0.508 0.0762-2.921 0.1778-7.239 0.254l-6.4516 0.127-0.076 0.5334c-0.051 0.4318 0.127 1.1684 0.4826 2.2098s0.762 1.905 1.1684 2.5654c0.8128 1.2446 1.6256 2.2098 2.4384 2.8702s1.7272 1.1176 2.7432 1.3462zm0.2032 3.7338c0.254 0.254 0.5588 0.3556 0.9144 0.3048 0.381-0.0508 0.6604-0.2286 0.8382-0.5588 0.127-0.2286 0.1778-0.381 0.1778-0.508 0-0.1016-0.076-0.254-0.2286-0.4826-0.1016-0.1778-0.2286-0.3048-0.381-0.381s-0.3302-0.1016-0.5588-0.1016c-0.4064 0-0.6858 0.0762-0.8382 0.2286-0.1524 0.1778-0.2286 0.4064-0.2286 0.7366 0.025 0.3048 0.127 0.5588 0.3048 0.762z" stroke-width=".26458"/>
  </g>
 </g>
</svg>
