<svg width="27.502mm" height="31.312mm" version="1.1" viewBox="0 0 27.502 31.312" xmlns="http://www.w3.org/2000/svg">
 <g transform="translate(1235.3 -50.718)">
  <g stroke-width=".26458" style="font-feature-settings:normal;font-variant-caps:normal;font-variant-ligatures:normal;font-variant-numeric:normal" aria-label="î¶">
   <path d="m-1228.3 74.807c0.076 0.0762 0.1778 0.1524 0.3302 0.254 0.1524 0.0508 0.254 0.1016 0.3556 0.1016 0.254 0 0.8128-0.4572 1.6764-1.397s1.8034-2.0574 2.8194-3.4036c1.1176-1.4986 1.7526-2.3114 1.9558-2.4638 0.025-0.0254 0.051-0.0254 0.076-0.0508 0.025 0 0.051 0.0254 0.1016 0.0508 0.051 0.0254 0.1016 0.0762 0.1524 0.127 0.051 0.0508 0.127 0.127 0.2032 0.2286 0.076 0.1016 0.1524 0.2032 0.254 0.3556 0.1016 0.1016 0.2032 0.2794 0.3302 0.4572 0.1016 0.2032 0.254 0.4064 0.4064 0.6604 0.1524 0.2032 0.3048 0.4826 0.508 0.8128 0.2794 0.4826 0.5334 0.889 0.762 1.2192 0.2032 0.3302 0.4064 0.6604 0.6096 0.9652 0.2032 0.2794 0.3556 0.5334 0.508 0.7112 0.1524 0.2032 0.2794 0.381 0.4064 0.5334s0.254 0.2794 0.3556 0.3302c0.1016 0.1016 0.1778 0.1524 0.2794 0.2032 0.1016 0.0254 0.1778 0.0508 0.2794 0.0508 0.076 0 0.1524-0.0254 0.254-0.0508 0.127-0.0762 0.4826-0.889 1.0414-2.4892s0.889-2.7432 1.0414-3.4544c0.025-0.3048 0.025-0.508 0-0.6096-0.051-0.127-0.1524-0.254-0.3556-0.381-0.3556-0.2286-0.6604-0.2794-0.8636-0.1016-0.2286 0.1778-0.4064 0.5588-0.5334 1.1684-0.1524 0.6096-0.3302 1.1938-0.5842 1.7526-0.254 0.5588-0.4572 0.8382-0.5588 0.8382-0.051 0-0.2286-0.1778-0.4826-0.5334-0.2794-0.3556-0.5842-0.7874-0.889-1.2954-0.9144-1.3716-1.4732-2.2606-1.7018-2.667-0.254-0.4318-0.3302-0.6858-0.2794-0.8128 0.076-0.1778 0.7112-1.0668 1.8796-2.6416s2.0828-2.7686 2.7432-3.556c0.4064-0.5334 0.7112-0.9144 0.9398-1.2192 0.2032-0.254 0.381-0.508 0.4826-0.7366s0.1524-0.381 0.1524-0.4826c-0.025-0.127-0.076-0.2286-0.1778-0.3556-0.1016-0.1016-0.2032-0.1778-0.254-0.2286-0.254-0.1778-0.5334-0.127-0.889 0.2032-0.4064 0.3556-1.3716 1.524-2.8448 3.5306-0.8128 1.0668-1.4986 1.9812-2.1082 2.7432-0.6096 0.7366-0.9398 1.1176-0.9906 1.1176-0.051 0-0.1778-0.1016-0.3556-0.3302s-0.3556-0.4826-0.5588-0.8128c-0.5842-0.9398-1.2954-1.9558-2.1336-3.0734s-1.3716-1.7526-1.6256-1.905c-0.3302-0.2032-0.6096-0.2794-0.8128-0.2286-0.2286 0.0762-0.3556 0.254-0.381 0.5334-0.051 0.3048 0.254 0.8382 0.889 1.5748 0.4572 0.5842 1.1176 1.4732 1.9558 2.6924s1.397 2.0828 1.6764 2.6162l0.3048 0.5842-1.7018 2.413c-1.0922 1.524-1.8796 2.5654-2.3368 3.1496-0.4572 0.5588-0.762 0.8382-0.9144 0.8382-0.127 0-0.254-0.1778-0.4064-0.5588s-0.3556-1.1176-0.635-2.2098c-0.127-0.4572-0.3302-0.7874-0.6096-0.9906s-0.5334-0.2032-0.762 0c-0.1016 0.0762-0.1524 0.2286-0.1524 0.4318 0 0.2286 0.076 0.6858 0.2286 1.3716 0.2032 1.0668 0.3556 2.0066 0.4572 2.8448 0.076 0.8128 0.2286 1.3462 0.4826 1.5748z" stroke-width=".26458"/>
  </g>
 </g>
</svg>
