<svg width="27.502mm" height="31.312mm" version="1.1" viewBox="0 0 27.502 31.312" xmlns="http://www.w3.org/2000/svg">
 <g transform="translate(1235.3 -50.718)">
  <g stroke-width=".26458" style="font-feature-settings:normal;font-variant-caps:normal;font-variant-ligatures:normal;font-variant-numeric:normal" aria-label="î·">
   <path d="m-1217 72.8c-1.143 0.127-2.413 0.1778-3.8354 0.1524-2.1844-0.0254-3.6068-0.0508-4.2672-0.0762-1.7526-0.0508-2.7178-0.1524-2.921-0.3048-0.1016-0.0762-0.1016-0.2032-0.051-0.4318 0.051-0.3048 0.6096-1.524 1.6764-3.683 1.016-2.1336 1.905-3.937 2.6162-5.3848 0.025-0.0762 0.076-0.2032 0.1524-0.3302 0.2032-0.4318 0.3302-0.7366 0.4318-0.9144 0.076-0.1778 0.2032-0.4064 0.3556-0.635s0.2286-0.381 0.2794-0.4572c0.051-0.0508 0.127-0.1016 0.2794-0.1524 0.1524-0.0254 0.254-0.0254 0.3048 0 0.051 0.0508 0.1524 0.1524 0.3302 0.3048 0.1778 0.127 0.3302 0.254 0.4318 0.4064 0.1016 0.1016 0.3048 0.3302 0.5588 0.635 0.1016 0.1016 0.1524 0.1778 0.2032 0.2286 0.9144 1.0922 1.5748 1.9558 1.9812 2.5654s0.9398 1.6002 1.651 2.9718c0.508 1.0668 0.9652 2.0828 1.3208 3.0988 0.3556 0.9652 0.4572 1.524 0.3556 1.651-0.127 0.1016-0.7366 0.2286-1.8542 0.3556zm-2.7432 1.6256c0.051 0.0508 0.2032 0.0508 0.4572 0s1.2192-0.1524 2.8448-0.2794c1.6256-0.1524 2.5908-0.254 2.8702-0.3048 0.5334-0.1016 0.5842-0.5842 0.1778-1.4732-0.254-0.4826-0.4826-1.0668-0.7112-1.7272-0.254-0.6858-0.6096-1.6002-1.1176-2.794l-0.7874-1.778 0.9398-1.0668c0.6858-0.8382 1.1176-1.3716 1.27-1.651s0.1524-0.508 0-0.7112c-0.1778-0.2286-0.381-0.2794-0.635-0.1778-0.254 0.127-0.7112 0.4572-1.3208 1.016-0.7112 0.6096-1.0922 0.9144-1.1684 0.9144-0.1016 0-1.0668-1.1938-2.8702-3.5814-0.7112-0.9398-1.397-1.778-2.032-2.4638l-0.1016-0.1016c-0.2286-0.2032-0.4572-0.1778-0.7112 0.1016-0.3302 0.3302-1.0414 1.524-2.1336 3.6322-0.7874 1.4732-1.27 2.2098-1.4478 2.2098-0.2032-0.0254-0.6604-0.2032-1.3716-0.5842-1.1176-0.5842-1.7272-0.635-1.8288-0.1016-0.051 0.2794 0.051 0.5588 0.3302 0.889 0.254 0.3302 0.6604 0.635 1.2192 0.9398l1.016 0.5842-0.3556 0.889c-0.254 0.6096-0.7366 1.6764-1.4986 3.2004-0.254 0.4572-0.4318 0.8128-0.5588 1.0922s-0.2286 0.5588-0.3302 0.8636-0.1778 0.5334-0.2286 0.7112c-0.051 0.1524-0.025 0.3302 0.025 0.508 0.051 0.1778 0.127 0.3302 0.2286 0.4064s0.254 0.1778 0.508 0.254c0.254 0.1016 0.4826 0.1778 0.7366 0.2032s0.6096 0.0762 1.0668 0.1016l1.3716 0.0762c0.4318 0.0254 1.016 0.0254 1.7272 0.0508 2.8956 0.0508 4.3688 0.1016 4.4196 0.1524z" stroke-width=".26458"/>
  </g>
 </g>
</svg>
