<svg width="27.502mm" height="31.312mm" version="1.1" viewBox="0 0 27.502 31.312" xmlns="http://www.w3.org/2000/svg">
 <g transform="translate(1235.3 -50.718)">
  <g stroke-width=".26458" style="font-feature-settings:normal;font-variant-caps:normal;font-variant-ligatures:normal;font-variant-numeric:normal" aria-label="î¸">
   <path d="m-1220.2 74.375c0.025 0.0508 0.127 0.1016 0.254 0.127 0.127 0.0508 0.2794 0.0762 0.4318 0.0762 0.2794 0 0.4318-0.0254 0.4572-0.1016 0.051-0.0762 0.051-0.3048 0-0.6858-0.076-0.5334-0.1778-1.0922-0.3048-1.7272-0.1778-0.9398-0.254-1.905-0.254-2.9464-0.025-1.0414 0.051-2.7686 0.2032-5.1816 0.025-0.0508 0.025-0.1016 0.025-0.127 0.2032-3.175 0.2286-5.1308 0.1016-5.842-0.127-0.6096-0.381-0.8382-0.762-0.6604-0.3556 0.1778-1.0668 0.8382-2.1082 1.9812-0.5334 0.5842-0.9652 1.0922-1.3208 1.5494-0.381 0.4826-0.5588 0.762-0.5588 0.8636 0 0.0762 0.051 0.1778 0.1016 0.2794 0.1016 0.1016 0.1778 0.1778 0.2794 0.2286 0.1524 0.0762 0.3302 0.0508 0.508-0.1016 0.1778-0.127 0.5588-0.508 1.1176-1.1176 0.889-0.9398 1.3716-1.397 1.4478-1.397 0.076 0 0.1016 0.2286 0.1016 0.6604 0.025 0.4318 0 1.0668-0.051 1.8542-0.051 0.8128-0.127 1.7272-0.2286 2.7178-0.2032 2.032-0.254 3.9878-0.127 5.8674 0.1016 1.8542 0.3302 3.0988 0.6858 3.683z" stroke-width=".26458"/>
  </g>
 </g>
</svg>
