<svg width="27.502mm" height="31.312mm" version="1.1" viewBox="0 0 27.502 31.312" xmlns="http://www.w3.org/2000/svg">
 <g transform="translate(1235.3 -50.718)">
  <g stroke-width=".26458" style="font-feature-settings:normal;font-variant-caps:normal;font-variant-ligatures:normal;font-variant-numeric:normal" aria-label="î¹">
   <path d="m-1222.4 65.409c0.2286 0.254 0.381 0.381 0.4572 0.3556 0.1524 0 0.2794-0.1016 0.4064-0.3048 0.127-0.2286 0.1778-0.4826 0.1778-0.762s-0.025-0.4318-0.076-0.508c-0.076-0.0762-0.2032-0.1016-0.4064-0.1016-0.3302 0-0.5842 0.1524-0.7112 0.4572s-0.076 0.5842 0.1524 0.8636zm-2.3114-0.0508c0.127 0.2794 0.3048 0.4318 0.5588 0.4064s0.4572-0.1778 0.5842-0.4826c0.1524-0.3302 0.1524-0.5842 0.025-0.7874-0.1778-0.2286-0.3556-0.3302-0.5842-0.3048s-0.4064 0.1524-0.5334 0.4064c-0.127 0.2286-0.1524 0.4826-0.051 0.762zm-0.5334 12.065c0.1778 0.1016 0.3556 0.0762 0.5588-0.0762s0.3556-0.381 0.4318-0.6604c0.076-0.3302 0.127-1.7018 0.1016-4.0894-0.025-1.4224 0-2.3876 0.025-2.921 0.025-0.508 0.1016-0.8128 0.2032-0.889 0.1778-0.127 1.2192-0.2032 3.1496-0.1778 1.5748 0.0254 2.667-0.0508 3.302-0.1778 0.6096-0.127 0.9652-0.381 1.0922-0.762 0.076-0.2794 0-0.635-0.254-1.0414-0.2794-0.4572-1.0922-1.6002-2.4892-3.4798-4.2418-5.8166-6.5532-8.7376-6.8834-8.7884-0.1016-0.0254-0.2032 0-0.3048 0.0254-0.127 0.0508-0.2032 0.127-0.2794 0.2032-0.1016 0.127-0.1524 0.2286-0.127 0.3302 0.025 0.1016 0.1016 0.254 0.2286 0.4826 0.4064 0.6604 1.905 2.667 4.4958 6.0452 0.8382 1.0922 1.5494 2.032 2.1336 2.8702s0.9906 1.4986 1.27 1.9812c0.254 0.4826 0.3302 0.762 0.2286 0.8128-0.1778 0.1016-1.143 0.127-2.8956 0.1016s-2.7686 0-3.048 0.1016c-0.127 0.0508-0.254 0.1524-0.4064 0.2794-0.1778 0.1524-0.3048 0.3048-0.4318 0.4826-0.1524 0.2032-0.254 0.4064-0.2794 0.5842-0.051 0.1778-0.076 0.6096-0.1016 1.2954-0.025 0.6858-0.025 1.6764 0 3.0226 0.025 2.8702 0.127 4.3688 0.2794 4.445z" stroke-width=".26458"/>
  </g>
 </g>
</svg>
