<svg width="27.502mm" height="31.312mm" version="1.1" viewBox="0 0 27.502 31.312" xmlns="http://www.w3.org/2000/svg">
 <g transform="translate(1235.3 -50.718)">
  <g stroke-width=".26458" style="font-feature-settings:normal;font-variant-caps:normal;font-variant-ligatures:normal;font-variant-numeric:normal" aria-label="îº">
   <path d="m-1227.7 71.175c0.127 0.1016 0.2286 0.1524 0.3048 0.1524 0.8128 0.0762 0.051-3.429-2.2606-10.516-0.6096-1.905-1.0414-3.0226-1.2954-3.3528-0.1524-0.2794-0.3556-0.3302-0.6096-0.1778-0.1016 0.0762-0.1778 0.2032-0.2286 0.3048-0.051 0.1524-0.025 0.4064 0.051 0.7874s0.2032 0.8636 0.381 1.4478c0.1778 0.5588 0.4318 1.397 0.7874 2.5146 0.8128 2.4892 1.3462 4.2672 1.6002 5.3086 0.3048 1.143 0.5334 1.9812 0.7366 2.54 0.2032 0.5334 0.381 0.8636 0.5334 0.9906zm6.7056 2.667c-1.143 0.5588-2.1082 0.5334-2.8956-0.1016-0.762-0.635-1.1938-1.7272-1.2954-3.2766-0.051-1.27 0.076-2.4638 0.4318-3.6322 0.3556-1.1176 0.889-1.9812 1.5494-2.5654 0.254-0.2286 0.4826-0.3556 0.6858-0.4318s0.4572-0.1016 0.7874-0.1016c0.4064 0 0.7112 0.0508 0.9144 0.1524 0.2032 0.127 0.5588 0.4572 1.1176 1.016 0.6858 0.6858 1.2192 1.397 1.6002 2.0828s0.5588 1.3208 0.5588 1.8796c0 0.8128-0.3556 1.7526-1.0922 2.794s-1.524 1.778-2.3622 2.1844zm-2.8702 1.5748c0.381 0.1778 0.7874 0.2794 1.2446 0.3048 0.4572 0 0.889-0.0762 1.3462-0.2032s0.9144-0.3556 1.3716-0.635 0.8636-0.635 1.27-0.9906c0.4064-0.4064 0.762-0.8382 1.0668-1.3462 0.3302-0.508 0.6096-1.0414 0.8128-1.6002l0.4318-1.143 0.1524 1.1176c0.3048 2.3622 0.8636 1.8034 1.7272-1.7018 0.4572-1.7526 0.9398-3.6068 1.4986-5.5118 1.0668-3.683 1.6002-5.9182 1.6002-6.7564 0-0.2032-0.025-0.3556-0.1016-0.4826-0.051-0.127-0.1778-0.2286-0.381-0.3048-0.1016-0.0508-0.2032-0.0762-0.3048-0.1016-0.076 0-0.1524 0.0254-0.2286 0.0508-0.076 0.0254-0.1524 0.1016-0.2032 0.2032-0.051 0.0762-0.1016 0.2032-0.1778 0.4064-0.051 0.1524-0.127 0.3556-0.1778 0.5842-0.051 0.2286-0.1016 0.508-0.1778 0.8636-0.3048 1.5748-1.0922 4.4958-2.413 8.7884-0.2286 0.8382-0.381 1.27-0.4826 1.27s-0.3302-0.4318-0.6858-1.27-1.016-1.778-1.9812-2.8194c-0.9652-1.016-1.7272-1.6002-2.3114-1.7526-2.286-0.6096-3.937 0.6096-5.0038 3.683-0.3302 0.9906-0.5334 1.9812-0.6096 2.9972-0.076 0.9652-0.025 1.8796 0.1524 2.6924 0.2032 0.8382 0.508 1.5748 0.9398 2.2098 0.4572 0.635 0.9906 1.1176 1.6256 1.4478z" stroke-width=".26458"/>
  </g>
 </g>
</svg>
