<svg width="27.502mm" height="31.312mm" version="1.1" viewBox="0 0 27.502 31.312" xmlns="http://www.w3.org/2000/svg">
 <g transform="translate(1235.3 -50.718)">
  <g stroke-width=".26458" style="font-feature-settings:normal;font-variant-caps:normal;font-variant-ligatures:normal;font-variant-numeric:normal" aria-label="î»">
   <path d="m-1219.5 63.986c0.2032 0.2032 0.4064 0.3048 0.635 0.3048 0.1524 0 0.7366-0.5334 1.8034-1.5748 1.0414-1.0414 2.0574-2.1336 3.0734-3.2512 0.9906-1.1176 1.4986-1.7526 1.4986-1.9304 0-0.5334-0.4318-0.6604-1.27-0.4064-0.254 0.0762-0.635 0.3048-1.143 0.762-0.4826 0.4064-1.2446 1.143-2.2352 2.159-0.508 0.508-0.889 0.9144-1.1938 1.2446-0.2794 0.3048-0.5588 0.6096-0.7874 0.8636-0.254 0.3048-0.4064 0.508-0.508 0.6604-0.076 0.1778-0.1524 0.3302-0.1778 0.4826-0.025 0.1524 0 0.2794 0.051 0.381 0.051 0.0762 0.127 0.1778 0.254 0.3048zm-5.1308-0.3048c0.2032 0.3048 0.4064 0.508 0.5588 0.6096 0.1524 0.127 0.3302 0.1778 0.5334 0.1778s0.3556-0.0254 0.4318-0.0762c0.051-0.0762 0.1016-0.1778 0.1016-0.3302 0-0.381-0.2032-0.8636-0.5842-1.4986-0.4064-0.635-0.9398-1.3208-1.651-2.0828-0.9398-1.016-1.8542-2.0828-2.7178-3.2258-0.508-0.635-0.889-1.0922-1.1684-1.3462-0.254-0.254-0.4826-0.381-0.6858-0.4064s-0.3556 0-0.4064 0.0508c-0.1778 0.127 0 0.6604 0.508 1.5748 0.7112 1.27 1.778 2.7178 3.2512 4.3434 0.8128 0.9398 1.4224 1.6764 1.8288 2.2098zm8.0772 9.7028c0.508 0.5334 0.889 0.8382 1.143 0.9398s0.5334 0.0508 0.889-0.127c0.2794-0.127 0.4064-0.3556 0.3556-0.6604-0.051-0.3048-0.254-0.5842-0.6096-0.8636-0.2032-0.127-0.508-0.4826-0.9652-1.0668-0.4572-0.5588-0.9398-1.1684-1.397-1.8542-0.508-0.7112-0.889-1.2192-1.0922-1.5494-0.2286-0.3048-0.4318-0.5588-0.6604-0.8128-0.2032-0.2032-0.3556-0.3556-0.4572-0.4064-0.076-0.0508-0.2286-0.1016-0.381-0.127-0.254-0.0762-0.4318-0.0508-0.5588 0.0254-0.1524 0.0762-0.254 0.254-0.3302 0.508-0.1016 0.254 0.127 0.7112 0.635 1.397 0.5334 0.6858 1.0668 1.4478 1.6256 2.286 0.2032 0.3556 0.508 0.762 0.8382 1.1938 0.3556 0.4572 0.6604 0.8382 0.9652 1.1176zm-13.818 2.5908c0.051 0.1778 0.1524 0.2794 0.254 0.3048 0.3302 0.1016 1.0668-0.4318 2.2098-1.6002 0.9398-0.9652 2.0066-2.3114 3.175-4.064 1.1938-1.7526 1.7272-2.7686 1.6764-3.0988-0.076-0.2286-0.3048-0.4064-0.6604-0.5334-0.381-0.1016-0.6604-0.0762-0.8636 0.1016-0.1778 0.127-0.5588 0.6858-1.143 1.651-0.635 1.016-1.1938 1.8542-1.6764 2.5146-0.508 0.6604-1.1176 1.397-1.8288 2.2098-0.6096 0.6858-0.9652 1.1684-1.1176 1.4986s-0.1778 0.6604-0.025 1.016z" stroke-width=".26458"/>
  </g>
 </g>
</svg>
