<svg width="27.502mm" height="31.312mm" version="1.1" viewBox="0 0 27.502 31.312" xmlns="http://www.w3.org/2000/svg">
 <g transform="translate(1235.3 -50.718)">
  <g stroke-width=".26458" style="font-feature-settings:normal;font-variant-caps:normal;font-variant-ligatures:normal;font-variant-numeric:normal" aria-label="î¼">
   <path d="m-1218.3 74.4c0.508 0.127 0.9144 0.1524 1.2192 0.1524 0.3302-0.0508 0.762-0.1524 1.3462-0.381 0.635-0.2286 1.27-0.635 1.905-1.2446 0.635-0.635 1.1684-1.2954 1.5494-2.0066 0.3048-0.5334 0.635-1.3716 0.9652-2.5146s0.5588-2.1082 0.6858-2.921c0.127-0.9652 0.127-2.0066-0.025-3.1242-0.1524-1.1176-0.4318-2.0828-0.8128-2.921s-0.6858-1.397-0.9144-1.7018c-0.2286-0.254-0.4826-0.4064-0.7874-0.4064-0.1778 0-0.2794 0.0508-0.3556 0.127-0.2286 0.254 0 1.1176 0.6858 2.5654 0.6096 1.3208 0.9144 2.54 0.889 3.7084 0 1.1176-0.3048 2.54-0.9398 4.2418-0.4318 1.1684-0.8636 2.1082-1.2954 2.7686-0.4572 0.7112-1.016 1.2446-1.651 1.6256-0.8382 0.5334-1.5748 0.6604-2.2098 0.4064-0.6096-0.2794-1.1684-0.9652-1.651-2.0828-0.4064-0.8636-0.6858-1.4224-0.8382-1.6764-0.127-0.254-0.3302-0.4826-0.5842-0.6604-0.3556-0.254-0.635-0.3048-0.889-0.1524-0.2032 0.1524-0.4826 0.5842-0.8128 1.2954-0.4572 0.9906-0.9652 1.7018-1.4986 2.159s-1.1684 0.6858-1.8796 0.6858c-0.7874 0-1.4986-0.2794-2.1336-0.889-0.635-0.5588-1.2446-1.524-1.8542-2.8194-0.2794-0.6096-0.4318-1.0922-0.508-1.4478-0.051-0.3302-0.076-1.0922-0.076-2.2606 0.025-1.3462 0.127-2.3876 0.3048-3.175 0.1778-0.762 0.508-1.4478 0.9906-2.0828 0.3048-0.381 0.4572-0.6858 0.4572-0.9144s-0.1524-0.381-0.4826-0.508c-0.3556-0.127-0.6858-0.0508-0.9906 0.2032-0.3048 0.2286-0.6604 0.7366-1.0414 1.4986-0.6858 1.3716-1.0414 3.0988-1.0414 5.1816 0 1.0922 0.2032 2.2098 0.5842 3.3782 0.381 1.1176 0.9144 2.1336 1.6002 3.048 0.6604 0.8636 1.397 1.524 2.2098 1.9558 0.889 0.4572 1.8542 0.5588 2.9464 0.2794 1.0922-0.254 2.032-0.8128 2.8448-1.7018 0.1778-0.2032 0.3302-0.3556 0.4572-0.4826 0.127-0.1016 0.2286-0.1778 0.2794-0.2286 0.1016-0.0508 0.1524-0.0762 0.2032-0.0762 0.051 0.0254 0.1016 0.0508 0.127 0.1016 0.5588 0.9398 1.0668 1.651 1.5494 2.1336 0.4572 0.4572 0.9398 0.7366 1.4732 0.8636z" stroke-width=".26458"/>
  </g>
 </g>
</svg>
